M48
; DRILL file {KiCad 9.0.1} date 2025-05-11T16:27:53+0900
; FORMAT={-:-/ absolute / metric / decimal}
; #@! TF.CreationDate,2025-05-11T16:27:53+09:00
; #@! TF.GenerationSoftware,Kicad,Pcbnew,9.0.1
; #@! TF.FileFunction,Plated,1,2,PTH
FMAT,2
METRIC
; #@! TA.AperFunction,Plated,PTH,ComponentDrill
T1C0.300
; #@! TA.AperFunction,Plated,PTH,ComponentDrill
T2C0.900
; #@! TA.AperFunction,Plated,PTH,ComponentDrill
T3C1.000
%
G90
G05
T2
X117.872Y-150.019
X120.412Y-150.019
X165.497Y-150.019
X168.037Y-150.019
T3
X117.872Y-141.659
X120.412Y-141.659
X165.438Y-141.659
X167.978Y-141.659
T1
G00X31.15Y-64.487
M15
G01X31.15Y-78.388
M16
G05
G00X31.15Y-83.537
M15
G01X31.15Y-97.438
M16
G05
G00X31.15Y-102.587
M15
G01X31.15Y-116.487
M16
G05
G00X31.15Y-121.637
M15
G01X31.15Y-135.537
M16
G05
G00X31.15Y-64.487
M15
G01X45.05Y-64.487
M16
G05
G00X31.15Y-78.388
M15
G01X45.05Y-78.388
M16
G05
G00X31.15Y-83.537
M15
G01X45.05Y-83.537
M16
G05
G00X31.15Y-97.438
M15
G01X45.05Y-97.438
M16
G05
G00X31.15Y-102.587
M15
G01X45.05Y-102.587
M16
G05
G00X31.15Y-116.487
M15
G01X45.05Y-116.487
M16
G05
G00X31.15Y-121.637
M15
G01X45.05Y-121.637
M16
G05
G00X31.15Y-135.537
M15
G01X45.05Y-135.537
M16
G05
G00X40.675Y-140.688
M15
G01X40.675Y-154.588
M16
G05
G00X45.05Y-64.487
M15
G01X45.05Y-78.388
M16
G05
G00X45.05Y-83.537
M15
G01X45.05Y-97.438
M16
G05
G00X45.05Y-102.587
M15
G01X45.05Y-116.487
M16
G05
G00X45.05Y-121.637
M15
G01X45.05Y-135.537
M16
G05
G00X40.675Y-140.688
M15
G01X54.575Y-140.688
M16
G05
G00X40.675Y-154.588
M15
G01X54.575Y-154.588
M16
G05
G00X50.2Y-64.487
M15
G01X50.2Y-78.388
M16
G05
G00X50.2Y-83.537
M15
G01X50.2Y-97.438
M16
G05
G00X50.2Y-102.587
M15
G01X50.2Y-116.487
M16
G05
G00X50.2Y-121.637
M15
G01X50.2Y-135.537
M16
G05
G00X54.575Y-140.688
M15
G01X54.575Y-154.588
M16
G05
G00X50.2Y-64.487
M15
G01X64.1Y-64.487
M16
G05
G00X50.2Y-78.388
M15
G01X64.1Y-78.388
M16
G05
G00X50.2Y-83.537
M15
G01X64.1Y-83.537
M16
G05
G00X50.2Y-97.438
M15
G01X64.1Y-97.438
M16
G05
G00X50.2Y-102.587
M15
G01X64.1Y-102.587
M16
G05
G00X50.2Y-116.487
M15
G01X64.1Y-116.487
M16
G05
G00X50.2Y-121.637
M15
G01X64.1Y-121.637
M16
G05
G00X50.2Y-135.537
M15
G01X64.1Y-135.537
M16
G05
G00X59.725Y-140.688
M15
G01X59.725Y-154.588
M16
G05
G00X64.1Y-64.487
M15
G01X64.1Y-78.388
M16
G05
G00X64.1Y-83.537
M15
G01X64.1Y-97.438
M16
G05
G00X64.1Y-102.587
M15
G01X64.1Y-116.487
M16
G05
G00X64.1Y-121.637
M15
G01X64.1Y-135.537
M16
G05
G00X59.725Y-140.688
M15
G01X73.625Y-140.688
M16
G05
G00X59.725Y-154.588
M15
G01X73.625Y-154.588
M16
G05
G00X69.25Y-64.487
M15
G01X69.25Y-78.388
M16
G05
G00X69.25Y-83.537
M15
G01X69.25Y-97.438
M16
G05
G00X69.25Y-102.587
M15
G01X69.25Y-116.487
M16
G05
G00X69.25Y-121.637
M15
G01X69.25Y-135.537
M16
G05
G00X73.625Y-140.688
M15
G01X73.625Y-154.588
M16
G05
G00X69.25Y-64.487
M15
G01X83.15Y-64.487
M16
G05
G00X69.25Y-78.388
M15
G01X83.15Y-78.388
M16
G05
G00X69.25Y-83.537
M15
G01X83.15Y-83.537
M16
G05
G00X69.25Y-97.438
M15
G01X83.15Y-97.438
M16
G05
G00X69.25Y-102.587
M15
G01X83.15Y-102.587
M16
G05
G00X69.25Y-116.487
M15
G01X83.15Y-116.487
M16
G05
G00X69.25Y-121.637
M15
G01X83.15Y-121.637
M16
G05
G00X69.25Y-135.537
M15
G01X83.15Y-135.537
M16
G05
G00X78.775Y-140.688
M15
G01X78.775Y-154.588
M16
G05
G00X83.15Y-64.487
M15
G01X83.15Y-78.388
M16
G05
G00X83.15Y-83.537
M15
G01X83.15Y-97.438
M16
G05
G00X83.15Y-102.587
M15
G01X83.15Y-116.487
M16
G05
G00X83.15Y-121.637
M15
G01X83.15Y-135.537
M16
G05
G00X78.775Y-140.688
M15
G01X92.675Y-140.688
M16
G05
G00X78.775Y-154.588
M15
G01X92.675Y-154.588
M16
G05
G00X88.3Y-64.487
M15
G01X88.3Y-78.388
M16
G05
G00X88.3Y-83.537
M15
G01X88.3Y-97.438
M16
G05
G00X88.3Y-102.587
M15
G01X88.3Y-116.487
M16
G05
G00X88.3Y-121.637
M15
G01X88.3Y-135.537
M16
G05
G00X92.675Y-140.688
M15
G01X92.675Y-154.588
M16
G05
G00X88.3Y-64.487
M15
G01X102.2Y-64.487
M16
G05
G00X88.3Y-78.388
M15
G01X102.2Y-78.388
M16
G05
G00X88.3Y-83.537
M15
G01X102.2Y-83.537
M16
G05
G00X88.3Y-97.438
M15
G01X102.2Y-97.438
M16
G05
G00X88.3Y-102.587
M15
G01X102.2Y-102.587
M16
G05
G00X88.3Y-116.487
M15
G01X102.2Y-116.487
M16
G05
G00X88.3Y-121.637
M15
G01X102.2Y-121.637
M16
G05
G00X88.3Y-135.537
M15
G01X102.2Y-135.537
M16
G05
G00X100.206Y-140.688
M15
G01X100.206Y-154.588
M16
G05
G00X102.2Y-64.487
M15
G01X102.2Y-78.388
M16
G05
G00X102.2Y-83.537
M15
G01X102.2Y-97.438
M16
G05
G00X102.2Y-102.587
M15
G01X102.2Y-116.487
M16
G05
G00X102.2Y-121.637
M15
G01X102.2Y-135.537
M16
G05
G00X100.206Y-140.688
M15
G01X114.106Y-140.688
M16
G05
G00X100.206Y-154.588
M15
G01X114.106Y-154.588
M16
G05
G00X107.35Y-64.487
M15
G01X107.35Y-78.388
M16
G05
G00X107.35Y-83.537
M15
G01X107.35Y-97.438
M16
G05
G00X107.35Y-102.587
M15
G01X107.35Y-116.487
M16
G05
G00X107.35Y-121.637
M15
G01X107.35Y-135.537
M16
G05
G00X114.106Y-140.688
M15
G01X114.106Y-154.588
M16
G05
G00X107.35Y-64.487
M15
G01X121.25Y-64.487
M16
G05
G00X107.35Y-78.388
M15
G01X121.25Y-78.388
M16
G05
G00X107.35Y-83.537
M15
G01X121.25Y-83.537
M16
G05
G00X107.35Y-97.438
M15
G01X121.25Y-97.438
M16
G05
G00X107.35Y-102.587
M15
G01X121.25Y-102.587
M16
G05
G00X107.35Y-116.487
M15
G01X121.25Y-116.487
M16
G05
G00X107.35Y-121.637
M15
G01X121.25Y-121.637
M16
G05
G00X107.35Y-135.537
M15
G01X121.25Y-135.537
M16
G05
G00X121.25Y-64.487
M15
G01X121.25Y-78.388
M16
G05
G00X121.25Y-83.537
M15
G01X121.25Y-97.438
M16
G05
G00X121.25Y-102.587
M15
G01X121.25Y-116.487
M16
G05
G00X121.25Y-121.637
M15
G01X121.25Y-135.537
M16
G05
G00X124.019Y-140.688
M15
G01X124.019Y-154.588
M16
G05
G00X126.4Y-64.487
M15
G01X126.4Y-78.388
M16
G05
G00X126.4Y-83.537
M15
G01X126.4Y-97.438
M16
G05
G00X126.4Y-102.587
M15
G01X126.4Y-116.487
M16
G05
G00X126.4Y-121.637
M15
G01X126.4Y-135.537
M16
G05
G00X124.019Y-140.688
M15
G01X137.919Y-140.688
M16
G05
G00X124.019Y-154.588
M15
G01X137.919Y-154.588
M16
G05
G00X126.4Y-64.487
M15
G01X140.3Y-64.487
M16
G05
G00X126.4Y-78.388
M15
G01X140.3Y-78.388
M16
G05
G00X126.4Y-83.537
M15
G01X140.3Y-83.537
M16
G05
G00X126.4Y-97.438
M15
G01X140.3Y-97.438
M16
G05
G00X126.4Y-102.587
M15
G01X140.3Y-102.587
M16
G05
G00X126.4Y-116.487
M15
G01X140.3Y-116.487
M16
G05
G00X126.4Y-121.637
M15
G01X140.3Y-121.637
M16
G05
G00X126.4Y-135.537
M15
G01X140.3Y-135.537
M16
G05
G00X137.919Y-140.688
M15
G01X137.919Y-154.588
M16
G05
G00X140.3Y-64.487
M15
G01X140.3Y-78.388
M16
G05
G00X140.3Y-83.537
M15
G01X140.3Y-97.438
M16
G05
G00X140.3Y-102.587
M15
G01X140.3Y-116.487
M16
G05
G00X140.3Y-121.637
M15
G01X140.3Y-135.537
M16
G05
G00X145.45Y-64.487
M15
G01X145.45Y-78.388
M16
G05
G00X145.45Y-83.537
M15
G01X145.45Y-97.438
M16
G05
G00X145.45Y-102.587
M15
G01X145.45Y-116.487
M16
G05
G00X145.45Y-121.637
M15
G01X145.45Y-135.537
M16
G05
G00X147.831Y-140.688
M15
G01X147.831Y-154.588
M16
G05
G00X145.45Y-64.487
M15
G01X159.35Y-64.487
M16
G05
G00X145.45Y-78.388
M15
G01X159.35Y-78.388
M16
G05
G00X145.45Y-83.537
M15
G01X159.35Y-83.537
M16
G05
G00X145.45Y-97.438
M15
G01X159.35Y-97.438
M16
G05
G00X145.45Y-102.587
M15
G01X159.35Y-102.587
M16
G05
G00X145.45Y-116.487
M15
G01X159.35Y-116.487
M16
G05
G00X145.45Y-121.637
M15
G01X159.35Y-121.637
M16
G05
G00X145.45Y-135.537
M15
G01X159.35Y-135.537
M16
G05
G00X147.831Y-140.688
M15
G01X161.731Y-140.688
M16
G05
G00X147.831Y-154.588
M15
G01X161.731Y-154.588
M16
G05
G00X159.35Y-64.487
M15
G01X159.35Y-78.388
M16
G05
G00X159.35Y-83.537
M15
G01X159.35Y-97.438
M16
G05
G00X159.35Y-102.587
M15
G01X159.35Y-116.487
M16
G05
G00X159.35Y-121.637
M15
G01X159.35Y-135.537
M16
G05
G00X161.731Y-140.688
M15
G01X161.731Y-154.588
M16
G05
G00X164.5Y-64.487
M15
G01X164.5Y-78.388
M16
G05
G00X164.5Y-83.537
M15
G01X164.5Y-97.438
M16
G05
G00X164.5Y-102.587
M15
G01X164.5Y-116.487
M16
G05
G00X164.5Y-121.637
M15
G01X164.5Y-135.537
M16
G05
G00X164.5Y-64.487
M15
G01X178.4Y-64.487
M16
G05
G00X164.5Y-78.388
M15
G01X178.4Y-78.388
M16
G05
G00X164.5Y-83.537
M15
G01X178.4Y-83.537
M16
G05
G00X164.5Y-97.438
M15
G01X178.4Y-97.438
M16
G05
G00X164.5Y-102.587
M15
G01X178.4Y-102.587
M16
G05
G00X164.5Y-116.487
M15
G01X178.4Y-116.487
M16
G05
G00X164.5Y-121.637
M15
G01X178.4Y-121.637
M16
G05
G00X164.5Y-135.537
M15
G01X178.4Y-135.537
M16
G05
G00X171.644Y-140.688
M15
G01X171.644Y-154.588
M16
G05
G00X178.4Y-64.487
M15
G01X178.4Y-78.388
M16
G05
G00X178.4Y-83.537
M15
G01X178.4Y-97.438
M16
G05
G00X178.4Y-102.587
M15
G01X178.4Y-116.487
M16
G05
G00X178.4Y-121.637
M15
G01X178.4Y-135.537
M16
G05
G00X171.644Y-140.688
M15
G01X185.544Y-140.688
M16
G05
G00X171.644Y-154.588
M15
G01X185.544Y-154.588
M16
G05
G00X183.55Y-64.487
M15
G01X183.55Y-78.388
M16
G05
G00X183.55Y-83.537
M15
G01X183.55Y-97.438
M16
G05
G00X183.55Y-102.587
M15
G01X183.55Y-116.487
M16
G05
G00X183.55Y-121.637
M15
G01X183.55Y-135.537
M16
G05
G00X185.544Y-140.688
M15
G01X185.544Y-154.588
M16
G05
G00X183.55Y-64.487
M15
G01X197.45Y-64.487
M16
G05
G00X183.55Y-78.388
M15
G01X197.45Y-78.388
M16
G05
G00X183.55Y-83.537
M15
G01X197.45Y-83.537
M16
G05
G00X183.55Y-97.438
M15
G01X197.45Y-97.438
M16
G05
G00X183.55Y-102.587
M15
G01X197.45Y-102.587
M16
G05
G00X183.55Y-116.487
M15
G01X197.45Y-116.487
M16
G05
G00X183.55Y-121.637
M15
G01X197.45Y-121.637
M16
G05
G00X183.55Y-135.537
M15
G01X197.45Y-135.537
M16
G05
G00X193.075Y-140.688
M15
G01X193.075Y-154.588
M16
G05
G00X197.45Y-64.487
M15
G01X197.45Y-78.388
M16
G05
G00X197.45Y-83.537
M15
G01X197.45Y-97.438
M16
G05
G00X197.45Y-102.587
M15
G01X197.45Y-116.487
M16
G05
G00X197.45Y-121.637
M15
G01X197.45Y-135.537
M16
G05
G00X193.075Y-140.688
M15
G01X206.975Y-140.688
M16
G05
G00X193.075Y-154.588
M15
G01X206.975Y-154.588
M16
G05
G00X202.6Y-64.487
M15
G01X202.6Y-78.388
M16
G05
G00X202.6Y-83.537
M15
G01X202.6Y-97.438
M16
G05
G00X202.6Y-102.587
M15
G01X202.6Y-116.487
M16
G05
G00X202.6Y-121.637
M15
G01X202.6Y-135.537
M16
G05
G00X206.975Y-140.688
M15
G01X206.975Y-154.588
M16
G05
G00X202.6Y-64.487
M15
G01X216.5Y-64.487
M16
G05
G00X202.6Y-78.388
M15
G01X216.5Y-78.388
M16
G05
G00X202.6Y-83.537
M15
G01X216.5Y-83.537
M16
G05
G00X202.6Y-97.438
M15
G01X216.5Y-97.438
M16
G05
G00X202.6Y-102.587
M15
G01X216.5Y-102.587
M16
G05
G00X202.6Y-116.487
M15
G01X216.5Y-116.487
M16
G05
G00X202.6Y-121.637
M15
G01X216.5Y-121.637
M16
G05
G00X202.6Y-135.537
M15
G01X216.5Y-135.537
M16
G05
G00X212.125Y-140.688
M15
G01X212.125Y-154.588
M16
G05
G00X216.5Y-64.487
M15
G01X216.5Y-78.388
M16
G05
G00X216.5Y-83.537
M15
G01X216.5Y-97.438
M16
G05
G00X216.5Y-102.587
M15
G01X216.5Y-116.487
M16
G05
G00X216.5Y-121.637
M15
G01X216.5Y-135.537
M16
G05
G00X212.125Y-140.688
M15
G01X226.025Y-140.688
M16
G05
G00X212.125Y-154.588
M15
G01X226.025Y-154.588
M16
G05
G00X221.65Y-64.487
M15
G01X221.65Y-78.388
M16
G05
G00X221.65Y-83.537
M15
G01X221.65Y-97.438
M16
G05
G00X221.65Y-102.587
M15
G01X221.65Y-116.487
M16
G05
G00X221.65Y-121.637
M15
G01X221.65Y-135.537
M16
G05
G00X226.025Y-140.688
M15
G01X226.025Y-154.588
M16
G05
G00X221.65Y-64.487
M15
G01X235.55Y-64.487
M16
G05
G00X221.65Y-78.388
M15
G01X235.55Y-78.388
M16
G05
G00X221.65Y-83.537
M15
G01X235.55Y-83.537
M16
G05
G00X221.65Y-97.438
M15
G01X235.55Y-97.438
M16
G05
G00X221.65Y-102.587
M15
G01X235.55Y-102.587
M16
G05
G00X221.65Y-116.487
M15
G01X235.55Y-116.487
M16
G05
G00X221.65Y-121.637
M15
G01X235.55Y-121.637
M16
G05
G00X221.65Y-135.537
M15
G01X235.55Y-135.537
M16
G05
G00X231.175Y-140.688
M15
G01X231.175Y-154.588
M16
G05
G00X235.55Y-64.487
M15
G01X235.55Y-78.388
M16
G05
G00X235.55Y-83.537
M15
G01X235.55Y-97.438
M16
G05
G00X235.55Y-102.587
M15
G01X235.55Y-116.487
M16
G05
G00X235.55Y-121.637
M15
G01X235.55Y-135.537
M16
G05
G00X231.175Y-140.688
M15
G01X245.075Y-140.688
M16
G05
G00X231.175Y-154.588
M15
G01X245.075Y-154.588
M16
G05
G00X240.7Y-64.487
M15
G01X240.7Y-78.388
M16
G05
G00X240.7Y-83.537
M15
G01X240.7Y-97.438
M16
G05
G00X240.7Y-102.587
M15
G01X240.7Y-116.487
M16
G05
G00X240.7Y-121.637
M15
G01X240.7Y-135.537
M16
G05
G00X245.075Y-140.688
M15
G01X245.075Y-154.588
M16
G05
G00X240.7Y-64.487
M15
G01X254.6Y-64.487
M16
G05
G00X240.7Y-78.388
M15
G01X254.6Y-78.388
M16
G05
G00X240.7Y-83.537
M15
G01X254.6Y-83.537
M16
G05
G00X240.7Y-97.438
M15
G01X254.6Y-97.438
M16
G05
G00X240.7Y-102.587
M15
G01X254.6Y-102.587
M16
G05
G00X240.7Y-116.487
M15
G01X254.6Y-116.487
M16
G05
G00X240.7Y-121.637
M15
G01X254.6Y-121.637
M16
G05
G00X240.7Y-135.537
M15
G01X254.6Y-135.537
M16
G05
G00X254.6Y-64.487
M15
G01X254.6Y-78.388
M16
G05
G00X254.6Y-83.537
M15
G01X254.6Y-97.438
M16
G05
G00X254.6Y-102.587
M15
G01X254.6Y-116.487
M16
G05
G00X254.6Y-121.637
M15
G01X254.6Y-135.537
M16
G05
M30
