%TF.GenerationSoftware,KiCad,Pcbnew,9.0.1*%
%TF.CreationDate,2025-05-11T16:27:20+09:00*%
%TF.ProjectId,Switch_plate,53776974-6368-45f7-906c-6174652e6b69,rev?*%
%TF.SameCoordinates,Original*%
%TF.FileFunction,Legend,Bot*%
%TF.FilePolarity,Positive*%
%FSLAX46Y46*%
G04 Gerber Fmt 4.6, Leading zero omitted, Abs format (unit mm)*
G04 Created by KiCad (PCBNEW 9.0.1) date 2025-05-11 16:27:20*
%MOMM*%
%LPD*%
G01*
G04 APERTURE LIST*
%ADD10C,0.200000*%
%ADD11O,2.000000X15.900000*%
%ADD12O,15.900000X2.000000*%
%ADD13C,2.200000*%
%ADD14R,1.700000X1.700000*%
%ADD15C,1.700000*%
%ADD16R,1.800000X1.800000*%
%ADD17C,1.800000*%
G04 APERTURE END LIST*
D10*
X178058898Y-100471980D02*
X178106517Y-100519600D01*
X178106517Y-100519600D02*
X178249374Y-100567219D01*
X178249374Y-100567219D02*
X178344612Y-100567219D01*
X178344612Y-100567219D02*
X178487469Y-100519600D01*
X178487469Y-100519600D02*
X178582707Y-100424361D01*
X178582707Y-100424361D02*
X178630326Y-100329123D01*
X178630326Y-100329123D02*
X178677945Y-100138647D01*
X178677945Y-100138647D02*
X178677945Y-99995790D01*
X178677945Y-99995790D02*
X178630326Y-99805314D01*
X178630326Y-99805314D02*
X178582707Y-99710076D01*
X178582707Y-99710076D02*
X178487469Y-99614838D01*
X178487469Y-99614838D02*
X178344612Y-99567219D01*
X178344612Y-99567219D02*
X178249374Y-99567219D01*
X178249374Y-99567219D02*
X178106517Y-99614838D01*
X178106517Y-99614838D02*
X178058898Y-99662457D01*
X177630326Y-100567219D02*
X177630326Y-99900552D01*
X177630326Y-100091028D02*
X177582707Y-99995790D01*
X177582707Y-99995790D02*
X177535088Y-99948171D01*
X177535088Y-99948171D02*
X177439850Y-99900552D01*
X177439850Y-99900552D02*
X177344612Y-99900552D01*
X176582707Y-100567219D02*
X176582707Y-100043409D01*
X176582707Y-100043409D02*
X176630326Y-99948171D01*
X176630326Y-99948171D02*
X176725564Y-99900552D01*
X176725564Y-99900552D02*
X176916040Y-99900552D01*
X176916040Y-99900552D02*
X177011278Y-99948171D01*
X176582707Y-100519600D02*
X176677945Y-100567219D01*
X176677945Y-100567219D02*
X176916040Y-100567219D01*
X176916040Y-100567219D02*
X177011278Y-100519600D01*
X177011278Y-100519600D02*
X177058897Y-100424361D01*
X177058897Y-100424361D02*
X177058897Y-100329123D01*
X177058897Y-100329123D02*
X177011278Y-100233885D01*
X177011278Y-100233885D02*
X176916040Y-100186266D01*
X176916040Y-100186266D02*
X176677945Y-100186266D01*
X176677945Y-100186266D02*
X176582707Y-100138647D01*
X176249373Y-99900552D02*
X175868421Y-99900552D01*
X176106516Y-100567219D02*
X176106516Y-99710076D01*
X176106516Y-99710076D02*
X176058897Y-99614838D01*
X176058897Y-99614838D02*
X175963659Y-99567219D01*
X175963659Y-99567219D02*
X175868421Y-99567219D01*
X175677944Y-99900552D02*
X175296992Y-99900552D01*
X175535087Y-99567219D02*
X175535087Y-100424361D01*
X175535087Y-100424361D02*
X175487468Y-100519600D01*
X175487468Y-100519600D02*
X175392230Y-100567219D01*
X175392230Y-100567219D02*
X175296992Y-100567219D01*
X174201753Y-100567219D02*
X174201753Y-99567219D01*
X173630325Y-100567219D02*
X174058896Y-99995790D01*
X173630325Y-99567219D02*
X174201753Y-100138647D01*
X172820801Y-100519600D02*
X172916039Y-100567219D01*
X172916039Y-100567219D02*
X173106515Y-100567219D01*
X173106515Y-100567219D02*
X173201753Y-100519600D01*
X173201753Y-100519600D02*
X173249372Y-100424361D01*
X173249372Y-100424361D02*
X173249372Y-100043409D01*
X173249372Y-100043409D02*
X173201753Y-99948171D01*
X173201753Y-99948171D02*
X173106515Y-99900552D01*
X173106515Y-99900552D02*
X172916039Y-99900552D01*
X172916039Y-99900552D02*
X172820801Y-99948171D01*
X172820801Y-99948171D02*
X172773182Y-100043409D01*
X172773182Y-100043409D02*
X172773182Y-100138647D01*
X172773182Y-100138647D02*
X173249372Y-100233885D01*
X172439848Y-99900552D02*
X172201753Y-100567219D01*
X171963658Y-99900552D02*
X172201753Y-100567219D01*
X172201753Y-100567219D02*
X172296991Y-100805314D01*
X172296991Y-100805314D02*
X172344610Y-100852933D01*
X172344610Y-100852933D02*
X172439848Y-100900552D01*
X171582705Y-100567219D02*
X171582705Y-99567219D01*
X171582705Y-99948171D02*
X171487467Y-99900552D01*
X171487467Y-99900552D02*
X171296991Y-99900552D01*
X171296991Y-99900552D02*
X171201753Y-99948171D01*
X171201753Y-99948171D02*
X171154134Y-99995790D01*
X171154134Y-99995790D02*
X171106515Y-100091028D01*
X171106515Y-100091028D02*
X171106515Y-100376742D01*
X171106515Y-100376742D02*
X171154134Y-100471980D01*
X171154134Y-100471980D02*
X171201753Y-100519600D01*
X171201753Y-100519600D02*
X171296991Y-100567219D01*
X171296991Y-100567219D02*
X171487467Y-100567219D01*
X171487467Y-100567219D02*
X171582705Y-100519600D01*
X170535086Y-100567219D02*
X170630324Y-100519600D01*
X170630324Y-100519600D02*
X170677943Y-100471980D01*
X170677943Y-100471980D02*
X170725562Y-100376742D01*
X170725562Y-100376742D02*
X170725562Y-100091028D01*
X170725562Y-100091028D02*
X170677943Y-99995790D01*
X170677943Y-99995790D02*
X170630324Y-99948171D01*
X170630324Y-99948171D02*
X170535086Y-99900552D01*
X170535086Y-99900552D02*
X170392229Y-99900552D01*
X170392229Y-99900552D02*
X170296991Y-99948171D01*
X170296991Y-99948171D02*
X170249372Y-99995790D01*
X170249372Y-99995790D02*
X170201753Y-100091028D01*
X170201753Y-100091028D02*
X170201753Y-100376742D01*
X170201753Y-100376742D02*
X170249372Y-100471980D01*
X170249372Y-100471980D02*
X170296991Y-100519600D01*
X170296991Y-100519600D02*
X170392229Y-100567219D01*
X170392229Y-100567219D02*
X170535086Y-100567219D01*
X169344610Y-100567219D02*
X169344610Y-100043409D01*
X169344610Y-100043409D02*
X169392229Y-99948171D01*
X169392229Y-99948171D02*
X169487467Y-99900552D01*
X169487467Y-99900552D02*
X169677943Y-99900552D01*
X169677943Y-99900552D02*
X169773181Y-99948171D01*
X169344610Y-100519600D02*
X169439848Y-100567219D01*
X169439848Y-100567219D02*
X169677943Y-100567219D01*
X169677943Y-100567219D02*
X169773181Y-100519600D01*
X169773181Y-100519600D02*
X169820800Y-100424361D01*
X169820800Y-100424361D02*
X169820800Y-100329123D01*
X169820800Y-100329123D02*
X169773181Y-100233885D01*
X169773181Y-100233885D02*
X169677943Y-100186266D01*
X169677943Y-100186266D02*
X169439848Y-100186266D01*
X169439848Y-100186266D02*
X169344610Y-100138647D01*
X168868419Y-100567219D02*
X168868419Y-99900552D01*
X168868419Y-100091028D02*
X168820800Y-99995790D01*
X168820800Y-99995790D02*
X168773181Y-99948171D01*
X168773181Y-99948171D02*
X168677943Y-99900552D01*
X168677943Y-99900552D02*
X168582705Y-99900552D01*
X167820800Y-100567219D02*
X167820800Y-99567219D01*
X167820800Y-100519600D02*
X167916038Y-100567219D01*
X167916038Y-100567219D02*
X168106514Y-100567219D01*
X168106514Y-100567219D02*
X168201752Y-100519600D01*
X168201752Y-100519600D02*
X168249371Y-100471980D01*
X168249371Y-100471980D02*
X168296990Y-100376742D01*
X168296990Y-100376742D02*
X168296990Y-100091028D01*
X168296990Y-100091028D02*
X168249371Y-99995790D01*
X168249371Y-99995790D02*
X168201752Y-99948171D01*
X168201752Y-99948171D02*
X168106514Y-99900552D01*
X168106514Y-99900552D02*
X167916038Y-99900552D01*
X167916038Y-99900552D02*
X167820800Y-99948171D01*
X166725561Y-99900552D02*
X166344609Y-99900552D01*
X166582704Y-99567219D02*
X166582704Y-100424361D01*
X166582704Y-100424361D02*
X166535085Y-100519600D01*
X166535085Y-100519600D02*
X166439847Y-100567219D01*
X166439847Y-100567219D02*
X166344609Y-100567219D01*
X165868418Y-100567219D02*
X165963656Y-100519600D01*
X165963656Y-100519600D02*
X166011275Y-100471980D01*
X166011275Y-100471980D02*
X166058894Y-100376742D01*
X166058894Y-100376742D02*
X166058894Y-100091028D01*
X166058894Y-100091028D02*
X166011275Y-99995790D01*
X166011275Y-99995790D02*
X165963656Y-99948171D01*
X165963656Y-99948171D02*
X165868418Y-99900552D01*
X165868418Y-99900552D02*
X165725561Y-99900552D01*
X165725561Y-99900552D02*
X165630323Y-99948171D01*
X165630323Y-99948171D02*
X165582704Y-99995790D01*
X165582704Y-99995790D02*
X165535085Y-100091028D01*
X165535085Y-100091028D02*
X165535085Y-100376742D01*
X165535085Y-100376742D02*
X165582704Y-100471980D01*
X165582704Y-100471980D02*
X165630323Y-100519600D01*
X165630323Y-100519600D02*
X165725561Y-100567219D01*
X165725561Y-100567219D02*
X165868418Y-100567219D01*
X165106513Y-99900552D02*
X165106513Y-100900552D01*
X165106513Y-99948171D02*
X165011275Y-99900552D01*
X165011275Y-99900552D02*
X164820799Y-99900552D01*
X164820799Y-99900552D02*
X164725561Y-99948171D01*
X164725561Y-99948171D02*
X164677942Y-99995790D01*
X164677942Y-99995790D02*
X164630323Y-100091028D01*
X164630323Y-100091028D02*
X164630323Y-100376742D01*
X164630323Y-100376742D02*
X164677942Y-100471980D01*
X164677942Y-100471980D02*
X164725561Y-100519600D01*
X164725561Y-100519600D02*
X164820799Y-100567219D01*
X164820799Y-100567219D02*
X165011275Y-100567219D01*
X165011275Y-100567219D02*
X165106513Y-100519600D01*
X163439846Y-100567219D02*
X163439846Y-99567219D01*
X163439846Y-99948171D02*
X163344608Y-99900552D01*
X163344608Y-99900552D02*
X163154132Y-99900552D01*
X163154132Y-99900552D02*
X163058894Y-99948171D01*
X163058894Y-99948171D02*
X163011275Y-99995790D01*
X163011275Y-99995790D02*
X162963656Y-100091028D01*
X162963656Y-100091028D02*
X162963656Y-100376742D01*
X162963656Y-100376742D02*
X163011275Y-100471980D01*
X163011275Y-100471980D02*
X163058894Y-100519600D01*
X163058894Y-100519600D02*
X163154132Y-100567219D01*
X163154132Y-100567219D02*
X163344608Y-100567219D01*
X163344608Y-100567219D02*
X163439846Y-100519600D01*
X162392227Y-100567219D02*
X162487465Y-100519600D01*
X162487465Y-100519600D02*
X162535084Y-100471980D01*
X162535084Y-100471980D02*
X162582703Y-100376742D01*
X162582703Y-100376742D02*
X162582703Y-100091028D01*
X162582703Y-100091028D02*
X162535084Y-99995790D01*
X162535084Y-99995790D02*
X162487465Y-99948171D01*
X162487465Y-99948171D02*
X162392227Y-99900552D01*
X162392227Y-99900552D02*
X162249370Y-99900552D01*
X162249370Y-99900552D02*
X162154132Y-99948171D01*
X162154132Y-99948171D02*
X162106513Y-99995790D01*
X162106513Y-99995790D02*
X162058894Y-100091028D01*
X162058894Y-100091028D02*
X162058894Y-100376742D01*
X162058894Y-100376742D02*
X162106513Y-100471980D01*
X162106513Y-100471980D02*
X162154132Y-100519600D01*
X162154132Y-100519600D02*
X162249370Y-100567219D01*
X162249370Y-100567219D02*
X162392227Y-100567219D01*
X161201751Y-100567219D02*
X161201751Y-100043409D01*
X161201751Y-100043409D02*
X161249370Y-99948171D01*
X161249370Y-99948171D02*
X161344608Y-99900552D01*
X161344608Y-99900552D02*
X161535084Y-99900552D01*
X161535084Y-99900552D02*
X161630322Y-99948171D01*
X161201751Y-100519600D02*
X161296989Y-100567219D01*
X161296989Y-100567219D02*
X161535084Y-100567219D01*
X161535084Y-100567219D02*
X161630322Y-100519600D01*
X161630322Y-100519600D02*
X161677941Y-100424361D01*
X161677941Y-100424361D02*
X161677941Y-100329123D01*
X161677941Y-100329123D02*
X161630322Y-100233885D01*
X161630322Y-100233885D02*
X161535084Y-100186266D01*
X161535084Y-100186266D02*
X161296989Y-100186266D01*
X161296989Y-100186266D02*
X161201751Y-100138647D01*
X160725560Y-100567219D02*
X160725560Y-99900552D01*
X160725560Y-100091028D02*
X160677941Y-99995790D01*
X160677941Y-99995790D02*
X160630322Y-99948171D01*
X160630322Y-99948171D02*
X160535084Y-99900552D01*
X160535084Y-99900552D02*
X160439846Y-99900552D01*
X159677941Y-100567219D02*
X159677941Y-99567219D01*
X159677941Y-100519600D02*
X159773179Y-100567219D01*
X159773179Y-100567219D02*
X159963655Y-100567219D01*
X159963655Y-100567219D02*
X160058893Y-100519600D01*
X160058893Y-100519600D02*
X160106512Y-100471980D01*
X160106512Y-100471980D02*
X160154131Y-100376742D01*
X160154131Y-100376742D02*
X160154131Y-100091028D01*
X160154131Y-100091028D02*
X160106512Y-99995790D01*
X160106512Y-99995790D02*
X160058893Y-99948171D01*
X160058893Y-99948171D02*
X159963655Y-99900552D01*
X159963655Y-99900552D02*
X159773179Y-99900552D01*
X159773179Y-99900552D02*
X159677941Y-99948171D01*
X158487464Y-99662457D02*
X158439845Y-99614838D01*
X158439845Y-99614838D02*
X158344607Y-99567219D01*
X158344607Y-99567219D02*
X158106512Y-99567219D01*
X158106512Y-99567219D02*
X158011274Y-99614838D01*
X158011274Y-99614838D02*
X157963655Y-99662457D01*
X157963655Y-99662457D02*
X157916036Y-99757695D01*
X157916036Y-99757695D02*
X157916036Y-99852933D01*
X157916036Y-99852933D02*
X157963655Y-99995790D01*
X157963655Y-99995790D02*
X158535083Y-100567219D01*
X158535083Y-100567219D02*
X157916036Y-100567219D01*
X157296988Y-99567219D02*
X157201750Y-99567219D01*
X157201750Y-99567219D02*
X157106512Y-99614838D01*
X157106512Y-99614838D02*
X157058893Y-99662457D01*
X157058893Y-99662457D02*
X157011274Y-99757695D01*
X157011274Y-99757695D02*
X156963655Y-99948171D01*
X156963655Y-99948171D02*
X156963655Y-100186266D01*
X156963655Y-100186266D02*
X157011274Y-100376742D01*
X157011274Y-100376742D02*
X157058893Y-100471980D01*
X157058893Y-100471980D02*
X157106512Y-100519600D01*
X157106512Y-100519600D02*
X157201750Y-100567219D01*
X157201750Y-100567219D02*
X157296988Y-100567219D01*
X157296988Y-100567219D02*
X157392226Y-100519600D01*
X157392226Y-100519600D02*
X157439845Y-100471980D01*
X157439845Y-100471980D02*
X157487464Y-100376742D01*
X157487464Y-100376742D02*
X157535083Y-100186266D01*
X157535083Y-100186266D02*
X157535083Y-99948171D01*
X157535083Y-99948171D02*
X157487464Y-99757695D01*
X157487464Y-99757695D02*
X157439845Y-99662457D01*
X157439845Y-99662457D02*
X157392226Y-99614838D01*
X157392226Y-99614838D02*
X157296988Y-99567219D01*
X156582702Y-99662457D02*
X156535083Y-99614838D01*
X156535083Y-99614838D02*
X156439845Y-99567219D01*
X156439845Y-99567219D02*
X156201750Y-99567219D01*
X156201750Y-99567219D02*
X156106512Y-99614838D01*
X156106512Y-99614838D02*
X156058893Y-99662457D01*
X156058893Y-99662457D02*
X156011274Y-99757695D01*
X156011274Y-99757695D02*
X156011274Y-99852933D01*
X156011274Y-99852933D02*
X156058893Y-99995790D01*
X156058893Y-99995790D02*
X156630321Y-100567219D01*
X156630321Y-100567219D02*
X156011274Y-100567219D01*
X155106512Y-99567219D02*
X155582702Y-99567219D01*
X155582702Y-99567219D02*
X155630321Y-100043409D01*
X155630321Y-100043409D02*
X155582702Y-99995790D01*
X155582702Y-99995790D02*
X155487464Y-99948171D01*
X155487464Y-99948171D02*
X155249369Y-99948171D01*
X155249369Y-99948171D02*
X155154131Y-99995790D01*
X155154131Y-99995790D02*
X155106512Y-100043409D01*
X155106512Y-100043409D02*
X155058893Y-100138647D01*
X155058893Y-100138647D02*
X155058893Y-100376742D01*
X155058893Y-100376742D02*
X155106512Y-100471980D01*
X155106512Y-100471980D02*
X155154131Y-100519600D01*
X155154131Y-100519600D02*
X155249369Y-100567219D01*
X155249369Y-100567219D02*
X155487464Y-100567219D01*
X155487464Y-100567219D02*
X155582702Y-100519600D01*
X155582702Y-100519600D02*
X155630321Y-100471980D01*
X153916036Y-99519600D02*
X154773178Y-100805314D01*
X153106512Y-99567219D02*
X153582702Y-99567219D01*
X153582702Y-99567219D02*
X153630321Y-100043409D01*
X153630321Y-100043409D02*
X153582702Y-99995790D01*
X153582702Y-99995790D02*
X153487464Y-99948171D01*
X153487464Y-99948171D02*
X153249369Y-99948171D01*
X153249369Y-99948171D02*
X153154131Y-99995790D01*
X153154131Y-99995790D02*
X153106512Y-100043409D01*
X153106512Y-100043409D02*
X153058893Y-100138647D01*
X153058893Y-100138647D02*
X153058893Y-100376742D01*
X153058893Y-100376742D02*
X153106512Y-100471980D01*
X153106512Y-100471980D02*
X153154131Y-100519600D01*
X153154131Y-100519600D02*
X153249369Y-100567219D01*
X153249369Y-100567219D02*
X153487464Y-100567219D01*
X153487464Y-100567219D02*
X153582702Y-100519600D01*
X153582702Y-100519600D02*
X153630321Y-100471980D01*
X151916036Y-99519600D02*
X152773178Y-100805314D01*
X151058893Y-100567219D02*
X151630321Y-100567219D01*
X151344607Y-100567219D02*
X151344607Y-99567219D01*
X151344607Y-99567219D02*
X151439845Y-99710076D01*
X151439845Y-99710076D02*
X151535083Y-99805314D01*
X151535083Y-99805314D02*
X151630321Y-99852933D01*
X150106512Y-100567219D02*
X150677940Y-100567219D01*
X150392226Y-100567219D02*
X150392226Y-99567219D01*
X150392226Y-99567219D02*
X150487464Y-99710076D01*
X150487464Y-99710076D02*
X150582702Y-99805314D01*
X150582702Y-99805314D02*
X150677940Y-99852933D01*
X149058892Y-99567219D02*
X148725559Y-100567219D01*
X148725559Y-100567219D02*
X148392226Y-99567219D01*
X147677940Y-100519600D02*
X147773178Y-100567219D01*
X147773178Y-100567219D02*
X147963654Y-100567219D01*
X147963654Y-100567219D02*
X148058892Y-100519600D01*
X148058892Y-100519600D02*
X148106511Y-100424361D01*
X148106511Y-100424361D02*
X148106511Y-100043409D01*
X148106511Y-100043409D02*
X148058892Y-99948171D01*
X148058892Y-99948171D02*
X147963654Y-99900552D01*
X147963654Y-99900552D02*
X147773178Y-99900552D01*
X147773178Y-99900552D02*
X147677940Y-99948171D01*
X147677940Y-99948171D02*
X147630321Y-100043409D01*
X147630321Y-100043409D02*
X147630321Y-100138647D01*
X147630321Y-100138647D02*
X148106511Y-100233885D01*
X147201749Y-100567219D02*
X147201749Y-99900552D01*
X147201749Y-100091028D02*
X147154130Y-99995790D01*
X147154130Y-99995790D02*
X147106511Y-99948171D01*
X147106511Y-99948171D02*
X147011273Y-99900552D01*
X147011273Y-99900552D02*
X146916035Y-99900552D01*
X146582701Y-100471980D02*
X146535082Y-100519600D01*
X146535082Y-100519600D02*
X146582701Y-100567219D01*
X146582701Y-100567219D02*
X146630320Y-100519600D01*
X146630320Y-100519600D02*
X146582701Y-100471980D01*
X146582701Y-100471980D02*
X146582701Y-100567219D01*
X145154130Y-99567219D02*
X145058892Y-99567219D01*
X145058892Y-99567219D02*
X144963654Y-99614838D01*
X144963654Y-99614838D02*
X144916035Y-99662457D01*
X144916035Y-99662457D02*
X144868416Y-99757695D01*
X144868416Y-99757695D02*
X144820797Y-99948171D01*
X144820797Y-99948171D02*
X144820797Y-100186266D01*
X144820797Y-100186266D02*
X144868416Y-100376742D01*
X144868416Y-100376742D02*
X144916035Y-100471980D01*
X144916035Y-100471980D02*
X144963654Y-100519600D01*
X144963654Y-100519600D02*
X145058892Y-100567219D01*
X145058892Y-100567219D02*
X145154130Y-100567219D01*
X145154130Y-100567219D02*
X145249368Y-100519600D01*
X145249368Y-100519600D02*
X145296987Y-100471980D01*
X145296987Y-100471980D02*
X145344606Y-100376742D01*
X145344606Y-100376742D02*
X145392225Y-100186266D01*
X145392225Y-100186266D02*
X145392225Y-99948171D01*
X145392225Y-99948171D02*
X145344606Y-99757695D01*
X145344606Y-99757695D02*
X145296987Y-99662457D01*
X145296987Y-99662457D02*
X145249368Y-99614838D01*
X145249368Y-99614838D02*
X145154130Y-99567219D01*
X144392225Y-100471980D02*
X144344606Y-100519600D01*
X144344606Y-100519600D02*
X144392225Y-100567219D01*
X144392225Y-100567219D02*
X144439844Y-100519600D01*
X144439844Y-100519600D02*
X144392225Y-100471980D01*
X144392225Y-100471980D02*
X144392225Y-100567219D01*
X143725559Y-99567219D02*
X143630321Y-99567219D01*
X143630321Y-99567219D02*
X143535083Y-99614838D01*
X143535083Y-99614838D02*
X143487464Y-99662457D01*
X143487464Y-99662457D02*
X143439845Y-99757695D01*
X143439845Y-99757695D02*
X143392226Y-99948171D01*
X143392226Y-99948171D02*
X143392226Y-100186266D01*
X143392226Y-100186266D02*
X143439845Y-100376742D01*
X143439845Y-100376742D02*
X143487464Y-100471980D01*
X143487464Y-100471980D02*
X143535083Y-100519600D01*
X143535083Y-100519600D02*
X143630321Y-100567219D01*
X143630321Y-100567219D02*
X143725559Y-100567219D01*
X143725559Y-100567219D02*
X143820797Y-100519600D01*
X143820797Y-100519600D02*
X143868416Y-100471980D01*
X143868416Y-100471980D02*
X143916035Y-100376742D01*
X143916035Y-100376742D02*
X143963654Y-100186266D01*
X143963654Y-100186266D02*
X143963654Y-99948171D01*
X143963654Y-99948171D02*
X143916035Y-99757695D01*
X143916035Y-99757695D02*
X143868416Y-99662457D01*
X143868416Y-99662457D02*
X143820797Y-99614838D01*
X143820797Y-99614838D02*
X143725559Y-99567219D01*
X142963654Y-100471980D02*
X142916035Y-100519600D01*
X142916035Y-100519600D02*
X142963654Y-100567219D01*
X142963654Y-100567219D02*
X143011273Y-100519600D01*
X143011273Y-100519600D02*
X142963654Y-100471980D01*
X142963654Y-100471980D02*
X142963654Y-100567219D01*
X141963655Y-100567219D02*
X142535083Y-100567219D01*
X142249369Y-100567219D02*
X142249369Y-99567219D01*
X142249369Y-99567219D02*
X142344607Y-99710076D01*
X142344607Y-99710076D02*
X142439845Y-99805314D01*
X142439845Y-99805314D02*
X142535083Y-99852933D01*
%LPC*%
D11*
%TO.C,SW51*%
X221650000Y-90487500D03*
D12*
X228600000Y-83537500D03*
X228600000Y-97437500D03*
D11*
X235550000Y-90487500D03*
%TD*%
%TO.C,SW56*%
X240700000Y-90487500D03*
D12*
X247650000Y-83537500D03*
X247650000Y-97437500D03*
D11*
X254600000Y-90487500D03*
%TD*%
%TO.C,SW35*%
X164500000Y-71437500D03*
D12*
X171450000Y-64487500D03*
X171450000Y-78387500D03*
D11*
X178400000Y-71437500D03*
%TD*%
D13*
%TO.C,Ref\u002A\u002A*%
X142875000Y-119062500D03*
%TD*%
D11*
%TO.C,SW33*%
X145450000Y-128587500D03*
D12*
X152400000Y-121637500D03*
X152400000Y-135537500D03*
D11*
X159350000Y-128587500D03*
%TD*%
%TO.C,SW48*%
X202600000Y-128587500D03*
D12*
X209550000Y-121637500D03*
X209550000Y-135537500D03*
D11*
X216500000Y-128587500D03*
%TD*%
D13*
%TO.C,Ref\u002A\u002A*%
X47625000Y-119062500D03*
%TD*%
D11*
%TO.C,SW23*%
X107350000Y-128587500D03*
D12*
X114300000Y-121637500D03*
X114300000Y-135537500D03*
D11*
X121250000Y-128587500D03*
%TD*%
%TO.C,SW32*%
X145450000Y-109537500D03*
D12*
X152400000Y-102587500D03*
X152400000Y-116487500D03*
D11*
X159350000Y-109537500D03*
%TD*%
%TO.C,SW49*%
X212125000Y-147637500D03*
D12*
X219075000Y-140687500D03*
X219075000Y-154587500D03*
D11*
X226025000Y-147637500D03*
%TD*%
%TO.C,SW40*%
X183550000Y-71437500D03*
D12*
X190500000Y-64487500D03*
X190500000Y-78387500D03*
D11*
X197450000Y-71437500D03*
%TD*%
%TO.C,SW47*%
X202600000Y-109537500D03*
D12*
X209550000Y-102587500D03*
X209550000Y-116487500D03*
D11*
X216500000Y-109537500D03*
%TD*%
%TO.C,SW18*%
X88300000Y-128587500D03*
D12*
X95250000Y-121637500D03*
X95250000Y-135537500D03*
D11*
X102200000Y-128587500D03*
%TD*%
%TO.C,SW53*%
X221650000Y-128587500D03*
D12*
X228600000Y-121637500D03*
X228600000Y-135537500D03*
D11*
X235550000Y-128587500D03*
%TD*%
%TO.C,SW19*%
X78775000Y-147637500D03*
D12*
X85725000Y-140687500D03*
X85725000Y-154587500D03*
D11*
X92675000Y-147637500D03*
%TD*%
%TO.C,SW7*%
X50200000Y-109537500D03*
D12*
X57150000Y-102587500D03*
X57150000Y-116487500D03*
D11*
X64100000Y-109537500D03*
%TD*%
%TO.C,SW9*%
X40675000Y-147637500D03*
D12*
X47625000Y-140687500D03*
X47625000Y-154587500D03*
D11*
X54575000Y-147637500D03*
%TD*%
%TO.C,SW14*%
X59725000Y-147637500D03*
D12*
X66675000Y-140687500D03*
X66675000Y-154587500D03*
D11*
X73625000Y-147637500D03*
%TD*%
%TO.C,SW42*%
X183550000Y-109537500D03*
D12*
X190500000Y-102587500D03*
X190500000Y-116487500D03*
D11*
X197450000Y-109537500D03*
%TD*%
%TO.C,SW52*%
X221650000Y-109537500D03*
D12*
X228600000Y-102587500D03*
X228600000Y-116487500D03*
D11*
X235550000Y-109537500D03*
%TD*%
%TO.C,SW44*%
X193075000Y-147637500D03*
D12*
X200025000Y-140687500D03*
X200025000Y-154587500D03*
D11*
X206975000Y-147637500D03*
%TD*%
%TO.C,SW21*%
X107350000Y-90487500D03*
D12*
X114300000Y-83537500D03*
X114300000Y-97437500D03*
D11*
X121250000Y-90487500D03*
%TD*%
%TO.C,SW24*%
X100206300Y-147637500D03*
D12*
X107156300Y-140687500D03*
X107156300Y-154587500D03*
D11*
X114106300Y-147637500D03*
%TD*%
%TO.C,SW12*%
X69250000Y-109537500D03*
D12*
X76200000Y-102587500D03*
X76200000Y-116487500D03*
D11*
X83150000Y-109537500D03*
%TD*%
%TO.C,SW10*%
X69250000Y-71437500D03*
D12*
X76200000Y-64487500D03*
X76200000Y-78387500D03*
D11*
X83150000Y-71437500D03*
%TD*%
%TO.C,SW37*%
X164500000Y-109537500D03*
D12*
X171450000Y-102587500D03*
X171450000Y-116487500D03*
D11*
X178400000Y-109537500D03*
%TD*%
%TO.C,SW25*%
X126400000Y-71437500D03*
D12*
X133350000Y-64487500D03*
X133350000Y-78387500D03*
D11*
X140300000Y-71437500D03*
%TD*%
%TO.C,SW38*%
X164500000Y-128587500D03*
D12*
X171450000Y-121637500D03*
X171450000Y-135537500D03*
D11*
X178400000Y-128587500D03*
%TD*%
%TO.C,SW11*%
X69250000Y-90487500D03*
D12*
X76200000Y-83537500D03*
X76200000Y-97437500D03*
D11*
X83150000Y-90487500D03*
%TD*%
%TO.C,SW58*%
X240700000Y-128587500D03*
D12*
X247650000Y-121637500D03*
X247650000Y-135537500D03*
D11*
X254600000Y-128587500D03*
%TD*%
D14*
%TO.C,P1*%
X117871974Y-141659494D03*
D15*
X120411974Y-141659494D03*
%TD*%
D11*
%TO.C,SW55*%
X240700000Y-71437500D03*
D12*
X247650000Y-64487500D03*
X247650000Y-78387500D03*
D11*
X254600000Y-71437500D03*
%TD*%
D13*
%TO.C,Ref\u002A\u002A*%
X96440706Y-141089181D03*
%TD*%
D14*
%TO.C,P1*%
X165437640Y-141659494D03*
D15*
X167977640Y-141659494D03*
%TD*%
D11*
%TO.C,SW39*%
X171643800Y-147637500D03*
D12*
X178593800Y-140687500D03*
X178593800Y-154587500D03*
D11*
X185543800Y-147637500D03*
%TD*%
D16*
%TO.C,L1*%
X117871974Y-150018876D03*
D17*
X120411974Y-150018876D03*
%TD*%
D13*
%TO.C,Ref\u002A\u002A*%
X142875000Y-147637500D03*
%TD*%
D11*
%TO.C,SW13*%
X69250000Y-128587500D03*
D12*
X76200000Y-121637500D03*
X76200000Y-135537500D03*
D11*
X83150000Y-128587500D03*
%TD*%
%TO.C,SW29*%
X124018800Y-147637500D03*
D12*
X130968800Y-140687500D03*
X130968800Y-154587500D03*
D11*
X137918800Y-147637500D03*
%TD*%
%TO.C,SW54*%
X231175000Y-147637500D03*
D12*
X238125000Y-140687500D03*
X238125000Y-154587500D03*
D11*
X245075000Y-147637500D03*
%TD*%
%TO.C,SW57*%
X240700000Y-109537500D03*
D12*
X247650000Y-102587500D03*
X247650000Y-116487500D03*
D11*
X254600000Y-109537500D03*
%TD*%
%TO.C,SW22*%
X107350000Y-109537500D03*
D12*
X114300000Y-102587500D03*
X114300000Y-116487500D03*
D11*
X121250000Y-109537500D03*
%TD*%
D13*
%TO.C,Ref\u002A\u002A*%
X104775000Y-119062500D03*
%TD*%
%TO.C,Ref\u002A\u002A*%
X238125000Y-119062500D03*
%TD*%
D11*
%TO.C,SW46*%
X202600000Y-90487500D03*
D12*
X209550000Y-83537500D03*
X209550000Y-97437500D03*
D11*
X216500000Y-90487500D03*
%TD*%
%TO.C,SW5*%
X50200000Y-71437500D03*
D12*
X57150000Y-64487500D03*
X57150000Y-78387500D03*
D11*
X64100000Y-71437500D03*
%TD*%
%TO.C,SW31*%
X145450000Y-90487500D03*
D12*
X152400000Y-83537500D03*
X152400000Y-97437500D03*
D11*
X159350000Y-90487500D03*
%TD*%
%TO.C,SW17*%
X88300000Y-109537500D03*
D12*
X95250000Y-102587500D03*
X95250000Y-116487500D03*
D11*
X102200000Y-109537500D03*
%TD*%
%TO.C,SW2*%
X31150000Y-90487500D03*
D12*
X38100000Y-83537500D03*
X38100000Y-97437500D03*
D11*
X45050000Y-90487500D03*
%TD*%
%TO.C,SW16*%
X88300000Y-90487500D03*
D12*
X95250000Y-83537500D03*
X95250000Y-97437500D03*
D11*
X102200000Y-90487500D03*
%TD*%
%TO.C,SW3*%
X31150000Y-109537500D03*
D12*
X38100000Y-102587500D03*
X38100000Y-116487500D03*
D11*
X45050000Y-109537500D03*
%TD*%
D13*
%TO.C,Ref\u002A\u002A*%
X104775000Y-80962500D03*
%TD*%
D11*
%TO.C,SW36*%
X164500000Y-90487500D03*
D12*
X171450000Y-83537500D03*
X171450000Y-97437500D03*
D11*
X178400000Y-90487500D03*
%TD*%
%TO.C,SW1*%
X31150000Y-71437500D03*
D12*
X38100000Y-64487500D03*
X38100000Y-78387500D03*
D11*
X45050000Y-71437500D03*
%TD*%
D13*
%TO.C,Ref\u002A\u002A*%
X180975000Y-80962500D03*
%TD*%
D11*
%TO.C,SW26*%
X126400000Y-90487500D03*
D12*
X133350000Y-83537500D03*
X133350000Y-97437500D03*
D11*
X140300000Y-90487500D03*
%TD*%
%TO.C,SW28*%
X126400000Y-128587500D03*
D12*
X133350000Y-121637500D03*
X133350000Y-135537500D03*
D11*
X140300000Y-128587500D03*
%TD*%
%TO.C,SW15*%
X88300000Y-71437500D03*
D12*
X95250000Y-64487500D03*
X95250000Y-78387500D03*
D11*
X102200000Y-71437500D03*
%TD*%
%TO.C,SW45*%
X202600000Y-71437500D03*
D12*
X209550000Y-64487500D03*
X209550000Y-78387500D03*
D11*
X216500000Y-71437500D03*
%TD*%
%TO.C,SW30*%
X145450000Y-71437500D03*
D12*
X152400000Y-64487500D03*
X152400000Y-78387500D03*
D11*
X159350000Y-71437500D03*
%TD*%
D13*
%TO.C,Ref\u002A\u002A*%
X180975000Y-119062500D03*
%TD*%
D11*
%TO.C,SW50*%
X221650000Y-71437500D03*
D12*
X228600000Y-64487500D03*
X228600000Y-78387500D03*
D11*
X235550000Y-71437500D03*
%TD*%
%TO.C,SW41*%
X183550000Y-90487500D03*
D12*
X190500000Y-83537500D03*
X190500000Y-97437500D03*
D11*
X197450000Y-90487500D03*
%TD*%
%TO.C,SW8*%
X50200000Y-128587500D03*
D12*
X57150000Y-121637500D03*
X57150000Y-135537500D03*
D11*
X64100000Y-128587500D03*
%TD*%
%TO.C,SW20*%
X107350000Y-71437500D03*
D12*
X114300000Y-64487500D03*
X114300000Y-78387500D03*
D11*
X121250000Y-71437500D03*
%TD*%
D13*
%TO.C,Ref\u002A\u002A*%
X142875000Y-80962500D03*
%TD*%
D11*
%TO.C,SW34*%
X147831300Y-147637500D03*
D12*
X154781300Y-140687500D03*
X154781300Y-154587500D03*
D11*
X161731300Y-147637500D03*
%TD*%
%TO.C,SW43*%
X183550000Y-128587500D03*
D12*
X190500000Y-121637500D03*
X190500000Y-135537500D03*
D11*
X197450000Y-128587500D03*
%TD*%
%TO.C,SW6*%
X50200000Y-90487500D03*
D12*
X57150000Y-83537500D03*
X57150000Y-97437500D03*
D11*
X64100000Y-90487500D03*
%TD*%
D13*
%TO.C,Ref\u002A\u002A*%
X238125000Y-80962500D03*
%TD*%
%TO.C,Ref\u002A\u002A*%
X47625000Y-80962500D03*
%TD*%
%TO.C,Ref\u002A\u002A*%
X189309534Y-141089181D03*
%TD*%
D11*
%TO.C,SW4*%
X31150000Y-128587500D03*
D12*
X38100000Y-121637500D03*
X38100000Y-135537500D03*
D11*
X45050000Y-128587500D03*
%TD*%
D16*
%TO.C,L2*%
X165497014Y-150018876D03*
D17*
X168037014Y-150018876D03*
%TD*%
D11*
%TO.C,SW27*%
X126400000Y-109537500D03*
D12*
X133350000Y-102587500D03*
X133350000Y-116487500D03*
D11*
X140300000Y-109537500D03*
%TD*%
%LPD*%
M02*
