%TF.GenerationSoftware,KiCad,Pcbnew,9.0.1*%
%TF.CreationDate,2025-05-11T16:27:20+09:00*%
%TF.ProjectId,Switch_plate,53776974-6368-45f7-906c-6174652e6b69,rev?*%
%TF.SameCoordinates,Original*%
%TF.FileFunction,Soldermask,Bot*%
%TF.FilePolarity,Negative*%
%FSLAX46Y46*%
G04 Gerber Fmt 4.6, Leading zero omitted, Abs format (unit mm)*
G04 Created by KiCad (PCBNEW 9.0.1) date 2025-05-11 16:27:20*
%MOMM*%
%LPD*%
G01*
G04 APERTURE LIST*
%ADD10O,2.000000X15.900000*%
%ADD11O,15.900000X2.000000*%
%ADD12C,2.200000*%
%ADD13R,1.700000X1.700000*%
%ADD14C,1.700000*%
%ADD15R,1.800000X1.800000*%
%ADD16C,1.800000*%
G04 APERTURE END LIST*
D10*
%TO.C,SW51*%
X221650000Y-90487500D03*
D11*
X228600000Y-83537500D03*
X228600000Y-97437500D03*
D10*
X235550000Y-90487500D03*
%TD*%
%TO.C,SW56*%
X240700000Y-90487500D03*
D11*
X247650000Y-83537500D03*
X247650000Y-97437500D03*
D10*
X254600000Y-90487500D03*
%TD*%
%TO.C,SW35*%
X164500000Y-71437500D03*
D11*
X171450000Y-64487500D03*
X171450000Y-78387500D03*
D10*
X178400000Y-71437500D03*
%TD*%
D12*
%TO.C,Ref\u002A\u002A*%
X142875000Y-119062500D03*
%TD*%
D10*
%TO.C,SW33*%
X145450000Y-128587500D03*
D11*
X152400000Y-121637500D03*
X152400000Y-135537500D03*
D10*
X159350000Y-128587500D03*
%TD*%
%TO.C,SW48*%
X202600000Y-128587500D03*
D11*
X209550000Y-121637500D03*
X209550000Y-135537500D03*
D10*
X216500000Y-128587500D03*
%TD*%
D12*
%TO.C,Ref\u002A\u002A*%
X47625000Y-119062500D03*
%TD*%
D10*
%TO.C,SW23*%
X107350000Y-128587500D03*
D11*
X114300000Y-121637500D03*
X114300000Y-135537500D03*
D10*
X121250000Y-128587500D03*
%TD*%
%TO.C,SW32*%
X145450000Y-109537500D03*
D11*
X152400000Y-102587500D03*
X152400000Y-116487500D03*
D10*
X159350000Y-109537500D03*
%TD*%
%TO.C,SW49*%
X212125000Y-147637500D03*
D11*
X219075000Y-140687500D03*
X219075000Y-154587500D03*
D10*
X226025000Y-147637500D03*
%TD*%
%TO.C,SW40*%
X183550000Y-71437500D03*
D11*
X190500000Y-64487500D03*
X190500000Y-78387500D03*
D10*
X197450000Y-71437500D03*
%TD*%
%TO.C,SW47*%
X202600000Y-109537500D03*
D11*
X209550000Y-102587500D03*
X209550000Y-116487500D03*
D10*
X216500000Y-109537500D03*
%TD*%
%TO.C,SW18*%
X88300000Y-128587500D03*
D11*
X95250000Y-121637500D03*
X95250000Y-135537500D03*
D10*
X102200000Y-128587500D03*
%TD*%
%TO.C,SW53*%
X221650000Y-128587500D03*
D11*
X228600000Y-121637500D03*
X228600000Y-135537500D03*
D10*
X235550000Y-128587500D03*
%TD*%
%TO.C,SW19*%
X78775000Y-147637500D03*
D11*
X85725000Y-140687500D03*
X85725000Y-154587500D03*
D10*
X92675000Y-147637500D03*
%TD*%
%TO.C,SW7*%
X50200000Y-109537500D03*
D11*
X57150000Y-102587500D03*
X57150000Y-116487500D03*
D10*
X64100000Y-109537500D03*
%TD*%
%TO.C,SW9*%
X40675000Y-147637500D03*
D11*
X47625000Y-140687500D03*
X47625000Y-154587500D03*
D10*
X54575000Y-147637500D03*
%TD*%
%TO.C,SW14*%
X59725000Y-147637500D03*
D11*
X66675000Y-140687500D03*
X66675000Y-154587500D03*
D10*
X73625000Y-147637500D03*
%TD*%
%TO.C,SW42*%
X183550000Y-109537500D03*
D11*
X190500000Y-102587500D03*
X190500000Y-116487500D03*
D10*
X197450000Y-109537500D03*
%TD*%
%TO.C,SW52*%
X221650000Y-109537500D03*
D11*
X228600000Y-102587500D03*
X228600000Y-116487500D03*
D10*
X235550000Y-109537500D03*
%TD*%
%TO.C,SW44*%
X193075000Y-147637500D03*
D11*
X200025000Y-140687500D03*
X200025000Y-154587500D03*
D10*
X206975000Y-147637500D03*
%TD*%
%TO.C,SW21*%
X107350000Y-90487500D03*
D11*
X114300000Y-83537500D03*
X114300000Y-97437500D03*
D10*
X121250000Y-90487500D03*
%TD*%
%TO.C,SW24*%
X100206300Y-147637500D03*
D11*
X107156300Y-140687500D03*
X107156300Y-154587500D03*
D10*
X114106300Y-147637500D03*
%TD*%
%TO.C,SW12*%
X69250000Y-109537500D03*
D11*
X76200000Y-102587500D03*
X76200000Y-116487500D03*
D10*
X83150000Y-109537500D03*
%TD*%
%TO.C,SW10*%
X69250000Y-71437500D03*
D11*
X76200000Y-64487500D03*
X76200000Y-78387500D03*
D10*
X83150000Y-71437500D03*
%TD*%
%TO.C,SW37*%
X164500000Y-109537500D03*
D11*
X171450000Y-102587500D03*
X171450000Y-116487500D03*
D10*
X178400000Y-109537500D03*
%TD*%
%TO.C,SW25*%
X126400000Y-71437500D03*
D11*
X133350000Y-64487500D03*
X133350000Y-78387500D03*
D10*
X140300000Y-71437500D03*
%TD*%
%TO.C,SW38*%
X164500000Y-128587500D03*
D11*
X171450000Y-121637500D03*
X171450000Y-135537500D03*
D10*
X178400000Y-128587500D03*
%TD*%
%TO.C,SW11*%
X69250000Y-90487500D03*
D11*
X76200000Y-83537500D03*
X76200000Y-97437500D03*
D10*
X83150000Y-90487500D03*
%TD*%
%TO.C,SW58*%
X240700000Y-128587500D03*
D11*
X247650000Y-121637500D03*
X247650000Y-135537500D03*
D10*
X254600000Y-128587500D03*
%TD*%
D13*
%TO.C,P1*%
X117871974Y-141659494D03*
D14*
X120411974Y-141659494D03*
%TD*%
D10*
%TO.C,SW55*%
X240700000Y-71437500D03*
D11*
X247650000Y-64487500D03*
X247650000Y-78387500D03*
D10*
X254600000Y-71437500D03*
%TD*%
D12*
%TO.C,Ref\u002A\u002A*%
X96440706Y-141089181D03*
%TD*%
D13*
%TO.C,P1*%
X165437640Y-141659494D03*
D14*
X167977640Y-141659494D03*
%TD*%
D10*
%TO.C,SW39*%
X171643800Y-147637500D03*
D11*
X178593800Y-140687500D03*
X178593800Y-154587500D03*
D10*
X185543800Y-147637500D03*
%TD*%
D15*
%TO.C,L1*%
X117871974Y-150018876D03*
D16*
X120411974Y-150018876D03*
%TD*%
D12*
%TO.C,Ref\u002A\u002A*%
X142875000Y-147637500D03*
%TD*%
D10*
%TO.C,SW13*%
X69250000Y-128587500D03*
D11*
X76200000Y-121637500D03*
X76200000Y-135537500D03*
D10*
X83150000Y-128587500D03*
%TD*%
%TO.C,SW29*%
X124018800Y-147637500D03*
D11*
X130968800Y-140687500D03*
X130968800Y-154587500D03*
D10*
X137918800Y-147637500D03*
%TD*%
%TO.C,SW54*%
X231175000Y-147637500D03*
D11*
X238125000Y-140687500D03*
X238125000Y-154587500D03*
D10*
X245075000Y-147637500D03*
%TD*%
%TO.C,SW57*%
X240700000Y-109537500D03*
D11*
X247650000Y-102587500D03*
X247650000Y-116487500D03*
D10*
X254600000Y-109537500D03*
%TD*%
%TO.C,SW22*%
X107350000Y-109537500D03*
D11*
X114300000Y-102587500D03*
X114300000Y-116487500D03*
D10*
X121250000Y-109537500D03*
%TD*%
D12*
%TO.C,Ref\u002A\u002A*%
X104775000Y-119062500D03*
%TD*%
%TO.C,Ref\u002A\u002A*%
X238125000Y-119062500D03*
%TD*%
D10*
%TO.C,SW46*%
X202600000Y-90487500D03*
D11*
X209550000Y-83537500D03*
X209550000Y-97437500D03*
D10*
X216500000Y-90487500D03*
%TD*%
%TO.C,SW5*%
X50200000Y-71437500D03*
D11*
X57150000Y-64487500D03*
X57150000Y-78387500D03*
D10*
X64100000Y-71437500D03*
%TD*%
%TO.C,SW31*%
X145450000Y-90487500D03*
D11*
X152400000Y-83537500D03*
X152400000Y-97437500D03*
D10*
X159350000Y-90487500D03*
%TD*%
%TO.C,SW17*%
X88300000Y-109537500D03*
D11*
X95250000Y-102587500D03*
X95250000Y-116487500D03*
D10*
X102200000Y-109537500D03*
%TD*%
%TO.C,SW2*%
X31150000Y-90487500D03*
D11*
X38100000Y-83537500D03*
X38100000Y-97437500D03*
D10*
X45050000Y-90487500D03*
%TD*%
%TO.C,SW16*%
X88300000Y-90487500D03*
D11*
X95250000Y-83537500D03*
X95250000Y-97437500D03*
D10*
X102200000Y-90487500D03*
%TD*%
%TO.C,SW3*%
X31150000Y-109537500D03*
D11*
X38100000Y-102587500D03*
X38100000Y-116487500D03*
D10*
X45050000Y-109537500D03*
%TD*%
D12*
%TO.C,Ref\u002A\u002A*%
X104775000Y-80962500D03*
%TD*%
D10*
%TO.C,SW36*%
X164500000Y-90487500D03*
D11*
X171450000Y-83537500D03*
X171450000Y-97437500D03*
D10*
X178400000Y-90487500D03*
%TD*%
%TO.C,SW1*%
X31150000Y-71437500D03*
D11*
X38100000Y-64487500D03*
X38100000Y-78387500D03*
D10*
X45050000Y-71437500D03*
%TD*%
D12*
%TO.C,Ref\u002A\u002A*%
X180975000Y-80962500D03*
%TD*%
D10*
%TO.C,SW26*%
X126400000Y-90487500D03*
D11*
X133350000Y-83537500D03*
X133350000Y-97437500D03*
D10*
X140300000Y-90487500D03*
%TD*%
%TO.C,SW28*%
X126400000Y-128587500D03*
D11*
X133350000Y-121637500D03*
X133350000Y-135537500D03*
D10*
X140300000Y-128587500D03*
%TD*%
%TO.C,SW15*%
X88300000Y-71437500D03*
D11*
X95250000Y-64487500D03*
X95250000Y-78387500D03*
D10*
X102200000Y-71437500D03*
%TD*%
%TO.C,SW45*%
X202600000Y-71437500D03*
D11*
X209550000Y-64487500D03*
X209550000Y-78387500D03*
D10*
X216500000Y-71437500D03*
%TD*%
%TO.C,SW30*%
X145450000Y-71437500D03*
D11*
X152400000Y-64487500D03*
X152400000Y-78387500D03*
D10*
X159350000Y-71437500D03*
%TD*%
D12*
%TO.C,Ref\u002A\u002A*%
X180975000Y-119062500D03*
%TD*%
D10*
%TO.C,SW50*%
X221650000Y-71437500D03*
D11*
X228600000Y-64487500D03*
X228600000Y-78387500D03*
D10*
X235550000Y-71437500D03*
%TD*%
%TO.C,SW41*%
X183550000Y-90487500D03*
D11*
X190500000Y-83537500D03*
X190500000Y-97437500D03*
D10*
X197450000Y-90487500D03*
%TD*%
%TO.C,SW8*%
X50200000Y-128587500D03*
D11*
X57150000Y-121637500D03*
X57150000Y-135537500D03*
D10*
X64100000Y-128587500D03*
%TD*%
%TO.C,SW20*%
X107350000Y-71437500D03*
D11*
X114300000Y-64487500D03*
X114300000Y-78387500D03*
D10*
X121250000Y-71437500D03*
%TD*%
D12*
%TO.C,Ref\u002A\u002A*%
X142875000Y-80962500D03*
%TD*%
D10*
%TO.C,SW34*%
X147831300Y-147637500D03*
D11*
X154781300Y-140687500D03*
X154781300Y-154587500D03*
D10*
X161731300Y-147637500D03*
%TD*%
%TO.C,SW43*%
X183550000Y-128587500D03*
D11*
X190500000Y-121637500D03*
X190500000Y-135537500D03*
D10*
X197450000Y-128587500D03*
%TD*%
%TO.C,SW6*%
X50200000Y-90487500D03*
D11*
X57150000Y-83537500D03*
X57150000Y-97437500D03*
D10*
X64100000Y-90487500D03*
%TD*%
D12*
%TO.C,Ref\u002A\u002A*%
X238125000Y-80962500D03*
%TD*%
%TO.C,Ref\u002A\u002A*%
X47625000Y-80962500D03*
%TD*%
%TO.C,Ref\u002A\u002A*%
X189309534Y-141089181D03*
%TD*%
D10*
%TO.C,SW4*%
X31150000Y-128587500D03*
D11*
X38100000Y-121637500D03*
X38100000Y-135537500D03*
D10*
X45050000Y-128587500D03*
%TD*%
D15*
%TO.C,L2*%
X165497014Y-150018876D03*
D16*
X168037014Y-150018876D03*
%TD*%
D10*
%TO.C,SW27*%
X126400000Y-109537500D03*
D11*
X133350000Y-102587500D03*
X133350000Y-116487500D03*
D10*
X140300000Y-109537500D03*
%TD*%
M02*
