M48
; DRILL file {KiCad 9.0.1} date 2025-05-11T16:25:56+0900
; FORMAT={-:-/ absolute / metric / decimal}
; #@! TF.CreationDate,2025-05-11T16:25:56+09:00
; #@! TF.GenerationSoftware,Kicad,Pcbnew,9.0.1
; #@! TF.FileFunction,Plated,1,2,PTH
FMAT,2
METRIC
; #@! TA.AperFunction,Plated,PTH,ViaDrill
T1C0.300
; #@! TA.AperFunction,Plated,PTH,ComponentDrill
T2C0.700
; #@! TA.AperFunction,Plated,PTH,ComponentDrill
T3C0.800
; #@! TA.AperFunction,Plated,PTH,ComponentDrill
T4C0.813
; #@! TA.AperFunction,Plated,PTH,ComponentDrill
T5C0.900
; #@! TA.AperFunction,Plated,PTH,ComponentDrill
T6C1.300
; #@! TA.AperFunction,Plated,PTH,ComponentDrill
T7C1.500
%
G90
G05
T1
X29.2Y-44.05
X29.225Y-96.55
X29.225Y-115.6
X29.25Y-77.5
X29.25Y-110.85
X29.275Y-91.75
X29.3Y-72.425
X29.3Y-129.825
X29.3Y-134.675
X29.425Y-137.25
X31.1Y-41.1
X32.325Y-125.075
X32.88Y-67.281
X36.425Y-55.2
X37.5Y-49.2
X38.675Y-137.975
X38.725Y-148.975
X38.775Y-153.725
X39.0Y-156.275
X39.9Y-62.9
X40.1Y-50.3
X42.025Y-132.1
X45.7Y-72.1
X46.4Y-134.1
X46.6Y-111.1
X46.7Y-96.3
X48.575Y-137.275
X51.3Y-86.375
X51.55Y-41.1
X54.15Y-103.45
X55.2Y-60.75
X59.5Y-85.5
X61.541Y-61.373
X62.0Y-74.9
X62.0Y-94.0
X62.0Y-132.1
X62.2Y-113.0
X62.525Y-57.725
X66.6Y-47.1
X67.5Y-46.475
X67.625Y-70.0
X67.625Y-137.9
X67.8Y-43.65
X68.4Y-45.875
X68.831Y-66.123
X69.975Y-54.35
X70.9Y-68.95
X74.65Y-41.15
X77.0Y-104.7
X80.3Y-75.0
X81.0Y-113.0
X81.1Y-93.9
X81.1Y-132.2
X83.575Y-140.825
X84.7Y-74.5
X84.85Y-48.65
X91.45Y-54.65
X92.7Y-64.1
X95.15Y-55.55
X95.2Y-156.1
X95.7Y-123.4
X98.55Y-41.15
X99.05Y-48.575
X99.5Y-132.1
X99.7Y-113.0
X100.0Y-94.0
X101.575Y-143.825
X103.8Y-89.575
X103.879Y-74.97
X107.8Y-46.0
X109.95Y-48.05
X111.0Y-52.725
X114.15Y-52.3
X115.1Y-83.6
X115.2Y-123.7
X118.6Y-132.012
X119.1Y-93.9
X119.2Y-113.0
X120.1Y-43.7
X120.2Y-41.15
X122.675Y-89.7
X124.8Y-57.275
X126.35Y-46.15
X128.6Y-52.3
X129.15Y-79.6
X132.4Y-41.2
X134.0Y-85.3
X137.85Y-59.0
X138.2Y-94.0
X138.2Y-132.1
X138.3Y-113.0
X141.925Y-67.8
X142.188Y-62.688
X142.8Y-155.9
X146.699Y-61.373
X147.175Y-47.8
X157.3Y-94.1
X159.3Y-106.9
X160.475Y-126.825
X160.8Y-77.0
X160.8Y-134.2
X161.1Y-115.5
X162.6Y-64.9
X165.0Y-41.15
X165.45Y-52.375
X168.91Y-143.99
X173.5Y-122.2
X176.2Y-113.0
X176.3Y-74.9
X176.3Y-132.0
X177.453Y-94.516
X179.925Y-127.725
X181.9Y-91.9
X182.8Y-57.75
X184.6Y-79.5
X185.706Y-143.056
X185.725Y-55.975
X191.1Y-156.3
X194.9Y-41.15
X195.3Y-74.9
X195.3Y-132.1
X195.4Y-93.9
X195.65Y-112.75
X198.8Y-141.2
X199.025Y-127.575
X201.0Y-137.9
X201.2Y-66.1
X201.375Y-104.4
X201.475Y-55.975
X203.525Y-52.05
X203.55Y-98.8
X203.875Y-85.35
X204.625Y-56.175
X206.65Y-68.6
X209.65Y-52.05
X210.625Y-45.425
X210.726Y-65.45
X211.748Y-65.349
X212.009Y-47.291
X214.4Y-93.9
X214.4Y-132.1
X214.525Y-58.5
X214.825Y-42.85
X214.875Y-45.65
X214.95Y-112.6
X215.425Y-56.2
X216.5Y-87.9
X217.294Y-73.951
X217.925Y-66.475
X218.3Y-47.291
X220.05Y-137.275
X220.239Y-51.006
X221.475Y-126.775
X221.9Y-105.3
X223.7Y-83.725
X224.2Y-41.15
X225.775Y-67.225
X225.9Y-121.75
X228.825Y-123.2
X229.25Y-83.45
X231.6Y-67.325
X233.8Y-74.55
X234.0Y-112.35
X234.05Y-93.6
X234.15Y-130.9
X234.2Y-98.9
X235.525Y-87.625
X236.675Y-107.1
X236.9Y-70.1
X239.1Y-135.65
X245.2Y-150.5
X245.325Y-44.625
X245.35Y-47.65
X246.5Y-155.8
X247.05Y-137.625
X249.3Y-124.8
X250.7Y-53.0
X254.3Y-73.3
X256.2Y-137.0
X256.425Y-59.4
X256.475Y-99.5
X256.55Y-55.9
T2
X97.631Y-54.769
X99.531Y-54.769
T3
X95.131Y-50.006
X97.631Y-50.006
X100.131Y-50.006
T4
X29.845Y-42.396
X29.845Y-57.616
X32.385Y-42.396
X32.385Y-57.616
X34.925Y-42.396
X34.925Y-57.616
X37.465Y-42.396
X37.465Y-57.616
X40.005Y-42.396
X40.005Y-57.616
X42.545Y-42.396
X42.545Y-57.616
X45.085Y-42.396
X45.085Y-57.616
X47.625Y-42.396
X47.625Y-57.616
X50.165Y-42.396
X50.165Y-57.616
X52.705Y-42.396
X52.705Y-57.616
X55.245Y-42.396
X55.245Y-57.616
X57.785Y-42.396
X57.785Y-57.616
X60.325Y-42.396
X60.325Y-57.616
X225.425Y-42.396
X225.425Y-57.616
X227.965Y-42.396
X227.965Y-57.616
X230.505Y-42.396
X230.505Y-57.616
X233.045Y-42.396
X233.045Y-57.616
X235.585Y-42.396
X235.585Y-57.616
X238.125Y-42.396
X238.125Y-57.616
X240.665Y-42.396
X240.665Y-57.616
X243.205Y-42.396
X243.205Y-57.616
X245.745Y-42.396
X245.745Y-57.616
X248.285Y-42.396
X248.285Y-57.616
X250.825Y-42.396
X250.825Y-57.616
X253.365Y-42.396
X253.365Y-57.616
X255.905Y-42.396
X255.905Y-57.616
T5
X102.235Y-54.769
X104.775Y-54.769
X124.206Y-42.624
X126.206Y-42.624
X128.206Y-42.624
X152.1Y-47.981
X152.1Y-50.521
X174.8Y-49.251
X183.056Y-47.981
X183.056Y-50.521
X205.756Y-49.251
T6
X65.806Y-50.006
X72.306Y-50.006
T7
X122.006Y-42.624
X130.406Y-42.624
M30
