%TF.GenerationSoftware,KiCad,Pcbnew,9.0.1*%
%TF.CreationDate,2025-05-11T16:24:07+09:00*%
%TF.ProjectId,Thinpact,5468696e-7061-4637-942e-6b696361645f,rev?*%
%TF.SameCoordinates,Original*%
%TF.FileFunction,Soldermask,Top*%
%TF.FilePolarity,Negative*%
%FSLAX46Y46*%
G04 Gerber Fmt 4.6, Leading zero omitted, Abs format (unit mm)*
G04 Created by KiCad (PCBNEW 9.0.1) date 2025-05-11 16:24:07*
%MOMM*%
%LPD*%
G01*
G04 APERTURE LIST*
G04 Aperture macros list*
%AMRoundRect*
0 Rectangle with rounded corners*
0 $1 Rounding radius*
0 $2 $3 $4 $5 $6 $7 $8 $9 X,Y pos of 4 corners*
0 Add a 4 corners polygon primitive as box body*
4,1,4,$2,$3,$4,$5,$6,$7,$8,$9,$2,$3,0*
0 Add four circle primitives for the rounded corners*
1,1,$1+$1,$2,$3*
1,1,$1+$1,$4,$5*
1,1,$1+$1,$6,$7*
1,1,$1+$1,$8,$9*
0 Add four rect primitives between the rounded corners*
20,1,$1+$1,$2,$3,$4,$5,0*
20,1,$1+$1,$4,$5,$6,$7,0*
20,1,$1+$1,$6,$7,$8,$9,0*
20,1,$1+$1,$8,$9,$2,$3,0*%
%AMFreePoly0*
4,1,23,0.500000,-0.750000,0.000000,-0.750000,0.000000,-0.745722,-0.065263,-0.745722,-0.191342,-0.711940,-0.304381,-0.646677,-0.396677,-0.554381,-0.461940,-0.441342,-0.495722,-0.315263,-0.495722,-0.250000,-0.500000,-0.250000,-0.500000,0.250000,-0.495722,0.250000,-0.495722,0.315263,-0.461940,0.441342,-0.396677,0.554381,-0.304381,0.646677,-0.191342,0.711940,-0.065263,0.745722,0.000000,0.745722,
0.000000,0.750000,0.500000,0.750000,0.500000,-0.750000,0.500000,-0.750000,$1*%
%AMFreePoly1*
4,1,23,0.000000,0.745722,0.065263,0.745722,0.191342,0.711940,0.304381,0.646677,0.396677,0.554381,0.461940,0.441342,0.495722,0.315263,0.495722,0.250000,0.500000,0.250000,0.500000,-0.250000,0.495722,-0.250000,0.495722,-0.315263,0.461940,-0.441342,0.396677,-0.554381,0.304381,-0.646677,0.191342,-0.711940,0.065263,-0.745722,0.000000,-0.745722,0.000000,-0.750000,-0.500000,-0.750000,
-0.500000,0.750000,0.000000,0.750000,0.000000,0.745722,0.000000,0.745722,$1*%
G04 Aperture macros list end*
%ADD10C,1.900000*%
%ADD11C,3.000000*%
%ADD12C,5.000000*%
%ADD13C,1.000000*%
%ADD14C,1.600000*%
%ADD15RoundRect,0.250000X-0.412500X-0.650000X0.412500X-0.650000X0.412500X0.650000X-0.412500X0.650000X0*%
%ADD16C,2.200000*%
%ADD17R,1.800000X1.800000*%
%ADD18C,1.800000*%
%ADD19R,1.500000X1.500000*%
%ADD20C,1.524000*%
%ADD21C,1.400000*%
%ADD22O,1.400000X1.400000*%
%ADD23O,2.200000X3.500000*%
%ADD24O,1.500000X2.500000*%
%ADD25R,1.500000X2.500000*%
%ADD26FreePoly0,270.000000*%
%ADD27FreePoly1,270.000000*%
%ADD28C,2.000000*%
G04 APERTURE END LIST*
%TO.C,JP1*%
G36*
X91550000Y-48850000D02*
G01*
X90050000Y-48850000D01*
X90050000Y-49150000D01*
X91550000Y-49150000D01*
X91550000Y-48850000D01*
G37*
%TD*%
D10*
%TO.C,SW51*%
X223100000Y-90487500D03*
D11*
X223600000Y-94187500D03*
D12*
X228600000Y-90487500D03*
D11*
X228600000Y-96387500D03*
D13*
X233600000Y-85337500D03*
D10*
X234100000Y-90487500D03*
%TD*%
%TO.C,SW56*%
X242150000Y-90487500D03*
D11*
X242650000Y-94187500D03*
D12*
X247650000Y-90487500D03*
D11*
X247650000Y-96387500D03*
D13*
X252650000Y-85337500D03*
D10*
X253150000Y-90487500D03*
%TD*%
%TO.C,SW35*%
X165950000Y-71437500D03*
D11*
X166450000Y-75137500D03*
D12*
X171450000Y-71437500D03*
D11*
X171450000Y-77337500D03*
D13*
X176450000Y-66287500D03*
D10*
X176950000Y-71437500D03*
%TD*%
%TO.C,SW33*%
X146900000Y-128587500D03*
D11*
X147400000Y-132287500D03*
D12*
X152400000Y-128587500D03*
D11*
X152400000Y-134487500D03*
D13*
X157400000Y-123437500D03*
D10*
X157900000Y-128587500D03*
%TD*%
%TO.C,SW48*%
X204050000Y-128587500D03*
D11*
X204550000Y-132287500D03*
D12*
X209550000Y-128587500D03*
D11*
X209550000Y-134487500D03*
D13*
X214550000Y-123437500D03*
D10*
X215050000Y-128587500D03*
%TD*%
D14*
%TO.C,BT1*%
X152100000Y-50521200D03*
X152100000Y-47981200D03*
X174800000Y-49251200D03*
%TD*%
D10*
%TO.C,SW23*%
X108800000Y-128587500D03*
D11*
X109300000Y-132287500D03*
D12*
X114300000Y-128587500D03*
D11*
X114300000Y-134487500D03*
D13*
X119300000Y-123437500D03*
D10*
X119800000Y-128587500D03*
%TD*%
%TO.C,SW32*%
X146900000Y-109537500D03*
D11*
X147400000Y-113237500D03*
D12*
X152400000Y-109537500D03*
D11*
X152400000Y-115437500D03*
D13*
X157400000Y-104387500D03*
D10*
X157900000Y-109537500D03*
%TD*%
%TO.C,SW49*%
X213575000Y-147637500D03*
D11*
X214075000Y-151337500D03*
D12*
X219075000Y-147637500D03*
D11*
X219075000Y-153537500D03*
D13*
X224075000Y-142487500D03*
D10*
X224575000Y-147637500D03*
%TD*%
D14*
%TO.C,BT2*%
X183056200Y-50521200D03*
X183056200Y-47981200D03*
X205756200Y-49251200D03*
%TD*%
D10*
%TO.C,SW40*%
X185000000Y-71437500D03*
D11*
X185500000Y-75137500D03*
D12*
X190500000Y-71437500D03*
D11*
X190500000Y-77337500D03*
D13*
X195500000Y-66287500D03*
D10*
X196000000Y-71437500D03*
%TD*%
%TO.C,SW47*%
X204050000Y-109537500D03*
D11*
X204550000Y-113237500D03*
D12*
X209550000Y-109537500D03*
D11*
X209550000Y-115437500D03*
D13*
X214550000Y-104387500D03*
D10*
X215050000Y-109537500D03*
%TD*%
%TO.C,SW18*%
X89750000Y-128587500D03*
D11*
X90250000Y-132287500D03*
D12*
X95250000Y-128587500D03*
D11*
X95250000Y-134487500D03*
D13*
X100250000Y-123437500D03*
D10*
X100750000Y-128587500D03*
%TD*%
%TO.C,SW53*%
X223100000Y-128587500D03*
D11*
X223600000Y-132287500D03*
D12*
X228600000Y-128587500D03*
D11*
X228600000Y-134487500D03*
D13*
X233600000Y-123437500D03*
D10*
X234100000Y-128587500D03*
%TD*%
%TO.C,SW19*%
X80225000Y-147637500D03*
D11*
X80725000Y-151337500D03*
D12*
X85725000Y-147637500D03*
D11*
X85725000Y-153537500D03*
D13*
X90725000Y-142487500D03*
D10*
X91225000Y-147637500D03*
%TD*%
%TO.C,SW7*%
X51650000Y-109537500D03*
D11*
X52150000Y-113237500D03*
D12*
X57150000Y-109537500D03*
D11*
X57150000Y-115437500D03*
D13*
X62150000Y-104387500D03*
D10*
X62650000Y-109537500D03*
%TD*%
%TO.C,SW9*%
X42125000Y-147637500D03*
D11*
X42625000Y-151337500D03*
D12*
X47625000Y-147637500D03*
D11*
X47625000Y-153537500D03*
D13*
X52625000Y-142487500D03*
D10*
X53125000Y-147637500D03*
%TD*%
%TO.C,SW14*%
X61175000Y-147637500D03*
D11*
X61675000Y-151337500D03*
D12*
X66675000Y-147637500D03*
D11*
X66675000Y-153537500D03*
D13*
X71675000Y-142487500D03*
D10*
X72175000Y-147637500D03*
%TD*%
%TO.C,SW42*%
X185000000Y-109537500D03*
D11*
X185500000Y-113237500D03*
D12*
X190500000Y-109537500D03*
D11*
X190500000Y-115437500D03*
D13*
X195500000Y-104387500D03*
D10*
X196000000Y-109537500D03*
%TD*%
D15*
%TO.C,C1*%
X128215600Y-47148700D03*
X131340600Y-47148700D03*
%TD*%
D10*
%TO.C,SW52*%
X223100000Y-109537500D03*
D11*
X223600000Y-113237500D03*
D12*
X228600000Y-109537500D03*
D11*
X228600000Y-115437500D03*
D13*
X233600000Y-104387500D03*
D10*
X234100000Y-109537500D03*
%TD*%
%TO.C,SW44*%
X194525000Y-147637500D03*
D11*
X195025000Y-151337500D03*
D12*
X200025000Y-147637500D03*
D11*
X200025000Y-153537500D03*
D13*
X205025000Y-142487500D03*
D10*
X205525000Y-147637500D03*
%TD*%
%TO.C,SW21*%
X108800000Y-90487500D03*
D11*
X109300000Y-94187500D03*
D12*
X114300000Y-90487500D03*
D11*
X114300000Y-96387500D03*
D13*
X119300000Y-85337500D03*
D10*
X119800000Y-90487500D03*
%TD*%
%TO.C,SW24*%
X101656300Y-147637500D03*
D11*
X102156300Y-151337500D03*
D12*
X107156300Y-147637500D03*
D11*
X107156300Y-153537500D03*
D13*
X112156300Y-142487500D03*
D10*
X112656300Y-147637500D03*
%TD*%
%TO.C,SW12*%
X70700000Y-109537500D03*
D11*
X71200000Y-113237500D03*
D12*
X76200000Y-109537500D03*
D11*
X76200000Y-115437500D03*
D13*
X81200000Y-104387500D03*
D10*
X81700000Y-109537500D03*
%TD*%
%TO.C,SW10*%
X70700000Y-71437500D03*
D11*
X71200000Y-75137500D03*
D12*
X76200000Y-71437500D03*
D11*
X76200000Y-77337500D03*
D13*
X81200000Y-66287500D03*
D10*
X81700000Y-71437500D03*
%TD*%
%TO.C,SW37*%
X165950000Y-109537500D03*
D11*
X166450000Y-113237500D03*
D12*
X171450000Y-109537500D03*
D11*
X171450000Y-115437500D03*
D13*
X176450000Y-104387500D03*
D10*
X176950000Y-109537500D03*
%TD*%
%TO.C,SW25*%
X127850000Y-71437500D03*
D11*
X128350000Y-75137500D03*
D12*
X133350000Y-71437500D03*
D11*
X133350000Y-77337500D03*
D13*
X138350000Y-66287500D03*
D10*
X138850000Y-71437500D03*
%TD*%
%TO.C,SW38*%
X165950000Y-128587500D03*
D11*
X166450000Y-132287500D03*
D12*
X171450000Y-128587500D03*
D11*
X171450000Y-134487500D03*
D13*
X176450000Y-123437500D03*
D10*
X176950000Y-128587500D03*
%TD*%
D16*
%TO.C,H1*%
X33337500Y-50006250D03*
%TD*%
D10*
%TO.C,SW11*%
X70700000Y-90487500D03*
D11*
X71200000Y-94187500D03*
D12*
X76200000Y-90487500D03*
D11*
X76200000Y-96387500D03*
D13*
X81200000Y-85337500D03*
D10*
X81700000Y-90487500D03*
%TD*%
%TO.C,SW58*%
X242150000Y-128587500D03*
D11*
X242650000Y-132287500D03*
D12*
X247650000Y-128587500D03*
D11*
X247650000Y-134487500D03*
D13*
X252650000Y-123437500D03*
D10*
X253150000Y-128587500D03*
%TD*%
D17*
%TO.C,D61*%
X104775000Y-54768700D03*
D18*
X102235000Y-54768700D03*
%TD*%
D19*
%TO.C,SW61*%
X97631300Y-50006200D03*
D14*
X95131300Y-50006200D03*
X100131300Y-50006200D03*
%TD*%
D10*
%TO.C,SW55*%
X242150000Y-71437500D03*
D11*
X242650000Y-75137500D03*
D12*
X247650000Y-71437500D03*
D11*
X247650000Y-77337500D03*
D13*
X252650000Y-66287500D03*
D10*
X253150000Y-71437500D03*
%TD*%
%TO.C,SW39*%
X173093800Y-147637500D03*
D11*
X173593800Y-151337500D03*
D12*
X178593800Y-147637500D03*
D11*
X178593800Y-153537500D03*
D13*
X183593800Y-142487500D03*
D10*
X184093800Y-147637500D03*
%TD*%
%TO.C,SW13*%
X70700000Y-128587500D03*
D11*
X71200000Y-132287500D03*
D12*
X76200000Y-128587500D03*
D11*
X76200000Y-134487500D03*
D13*
X81200000Y-123437500D03*
D10*
X81700000Y-128587500D03*
%TD*%
%TO.C,SW29*%
X125468800Y-147637500D03*
D11*
X125968800Y-151337500D03*
D12*
X130968800Y-147637500D03*
D11*
X130968800Y-153537500D03*
D13*
X135968800Y-142487500D03*
D10*
X136468800Y-147637500D03*
%TD*%
%TO.C,SW54*%
X232625000Y-147637500D03*
D11*
X233125000Y-151337500D03*
D12*
X238125000Y-147637500D03*
D11*
X238125000Y-153537500D03*
D13*
X243125000Y-142487500D03*
D10*
X243625000Y-147637500D03*
%TD*%
D20*
%TO.C,U2*%
X253365300Y-42396200D03*
X250825300Y-42396200D03*
X248285300Y-42396200D03*
X245745300Y-42396200D03*
X243205300Y-42396200D03*
X240665300Y-42396200D03*
X238125300Y-42396200D03*
X235585300Y-42396200D03*
X233045300Y-42396200D03*
X230505300Y-42396200D03*
X227965300Y-42396200D03*
X225425300Y-42396200D03*
X225425300Y-57616200D03*
X227965300Y-57616200D03*
X230505300Y-57616200D03*
X233045300Y-57616200D03*
X235585300Y-57616200D03*
X238125300Y-57616200D03*
X240665300Y-57616200D03*
X243205300Y-57616200D03*
X245745300Y-57616200D03*
X248285300Y-57616200D03*
X250825300Y-57616200D03*
X253365300Y-57616200D03*
X255905300Y-57616200D03*
X255905300Y-42396200D03*
%TD*%
D10*
%TO.C,SW57*%
X242150000Y-109537500D03*
D11*
X242650000Y-113237500D03*
D12*
X247650000Y-109537500D03*
D11*
X247650000Y-115437500D03*
D13*
X252650000Y-104387500D03*
D10*
X253150000Y-109537500D03*
%TD*%
%TO.C,SW22*%
X108800000Y-109537500D03*
D11*
X109300000Y-113237500D03*
D12*
X114300000Y-109537500D03*
D11*
X114300000Y-115437500D03*
D13*
X119300000Y-104387500D03*
D10*
X119800000Y-109537500D03*
%TD*%
%TO.C,SW46*%
X204050000Y-90487500D03*
D11*
X204550000Y-94187500D03*
D12*
X209550000Y-90487500D03*
D11*
X209550000Y-96387500D03*
D13*
X214550000Y-85337500D03*
D10*
X215050000Y-90487500D03*
%TD*%
%TO.C,SW5*%
X51650000Y-71437500D03*
D11*
X52150000Y-75137500D03*
D12*
X57150000Y-71437500D03*
D11*
X57150000Y-77337500D03*
D13*
X62150000Y-66287500D03*
D10*
X62650000Y-71437500D03*
%TD*%
%TO.C,SW31*%
X146900000Y-90487500D03*
D11*
X147400000Y-94187500D03*
D12*
X152400000Y-90487500D03*
D11*
X152400000Y-96387500D03*
D13*
X157400000Y-85337500D03*
D10*
X157900000Y-90487500D03*
%TD*%
%TO.C,SW17*%
X89750000Y-109537500D03*
D11*
X90250000Y-113237500D03*
D12*
X95250000Y-109537500D03*
D11*
X95250000Y-115437500D03*
D13*
X100250000Y-104387500D03*
D10*
X100750000Y-109537500D03*
%TD*%
%TO.C,SW2*%
X32600000Y-90487500D03*
D11*
X33100000Y-94187500D03*
D12*
X38100000Y-90487500D03*
D11*
X38100000Y-96387500D03*
D13*
X43100000Y-85337500D03*
D10*
X43600000Y-90487500D03*
%TD*%
D16*
%TO.C,H2*%
X142875000Y-50006250D03*
%TD*%
D10*
%TO.C,SW16*%
X89750000Y-90487500D03*
D11*
X90250000Y-94187500D03*
D12*
X95250000Y-90487500D03*
D11*
X95250000Y-96387500D03*
D13*
X100250000Y-85337500D03*
D10*
X100750000Y-90487500D03*
%TD*%
D21*
%TO.C,R1*%
X97631300Y-54768700D03*
D22*
X99531300Y-54768700D03*
%TD*%
D10*
%TO.C,SW3*%
X32600000Y-109537500D03*
D11*
X33100000Y-113237500D03*
D12*
X38100000Y-109537500D03*
D11*
X38100000Y-115437500D03*
D13*
X43100000Y-104387500D03*
D10*
X43600000Y-109537500D03*
%TD*%
%TO.C,SW36*%
X165950000Y-90487500D03*
D11*
X166450000Y-94187500D03*
D12*
X171450000Y-90487500D03*
D11*
X171450000Y-96387500D03*
D13*
X176450000Y-85337500D03*
D10*
X176950000Y-90487500D03*
%TD*%
%TO.C,SW1*%
X32600000Y-71437500D03*
D11*
X33100000Y-75137500D03*
D12*
X38100000Y-71437500D03*
D11*
X38100000Y-77337500D03*
D13*
X43100000Y-66287500D03*
D10*
X43600000Y-71437500D03*
%TD*%
%TO.C,SW26*%
X127850000Y-90487500D03*
D11*
X128350000Y-94187500D03*
D12*
X133350000Y-90487500D03*
D11*
X133350000Y-96387500D03*
D13*
X138350000Y-85337500D03*
D10*
X138850000Y-90487500D03*
%TD*%
D20*
%TO.C,U1*%
X32384800Y-57616200D03*
X34924800Y-57616200D03*
X37464800Y-57616200D03*
X40004800Y-57616200D03*
X42544800Y-57616200D03*
X45084800Y-57616200D03*
X47624800Y-57616200D03*
X50164800Y-57616200D03*
X52704800Y-57616200D03*
X55244800Y-57616200D03*
X57784800Y-57616200D03*
X60324800Y-57616200D03*
X60324800Y-42396200D03*
X57784800Y-42396200D03*
X55244800Y-42396200D03*
X52704800Y-42396200D03*
X50164800Y-42396200D03*
X47624800Y-42396200D03*
X45084800Y-42396200D03*
X42544800Y-42396200D03*
X40004800Y-42396200D03*
X37464800Y-42396200D03*
X34924800Y-42396200D03*
X32384800Y-42396200D03*
X29844800Y-42396200D03*
X29844800Y-57616200D03*
%TD*%
D10*
%TO.C,SW28*%
X127850000Y-128587500D03*
D11*
X128350000Y-132287500D03*
D12*
X133350000Y-128587500D03*
D11*
X133350000Y-134487500D03*
D13*
X138350000Y-123437500D03*
D10*
X138850000Y-128587500D03*
%TD*%
D23*
%TO.C,SW60*%
X130406300Y-42624400D03*
X122006300Y-42624400D03*
D24*
X128206300Y-42624400D03*
D25*
X126206300Y-42624400D03*
D24*
X124206300Y-42624400D03*
%TD*%
D10*
%TO.C,SW15*%
X89750000Y-71437500D03*
D11*
X90250000Y-75137500D03*
D12*
X95250000Y-71437500D03*
D11*
X95250000Y-77337500D03*
D13*
X100250000Y-66287500D03*
D10*
X100750000Y-71437500D03*
%TD*%
%TO.C,SW45*%
X204050000Y-71437500D03*
D11*
X204550000Y-75137500D03*
D12*
X209550000Y-71437500D03*
D11*
X209550000Y-77337500D03*
D13*
X214550000Y-66287500D03*
D10*
X215050000Y-71437500D03*
%TD*%
%TO.C,SW30*%
X146900000Y-71437500D03*
D11*
X147400000Y-75137500D03*
D12*
X152400000Y-71437500D03*
D11*
X152400000Y-77337500D03*
D13*
X157400000Y-66287500D03*
D10*
X157900000Y-71437500D03*
%TD*%
D26*
%TO.C,JP1*%
X90800000Y-48350000D03*
D27*
X90800000Y-49650000D03*
%TD*%
D10*
%TO.C,SW50*%
X223100000Y-71437500D03*
D11*
X223600000Y-75137500D03*
D12*
X228600000Y-71437500D03*
D11*
X228600000Y-77337500D03*
D13*
X233600000Y-66287500D03*
D10*
X234100000Y-71437500D03*
%TD*%
%TO.C,SW41*%
X185000000Y-90487500D03*
D11*
X185500000Y-94187500D03*
D12*
X190500000Y-90487500D03*
D11*
X190500000Y-96387500D03*
D13*
X195500000Y-85337500D03*
D10*
X196000000Y-90487500D03*
%TD*%
%TO.C,SW8*%
X51650000Y-128587500D03*
D11*
X52150000Y-132287500D03*
D12*
X57150000Y-128587500D03*
D11*
X57150000Y-134487500D03*
D13*
X62150000Y-123437500D03*
D10*
X62650000Y-128587500D03*
%TD*%
%TO.C,SW20*%
X108800000Y-71437500D03*
D11*
X109300000Y-75137500D03*
D12*
X114300000Y-71437500D03*
D11*
X114300000Y-77337500D03*
D13*
X119300000Y-66287500D03*
D10*
X119800000Y-71437500D03*
%TD*%
%TO.C,SW34*%
X149281300Y-147637500D03*
D11*
X149781300Y-151337500D03*
D12*
X154781300Y-147637500D03*
D11*
X154781300Y-153537500D03*
D13*
X159781300Y-142487500D03*
D10*
X160281300Y-147637500D03*
%TD*%
%TO.C,SW43*%
X185000000Y-128587500D03*
D11*
X185500000Y-132287500D03*
D12*
X190500000Y-128587500D03*
D11*
X190500000Y-134487500D03*
D13*
X195500000Y-123437500D03*
D10*
X196000000Y-128587500D03*
%TD*%
%TO.C,SW6*%
X51650000Y-90487500D03*
D11*
X52150000Y-94187500D03*
D12*
X57150000Y-90487500D03*
D11*
X57150000Y-96387500D03*
D13*
X62150000Y-85337500D03*
D10*
X62650000Y-90487500D03*
%TD*%
%TO.C,SW4*%
X32600000Y-128587500D03*
D11*
X33100000Y-132287500D03*
D12*
X38100000Y-128587500D03*
D11*
X38100000Y-134487500D03*
D13*
X43100000Y-123437500D03*
D10*
X43600000Y-128587500D03*
%TD*%
%TO.C,SW27*%
X127850000Y-109537500D03*
D11*
X128350000Y-113237500D03*
D12*
X133350000Y-109537500D03*
D11*
X133350000Y-115437500D03*
D13*
X138350000Y-104387500D03*
D10*
X138850000Y-109537500D03*
%TD*%
D16*
%TO.C,H3*%
X252412500Y-50006250D03*
%TD*%
D28*
%TO.C,SW59*%
X65806300Y-50006200D03*
X72306300Y-50006200D03*
%TD*%
M02*
