M48
; DRILL file {KiCad 9.0.1} date 2025-05-11T16:25:56+0900
; FORMAT={-:-/ absolute / metric / decimal}
; #@! TF.CreationDate,2025-05-11T16:25:56+09:00
; #@! TF.GenerationSoftware,Kicad,Pcbnew,9.0.1
; #@! TF.FileFunction,NonPlated,1,2,NPTH
FMAT,2
METRIC
; #@! TA.AperFunction,NonPlated,NPTH,ComponentDrill
T1C1.600
; #@! TA.AperFunction,NonPlated,NPTH,ComponentDrill
T2C1.900
; #@! TA.AperFunction,NonPlated,NPTH,ComponentDrill
T3C2.200
; #@! TA.AperFunction,NonPlated,NPTH,ComponentDrill
T4C3.000
; #@! TA.AperFunction,NonPlated,NPTH,ComponentDrill
T5C5.000
%
G90
G05
T1
X43.1Y-66.287
X43.1Y-85.337
X43.1Y-104.387
X43.1Y-123.438
X52.625Y-142.487
X62.15Y-66.287
X62.15Y-85.337
X62.15Y-104.387
X62.15Y-123.438
X71.675Y-142.487
X81.2Y-66.287
X81.2Y-85.337
X81.2Y-104.387
X81.2Y-123.438
X90.725Y-142.487
X100.25Y-66.287
X100.25Y-85.337
X100.25Y-104.387
X100.25Y-123.438
X112.156Y-142.487
X119.3Y-66.287
X119.3Y-85.337
X119.3Y-104.387
X119.3Y-123.438
X135.969Y-142.487
X138.35Y-66.287
X138.35Y-85.337
X138.35Y-104.387
X138.35Y-123.438
X157.4Y-66.287
X157.4Y-85.337
X157.4Y-104.387
X157.4Y-123.438
X159.781Y-142.487
X176.45Y-66.287
X176.45Y-85.337
X176.45Y-104.387
X176.45Y-123.438
X183.594Y-142.487
X195.5Y-66.287
X195.5Y-85.337
X195.5Y-104.387
X195.5Y-123.438
X205.025Y-142.487
X214.55Y-66.287
X214.55Y-85.337
X214.55Y-104.387
X214.55Y-123.438
X224.075Y-142.487
X233.6Y-66.287
X233.6Y-85.337
X233.6Y-104.387
X233.6Y-123.438
X243.125Y-142.487
X252.65Y-66.287
X252.65Y-85.337
X252.65Y-104.387
X252.65Y-123.438
T2
X32.6Y-71.438
X32.6Y-90.487
X32.6Y-109.537
X32.6Y-128.588
X42.125Y-147.637
X43.6Y-71.438
X43.6Y-90.487
X43.6Y-109.537
X43.6Y-128.588
X51.65Y-71.438
X51.65Y-90.487
X51.65Y-109.537
X51.65Y-128.588
X53.125Y-147.637
X61.175Y-147.637
X62.65Y-71.438
X62.65Y-90.487
X62.65Y-109.537
X62.65Y-128.588
X70.7Y-71.438
X70.7Y-90.487
X70.7Y-109.537
X70.7Y-128.588
X72.175Y-147.637
X80.225Y-147.637
X81.7Y-71.438
X81.7Y-90.487
X81.7Y-109.537
X81.7Y-128.588
X89.75Y-71.438
X89.75Y-90.487
X89.75Y-109.537
X89.75Y-128.588
X91.225Y-147.637
X100.75Y-71.438
X100.75Y-90.487
X100.75Y-109.537
X100.75Y-128.588
X101.656Y-147.637
X108.8Y-71.438
X108.8Y-90.487
X108.8Y-109.537
X108.8Y-128.588
X112.656Y-147.637
X119.8Y-71.438
X119.8Y-90.487
X119.8Y-109.537
X119.8Y-128.588
X125.469Y-147.637
X127.85Y-71.438
X127.85Y-90.487
X127.85Y-109.537
X127.85Y-128.588
X136.469Y-147.637
X138.85Y-71.438
X138.85Y-90.487
X138.85Y-109.537
X138.85Y-128.588
X146.9Y-71.438
X146.9Y-90.487
X146.9Y-109.537
X146.9Y-128.588
X149.281Y-147.637
X157.9Y-71.438
X157.9Y-90.487
X157.9Y-109.537
X157.9Y-128.588
X160.281Y-147.637
X165.95Y-71.438
X165.95Y-90.487
X165.95Y-109.537
X165.95Y-128.588
X173.094Y-147.637
X176.95Y-71.438
X176.95Y-90.487
X176.95Y-109.537
X176.95Y-128.588
X184.094Y-147.637
X185.0Y-71.438
X185.0Y-90.487
X185.0Y-109.537
X185.0Y-128.588
X194.525Y-147.637
X196.0Y-71.438
X196.0Y-90.487
X196.0Y-109.537
X196.0Y-128.588
X204.05Y-71.438
X204.05Y-90.487
X204.05Y-109.537
X204.05Y-128.588
X205.525Y-147.637
X213.575Y-147.637
X215.05Y-71.438
X215.05Y-90.487
X215.05Y-109.537
X215.05Y-128.588
X223.1Y-71.438
X223.1Y-90.487
X223.1Y-109.537
X223.1Y-128.588
X224.575Y-147.637
X232.625Y-147.637
X234.1Y-71.438
X234.1Y-90.487
X234.1Y-109.537
X234.1Y-128.588
X242.15Y-71.438
X242.15Y-90.487
X242.15Y-109.537
X242.15Y-128.588
X243.625Y-147.637
X253.15Y-71.438
X253.15Y-90.487
X253.15Y-109.537
X253.15Y-128.588
T3
X33.337Y-50.006
X142.875Y-50.006
X252.412Y-50.006
T4
X33.1Y-75.138
X33.1Y-94.188
X33.1Y-113.237
X33.1Y-132.287
X38.1Y-77.337
X38.1Y-96.387
X38.1Y-115.438
X38.1Y-134.487
X42.625Y-151.338
X47.625Y-153.537
X52.15Y-75.138
X52.15Y-94.188
X52.15Y-113.237
X52.15Y-132.287
X57.15Y-77.337
X57.15Y-96.387
X57.15Y-115.438
X57.15Y-134.487
X61.675Y-151.338
X66.675Y-153.537
X71.2Y-75.138
X71.2Y-94.188
X71.2Y-113.237
X71.2Y-132.287
X76.2Y-77.337
X76.2Y-96.387
X76.2Y-115.438
X76.2Y-134.487
X80.725Y-151.338
X85.725Y-153.537
X90.25Y-75.138
X90.25Y-94.188
X90.25Y-113.237
X90.25Y-132.287
X95.25Y-77.337
X95.25Y-96.387
X95.25Y-115.438
X95.25Y-134.487
X102.156Y-151.338
X107.156Y-153.537
X109.3Y-75.138
X109.3Y-94.188
X109.3Y-113.237
X109.3Y-132.287
X114.3Y-77.337
X114.3Y-96.387
X114.3Y-115.438
X114.3Y-134.487
X125.969Y-151.338
X128.35Y-75.138
X128.35Y-94.188
X128.35Y-113.237
X128.35Y-132.287
X130.969Y-153.537
X133.35Y-77.337
X133.35Y-96.387
X133.35Y-115.438
X133.35Y-134.487
X147.4Y-75.138
X147.4Y-94.188
X147.4Y-113.237
X147.4Y-132.287
X149.781Y-151.338
X152.4Y-77.337
X152.4Y-96.387
X152.4Y-115.438
X152.4Y-134.487
X154.781Y-153.537
X166.45Y-75.138
X166.45Y-94.188
X166.45Y-113.237
X166.45Y-132.287
X171.45Y-77.337
X171.45Y-96.387
X171.45Y-115.438
X171.45Y-134.487
X173.594Y-151.338
X178.594Y-153.537
X185.5Y-75.138
X185.5Y-94.188
X185.5Y-113.237
X185.5Y-132.287
X190.5Y-77.337
X190.5Y-96.387
X190.5Y-115.438
X190.5Y-134.487
X195.025Y-151.338
X200.025Y-153.537
X204.55Y-75.138
X204.55Y-94.188
X204.55Y-113.237
X204.55Y-132.287
X209.55Y-77.337
X209.55Y-96.387
X209.55Y-115.438
X209.55Y-134.487
X214.075Y-151.338
X219.075Y-153.537
X223.6Y-75.138
X223.6Y-94.188
X223.6Y-113.237
X223.6Y-132.287
X228.6Y-77.337
X228.6Y-96.387
X228.6Y-115.438
X228.6Y-134.487
X233.125Y-151.338
X238.125Y-153.537
X242.65Y-75.138
X242.65Y-94.188
X242.65Y-113.237
X242.65Y-132.287
X247.65Y-77.337
X247.65Y-96.387
X247.65Y-115.438
X247.65Y-134.487
T5
X38.1Y-71.438
X38.1Y-90.487
X38.1Y-109.537
X38.1Y-128.588
X47.625Y-147.637
X57.15Y-71.438
X57.15Y-90.487
X57.15Y-109.537
X57.15Y-128.588
X66.675Y-147.637
X76.2Y-71.438
X76.2Y-90.487
X76.2Y-109.537
X76.2Y-128.588
X85.725Y-147.637
X95.25Y-71.438
X95.25Y-90.487
X95.25Y-109.537
X95.25Y-128.588
X107.156Y-147.637
X114.3Y-71.438
X114.3Y-90.487
X114.3Y-109.537
X114.3Y-128.588
X130.969Y-147.637
X133.35Y-71.438
X133.35Y-90.487
X133.35Y-109.537
X133.35Y-128.588
X152.4Y-71.438
X152.4Y-90.487
X152.4Y-109.537
X152.4Y-128.588
X154.781Y-147.637
X171.45Y-71.438
X171.45Y-90.487
X171.45Y-109.537
X171.45Y-128.588
X178.594Y-147.637
X190.5Y-71.438
X190.5Y-90.487
X190.5Y-109.537
X190.5Y-128.588
X200.025Y-147.637
X209.55Y-71.438
X209.55Y-90.487
X209.55Y-109.537
X209.55Y-128.588
X219.075Y-147.637
X228.6Y-71.438
X228.6Y-90.487
X228.6Y-109.537
X228.6Y-128.588
X238.125Y-147.637
X247.65Y-71.438
X247.65Y-90.487
X247.65Y-109.537
X247.65Y-128.588
M30
