%TF.GenerationSoftware,KiCad,Pcbnew,9.0.1*%
%TF.CreationDate,2025-05-11T16:27:20+09:00*%
%TF.ProjectId,Switch_plate,53776974-6368-45f7-906c-6174652e6b69,rev?*%
%TF.SameCoordinates,Original*%
%TF.FileFunction,Copper,L1,Top*%
%TF.FilePolarity,Positive*%
%FSLAX46Y46*%
G04 Gerber Fmt 4.6, Leading zero omitted, Abs format (unit mm)*
G04 Created by KiCad (PCBNEW 9.0.1) date 2025-05-11 16:27:20*
%MOMM*%
%LPD*%
G01*
G04 APERTURE LIST*
G04 Aperture macros list*
%AMRoundRect*
0 Rectangle with rounded corners*
0 $1 Rounding radius*
0 $2 $3 $4 $5 $6 $7 $8 $9 X,Y pos of 4 corners*
0 Add a 4 corners polygon primitive as box body*
4,1,4,$2,$3,$4,$5,$6,$7,$8,$9,$2,$3,0*
0 Add four circle primitives for the rounded corners*
1,1,$1+$1,$2,$3*
1,1,$1+$1,$4,$5*
1,1,$1+$1,$6,$7*
1,1,$1+$1,$8,$9*
0 Add four rect primitives between the rounded corners*
20,1,$1+$1,$2,$3,$4,$5,0*
20,1,$1+$1,$4,$5,$6,$7,0*
20,1,$1+$1,$6,$7,$8,$9,0*
20,1,$1+$1,$8,$9,$2,$3,0*%
G04 Aperture macros list end*
%TA.AperFunction,ComponentPad*%
%ADD10O,2.000000X15.900000*%
%TD*%
%TA.AperFunction,ComponentPad*%
%ADD11O,15.900000X2.000000*%
%TD*%
%TA.AperFunction,SMDPad,CuDef*%
%ADD12RoundRect,0.250000X-0.625000X0.312500X-0.625000X-0.312500X0.625000X-0.312500X0.625000X0.312500X0*%
%TD*%
%TA.AperFunction,ComponentPad*%
%ADD13R,1.700000X1.700000*%
%TD*%
%TA.AperFunction,ComponentPad*%
%ADD14C,1.700000*%
%TD*%
%TA.AperFunction,ComponentPad*%
%ADD15R,1.800000X1.800000*%
%TD*%
%TA.AperFunction,ComponentPad*%
%ADD16C,1.800000*%
%TD*%
%TA.AperFunction,Conductor*%
%ADD17C,0.250000*%
%TD*%
G04 APERTURE END LIST*
D10*
%TO.P,SW51,1,1*%
%TO.N,col1*%
X221650000Y-90487500D03*
D11*
X228600000Y-83537500D03*
X228600000Y-97437500D03*
D10*
X235550000Y-90487500D03*
%TD*%
%TO.P,SW56,1,1*%
%TO.N,col0*%
X240700000Y-90487500D03*
D11*
X247650000Y-83537500D03*
X247650000Y-97437500D03*
D10*
X254600000Y-90487500D03*
%TD*%
%TO.P,SW35,1,1*%
%TO.N,col4*%
X164500000Y-71437500D03*
D11*
X171450000Y-64487500D03*
X171450000Y-78387500D03*
D10*
X178400000Y-71437500D03*
%TD*%
%TO.P,SW33,1,1*%
%TO.N,col5*%
X145450000Y-128587500D03*
D11*
X152400000Y-121637500D03*
X152400000Y-135537500D03*
D10*
X159350000Y-128587500D03*
%TD*%
%TO.P,SW48,1,1*%
%TO.N,col2*%
X202600000Y-128587500D03*
D11*
X209550000Y-121637500D03*
X209550000Y-135537500D03*
D10*
X216500000Y-128587500D03*
%TD*%
%TO.P,SW23,1,1*%
%TO.N,col4*%
X107350000Y-128587500D03*
D11*
X114300000Y-121637500D03*
X114300000Y-135537500D03*
D10*
X121250000Y-128587500D03*
%TD*%
%TO.P,SW32,1,1*%
%TO.N,col5*%
X145450000Y-109537500D03*
D11*
X152400000Y-102587500D03*
X152400000Y-116487500D03*
D10*
X159350000Y-109537500D03*
%TD*%
%TO.P,SW49,1,1*%
%TO.N,col2*%
X212125000Y-147637500D03*
D11*
X219075000Y-140687500D03*
X219075000Y-154587500D03*
D10*
X226025000Y-147637500D03*
%TD*%
%TO.P,SW40,1,1*%
%TO.N,col3*%
X183550000Y-71437500D03*
D11*
X190500000Y-64487500D03*
X190500000Y-78387500D03*
D10*
X197450000Y-71437500D03*
%TD*%
%TO.P,SW47,1,1*%
%TO.N,col2*%
X202600000Y-109537500D03*
D11*
X209550000Y-102587500D03*
X209550000Y-116487500D03*
D10*
X216500000Y-109537500D03*
%TD*%
%TO.P,SW18,1,1*%
%TO.N,col3*%
X88300000Y-128587500D03*
D11*
X95250000Y-121637500D03*
X95250000Y-135537500D03*
D10*
X102200000Y-128587500D03*
%TD*%
%TO.P,SW53,1,1*%
%TO.N,col1*%
X221650000Y-128587500D03*
D11*
X228600000Y-121637500D03*
X228600000Y-135537500D03*
D10*
X235550000Y-128587500D03*
%TD*%
%TO.P,SW19,1,1*%
%TO.N,col3*%
X78775000Y-147637500D03*
D11*
X85725000Y-140687500D03*
X85725000Y-154587500D03*
D10*
X92675000Y-147637500D03*
%TD*%
%TO.P,SW7,1,1*%
%TO.N,col1*%
X50200000Y-109537500D03*
D11*
X57150000Y-102587500D03*
X57150000Y-116487500D03*
D10*
X64100000Y-109537500D03*
%TD*%
%TO.P,SW9,1,1*%
%TO.N,col1*%
X40675000Y-147637500D03*
D11*
X47625000Y-140687500D03*
X47625000Y-154587500D03*
D10*
X54575000Y-147637500D03*
%TD*%
%TO.P,SW14,1,1*%
%TO.N,col2*%
X59725000Y-147637500D03*
D11*
X66675000Y-140687500D03*
X66675000Y-154587500D03*
D10*
X73625000Y-147637500D03*
%TD*%
%TO.P,SW42,1,1*%
%TO.N,col3*%
X183550000Y-109537500D03*
D11*
X190500000Y-102587500D03*
X190500000Y-116487500D03*
D10*
X197450000Y-109537500D03*
%TD*%
%TO.P,SW52,1,1*%
%TO.N,col1*%
X221650000Y-109537500D03*
D11*
X228600000Y-102587500D03*
X228600000Y-116487500D03*
D10*
X235550000Y-109537500D03*
%TD*%
%TO.P,SW44,1,1*%
%TO.N,col3*%
X193075000Y-147637500D03*
D11*
X200025000Y-140687500D03*
X200025000Y-154587500D03*
D10*
X206975000Y-147637500D03*
%TD*%
%TO.P,SW21,1,1*%
%TO.N,col4*%
X107350000Y-90487500D03*
D11*
X114300000Y-83537500D03*
X114300000Y-97437500D03*
D10*
X121250000Y-90487500D03*
%TD*%
%TO.P,SW24,1,1*%
%TO.N,col4*%
X100206300Y-147637500D03*
D11*
X107156300Y-140687500D03*
X107156300Y-154587500D03*
D10*
X114106300Y-147637500D03*
%TD*%
%TO.P,SW12,1,1*%
%TO.N,col2*%
X69250000Y-109537500D03*
D11*
X76200000Y-102587500D03*
X76200000Y-116487500D03*
D10*
X83150000Y-109537500D03*
%TD*%
%TO.P,SW10,1,1*%
%TO.N,col2*%
X69250000Y-71437500D03*
D11*
X76200000Y-64487500D03*
X76200000Y-78387500D03*
D10*
X83150000Y-71437500D03*
%TD*%
%TO.P,SW37,1,1*%
%TO.N,col4*%
X164500000Y-109537500D03*
D11*
X171450000Y-102587500D03*
X171450000Y-116487500D03*
D10*
X178400000Y-109537500D03*
%TD*%
%TO.P,SW25,1,1*%
%TO.N,col5*%
X126400000Y-71437500D03*
D11*
X133350000Y-64487500D03*
X133350000Y-78387500D03*
D10*
X140300000Y-71437500D03*
%TD*%
D12*
%TO.P,R2,1*%
%TO.N,N/C*%
X165497014Y-144712624D03*
%TO.P,R2,2*%
X165497014Y-147637624D03*
%TD*%
D10*
%TO.P,SW38,1,1*%
%TO.N,col4*%
X164500000Y-128587500D03*
D11*
X171450000Y-121637500D03*
X171450000Y-135537500D03*
D10*
X178400000Y-128587500D03*
%TD*%
%TO.P,SW11,1,1*%
%TO.N,col2*%
X69250000Y-90487500D03*
D11*
X76200000Y-83537500D03*
X76200000Y-97437500D03*
D10*
X83150000Y-90487500D03*
%TD*%
%TO.P,SW58,1,1*%
%TO.N,col0*%
X240700000Y-128587500D03*
D11*
X247650000Y-121637500D03*
X247650000Y-135537500D03*
D10*
X254600000Y-128587500D03*
%TD*%
D12*
%TO.P,R1,1*%
%TO.N,N/C*%
X117871974Y-144712624D03*
%TO.P,R1,2*%
X117871974Y-147637624D03*
%TD*%
D13*
%TO.P,P1,1*%
%TO.N,N/C*%
X117871974Y-141659494D03*
D14*
%TO.P,P1,2*%
X120411974Y-141659494D03*
%TD*%
D10*
%TO.P,SW55,1,1*%
%TO.N,col0*%
X240700000Y-71437500D03*
D11*
X247650000Y-64487500D03*
X247650000Y-78387500D03*
D10*
X254600000Y-71437500D03*
%TD*%
D13*
%TO.P,P1,1*%
%TO.N,N/C*%
X165437640Y-141659494D03*
D14*
%TO.P,P1,2*%
X167977640Y-141659494D03*
%TD*%
D10*
%TO.P,SW39,1,1*%
%TO.N,col4*%
X171643800Y-147637500D03*
D11*
X178593800Y-140687500D03*
X178593800Y-154587500D03*
D10*
X185543800Y-147637500D03*
%TD*%
D15*
%TO.P,L1,1*%
%TO.N,N/C*%
X117871974Y-150018876D03*
D16*
%TO.P,L1,2*%
X120411974Y-150018876D03*
%TD*%
D10*
%TO.P,SW13,1,1*%
%TO.N,col2*%
X69250000Y-128587500D03*
D11*
X76200000Y-121637500D03*
X76200000Y-135537500D03*
D10*
X83150000Y-128587500D03*
%TD*%
%TO.P,SW29,1,1*%
%TO.N,col5*%
X124018800Y-147637500D03*
D11*
X130968800Y-140687500D03*
X130968800Y-154587500D03*
D10*
X137918800Y-147637500D03*
%TD*%
%TO.P,SW54,1,1*%
%TO.N,col1*%
X231175000Y-147637500D03*
D11*
X238125000Y-140687500D03*
X238125000Y-154587500D03*
D10*
X245075000Y-147637500D03*
%TD*%
%TO.P,SW57,1,1*%
%TO.N,col0*%
X240700000Y-109537500D03*
D11*
X247650000Y-102587500D03*
X247650000Y-116487500D03*
D10*
X254600000Y-109537500D03*
%TD*%
%TO.P,SW22,1,1*%
%TO.N,col4*%
X107350000Y-109537500D03*
D11*
X114300000Y-102587500D03*
X114300000Y-116487500D03*
D10*
X121250000Y-109537500D03*
%TD*%
%TO.P,SW46,1,1*%
%TO.N,col2*%
X202600000Y-90487500D03*
D11*
X209550000Y-83537500D03*
X209550000Y-97437500D03*
D10*
X216500000Y-90487500D03*
%TD*%
%TO.P,SW5,1,1*%
%TO.N,col1*%
X50200000Y-71437500D03*
D11*
X57150000Y-64487500D03*
X57150000Y-78387500D03*
D10*
X64100000Y-71437500D03*
%TD*%
%TO.P,SW31,1,1*%
%TO.N,col5*%
X145450000Y-90487500D03*
D11*
X152400000Y-83537500D03*
X152400000Y-97437500D03*
D10*
X159350000Y-90487500D03*
%TD*%
%TO.P,SW17,1,1*%
%TO.N,col3*%
X88300000Y-109537500D03*
D11*
X95250000Y-102587500D03*
X95250000Y-116487500D03*
D10*
X102200000Y-109537500D03*
%TD*%
%TO.P,SW2,1,1*%
%TO.N,col0*%
X31150000Y-90487500D03*
D11*
X38100000Y-83537500D03*
X38100000Y-97437500D03*
D10*
X45050000Y-90487500D03*
%TD*%
%TO.P,SW16,1,1*%
%TO.N,col3*%
X88300000Y-90487500D03*
D11*
X95250000Y-83537500D03*
X95250000Y-97437500D03*
D10*
X102200000Y-90487500D03*
%TD*%
%TO.P,SW3,1,1*%
%TO.N,col0*%
X31150000Y-109537500D03*
D11*
X38100000Y-102587500D03*
X38100000Y-116487500D03*
D10*
X45050000Y-109537500D03*
%TD*%
%TO.P,SW36,1,1*%
%TO.N,col4*%
X164500000Y-90487500D03*
D11*
X171450000Y-83537500D03*
X171450000Y-97437500D03*
D10*
X178400000Y-90487500D03*
%TD*%
%TO.P,SW1,1,1*%
%TO.N,col0*%
X31150000Y-71437500D03*
D11*
X38100000Y-64487500D03*
X38100000Y-78387500D03*
D10*
X45050000Y-71437500D03*
%TD*%
%TO.P,SW26,1,1*%
%TO.N,col5*%
X126400000Y-90487500D03*
D11*
X133350000Y-83537500D03*
X133350000Y-97437500D03*
D10*
X140300000Y-90487500D03*
%TD*%
%TO.P,SW28,1,1*%
%TO.N,col5*%
X126400000Y-128587500D03*
D11*
X133350000Y-121637500D03*
X133350000Y-135537500D03*
D10*
X140300000Y-128587500D03*
%TD*%
%TO.P,SW15,1,1*%
%TO.N,col3*%
X88300000Y-71437500D03*
D11*
X95250000Y-64487500D03*
X95250000Y-78387500D03*
D10*
X102200000Y-71437500D03*
%TD*%
%TO.P,SW45,1,1*%
%TO.N,col2*%
X202600000Y-71437500D03*
D11*
X209550000Y-64487500D03*
X209550000Y-78387500D03*
D10*
X216500000Y-71437500D03*
%TD*%
%TO.P,SW30,1,1*%
%TO.N,col5*%
X145450000Y-71437500D03*
D11*
X152400000Y-64487500D03*
X152400000Y-78387500D03*
D10*
X159350000Y-71437500D03*
%TD*%
%TO.P,SW50,1,1*%
%TO.N,col1*%
X221650000Y-71437500D03*
D11*
X228600000Y-64487500D03*
X228600000Y-78387500D03*
D10*
X235550000Y-71437500D03*
%TD*%
%TO.P,SW41,1,1*%
%TO.N,col3*%
X183550000Y-90487500D03*
D11*
X190500000Y-83537500D03*
X190500000Y-97437500D03*
D10*
X197450000Y-90487500D03*
%TD*%
%TO.P,SW8,1,1*%
%TO.N,col1*%
X50200000Y-128587500D03*
D11*
X57150000Y-121637500D03*
X57150000Y-135537500D03*
D10*
X64100000Y-128587500D03*
%TD*%
%TO.P,SW20,1,1*%
%TO.N,col4*%
X107350000Y-71437500D03*
D11*
X114300000Y-64487500D03*
X114300000Y-78387500D03*
D10*
X121250000Y-71437500D03*
%TD*%
%TO.P,SW34,1,1*%
%TO.N,col5*%
X147831300Y-147637500D03*
D11*
X154781300Y-140687500D03*
X154781300Y-154587500D03*
D10*
X161731300Y-147637500D03*
%TD*%
%TO.P,SW43,1,1*%
%TO.N,col3*%
X183550000Y-128587500D03*
D11*
X190500000Y-121637500D03*
X190500000Y-135537500D03*
D10*
X197450000Y-128587500D03*
%TD*%
%TO.P,SW6,1,1*%
%TO.N,col1*%
X50200000Y-90487500D03*
D11*
X57150000Y-83537500D03*
X57150000Y-97437500D03*
D10*
X64100000Y-90487500D03*
%TD*%
%TO.P,SW4,1,1*%
%TO.N,col0*%
X31150000Y-128587500D03*
D11*
X38100000Y-121637500D03*
X38100000Y-135537500D03*
D10*
X45050000Y-128587500D03*
%TD*%
D15*
%TO.P,L2,1*%
%TO.N,N/C*%
X165497014Y-150018876D03*
D16*
%TO.P,L2,2*%
X168037014Y-150018876D03*
%TD*%
D10*
%TO.P,SW27,1,1*%
%TO.N,col5*%
X126400000Y-109537500D03*
D11*
X133350000Y-102587500D03*
X133350000Y-116487500D03*
D10*
X140300000Y-109537500D03*
%TD*%
D17*
%TO.N,*%
X120411974Y-150018876D02*
X120411974Y-141659494D01*
X165497014Y-147637624D02*
X165497014Y-150018876D01*
X168037014Y-141718868D02*
X167977640Y-141659494D01*
X117871974Y-141659494D02*
X117871974Y-144712624D01*
X168037014Y-150018876D02*
X168037014Y-141718868D01*
X165437640Y-141659494D02*
X165437640Y-144653250D01*
X165437640Y-144653250D02*
X165497014Y-144712624D01*
X117871974Y-147637624D02*
X117871974Y-150018876D01*
%TD*%
%TA.AperFunction,Conductor*%
%TO.N,GND*%
G36*
X53017539Y-142207685D02*
G01*
X53063294Y-142260489D01*
X53074500Y-142312000D01*
X53074500Y-152963000D01*
X53054815Y-153030039D01*
X53002011Y-153075794D01*
X52950500Y-153087000D01*
X42299500Y-153087000D01*
X42232461Y-153067315D01*
X42186706Y-153014511D01*
X42175500Y-152963000D01*
X42175500Y-142312000D01*
X42195185Y-142244961D01*
X42247989Y-142199206D01*
X42299500Y-142188000D01*
X52950500Y-142188000D01*
X53017539Y-142207685D01*
G37*
%TD.AperFunction*%
%TA.AperFunction,Conductor*%
G36*
X72067539Y-142207685D02*
G01*
X72113294Y-142260489D01*
X72124500Y-142312000D01*
X72124500Y-152963000D01*
X72104815Y-153030039D01*
X72052011Y-153075794D01*
X72000500Y-153087000D01*
X61349500Y-153087000D01*
X61282461Y-153067315D01*
X61236706Y-153014511D01*
X61225500Y-152963000D01*
X61225500Y-142312000D01*
X61245185Y-142244961D01*
X61297989Y-142199206D01*
X61349500Y-142188000D01*
X72000500Y-142188000D01*
X72067539Y-142207685D01*
G37*
%TD.AperFunction*%
%TA.AperFunction,Conductor*%
G36*
X91117539Y-142207685D02*
G01*
X91163294Y-142260489D01*
X91174500Y-142312000D01*
X91174500Y-152963000D01*
X91154815Y-153030039D01*
X91102011Y-153075794D01*
X91050500Y-153087000D01*
X80399500Y-153087000D01*
X80332461Y-153067315D01*
X80286706Y-153014511D01*
X80275500Y-152963000D01*
X80275500Y-142312000D01*
X80295185Y-142244961D01*
X80347989Y-142199206D01*
X80399500Y-142188000D01*
X91050500Y-142188000D01*
X91117539Y-142207685D01*
G37*
%TD.AperFunction*%
%TA.AperFunction,Conductor*%
G36*
X112548839Y-142207685D02*
G01*
X112594594Y-142260489D01*
X112605800Y-142312000D01*
X112605800Y-152963000D01*
X112586115Y-153030039D01*
X112533311Y-153075794D01*
X112481800Y-153087000D01*
X101830800Y-153087000D01*
X101763761Y-153067315D01*
X101718006Y-153014511D01*
X101706800Y-152963000D01*
X101706800Y-142312000D01*
X101726485Y-142244961D01*
X101779289Y-142199206D01*
X101830800Y-142188000D01*
X112481800Y-142188000D01*
X112548839Y-142207685D01*
G37*
%TD.AperFunction*%
%TA.AperFunction,Conductor*%
G36*
X136361339Y-142207685D02*
G01*
X136407094Y-142260489D01*
X136418300Y-142312000D01*
X136418300Y-152963000D01*
X136398615Y-153030039D01*
X136345811Y-153075794D01*
X136294300Y-153087000D01*
X125643300Y-153087000D01*
X125576261Y-153067315D01*
X125530506Y-153014511D01*
X125519300Y-152963000D01*
X125519300Y-142312000D01*
X125538985Y-142244961D01*
X125591789Y-142199206D01*
X125643300Y-142188000D01*
X136294300Y-142188000D01*
X136361339Y-142207685D01*
G37*
%TD.AperFunction*%
%TA.AperFunction,Conductor*%
G36*
X160173839Y-142207685D02*
G01*
X160219594Y-142260489D01*
X160230800Y-142312000D01*
X160230800Y-152963000D01*
X160211115Y-153030039D01*
X160158311Y-153075794D01*
X160106800Y-153087000D01*
X149455800Y-153087000D01*
X149388761Y-153067315D01*
X149343006Y-153014511D01*
X149331800Y-152963000D01*
X149331800Y-142312000D01*
X149351485Y-142244961D01*
X149404289Y-142199206D01*
X149455800Y-142188000D01*
X160106800Y-142188000D01*
X160173839Y-142207685D01*
G37*
%TD.AperFunction*%
%TA.AperFunction,Conductor*%
G36*
X183986339Y-142207685D02*
G01*
X184032094Y-142260489D01*
X184043300Y-142312000D01*
X184043300Y-152963000D01*
X184023615Y-153030039D01*
X183970811Y-153075794D01*
X183919300Y-153087000D01*
X173268300Y-153087000D01*
X173201261Y-153067315D01*
X173155506Y-153014511D01*
X173144300Y-152963000D01*
X173144300Y-142312000D01*
X173163985Y-142244961D01*
X173216789Y-142199206D01*
X173268300Y-142188000D01*
X183919300Y-142188000D01*
X183986339Y-142207685D01*
G37*
%TD.AperFunction*%
%TA.AperFunction,Conductor*%
G36*
X205417539Y-142207685D02*
G01*
X205463294Y-142260489D01*
X205474500Y-142312000D01*
X205474500Y-152963000D01*
X205454815Y-153030039D01*
X205402011Y-153075794D01*
X205350500Y-153087000D01*
X194699500Y-153087000D01*
X194632461Y-153067315D01*
X194586706Y-153014511D01*
X194575500Y-152963000D01*
X194575500Y-142312000D01*
X194595185Y-142244961D01*
X194647989Y-142199206D01*
X194699500Y-142188000D01*
X205350500Y-142188000D01*
X205417539Y-142207685D01*
G37*
%TD.AperFunction*%
%TA.AperFunction,Conductor*%
G36*
X224467539Y-142207685D02*
G01*
X224513294Y-142260489D01*
X224524500Y-142312000D01*
X224524500Y-152963000D01*
X224504815Y-153030039D01*
X224452011Y-153075794D01*
X224400500Y-153087000D01*
X213749500Y-153087000D01*
X213682461Y-153067315D01*
X213636706Y-153014511D01*
X213625500Y-152963000D01*
X213625500Y-142312000D01*
X213645185Y-142244961D01*
X213697989Y-142199206D01*
X213749500Y-142188000D01*
X224400500Y-142188000D01*
X224467539Y-142207685D01*
G37*
%TD.AperFunction*%
%TA.AperFunction,Conductor*%
G36*
X243517539Y-142207685D02*
G01*
X243563294Y-142260489D01*
X243574500Y-142312000D01*
X243574500Y-152963000D01*
X243554815Y-153030039D01*
X243502011Y-153075794D01*
X243450500Y-153087000D01*
X232799500Y-153087000D01*
X232732461Y-153067315D01*
X232686706Y-153014511D01*
X232675500Y-152963000D01*
X232675500Y-142312000D01*
X232695185Y-142244961D01*
X232747989Y-142199206D01*
X232799500Y-142188000D01*
X243450500Y-142188000D01*
X243517539Y-142207685D01*
G37*
%TD.AperFunction*%
%TA.AperFunction,Conductor*%
G36*
X43492539Y-123157685D02*
G01*
X43538294Y-123210489D01*
X43549500Y-123262000D01*
X43549500Y-133913000D01*
X43529815Y-133980039D01*
X43477011Y-134025794D01*
X43425500Y-134037000D01*
X32774500Y-134037000D01*
X32707461Y-134017315D01*
X32661706Y-133964511D01*
X32650500Y-133913000D01*
X32650500Y-123262000D01*
X32670185Y-123194961D01*
X32722989Y-123149206D01*
X32774500Y-123138000D01*
X43425500Y-123138000D01*
X43492539Y-123157685D01*
G37*
%TD.AperFunction*%
%TA.AperFunction,Conductor*%
G36*
X62542539Y-123157685D02*
G01*
X62588294Y-123210489D01*
X62599500Y-123262000D01*
X62599500Y-133913000D01*
X62579815Y-133980039D01*
X62527011Y-134025794D01*
X62475500Y-134037000D01*
X51824500Y-134037000D01*
X51757461Y-134017315D01*
X51711706Y-133964511D01*
X51700500Y-133913000D01*
X51700500Y-123262000D01*
X51720185Y-123194961D01*
X51772989Y-123149206D01*
X51824500Y-123138000D01*
X62475500Y-123138000D01*
X62542539Y-123157685D01*
G37*
%TD.AperFunction*%
%TA.AperFunction,Conductor*%
G36*
X43492539Y-104107685D02*
G01*
X43538294Y-104160489D01*
X43549500Y-104212000D01*
X43549500Y-114863000D01*
X43529815Y-114930039D01*
X43477011Y-114975794D01*
X43425500Y-114987000D01*
X32774500Y-114987000D01*
X32707461Y-114967315D01*
X32661706Y-114914511D01*
X32650500Y-114863000D01*
X32650500Y-104212000D01*
X32670185Y-104144961D01*
X32722989Y-104099206D01*
X32774500Y-104088000D01*
X43425500Y-104088000D01*
X43492539Y-104107685D01*
G37*
%TD.AperFunction*%
%TA.AperFunction,Conductor*%
G36*
X62542539Y-104107685D02*
G01*
X62588294Y-104160489D01*
X62599500Y-104212000D01*
X62599500Y-114863000D01*
X62579815Y-114930039D01*
X62527011Y-114975794D01*
X62475500Y-114987000D01*
X51824500Y-114987000D01*
X51757461Y-114967315D01*
X51711706Y-114914511D01*
X51700500Y-114863000D01*
X51700500Y-104212000D01*
X51720185Y-104144961D01*
X51772989Y-104099206D01*
X51824500Y-104088000D01*
X62475500Y-104088000D01*
X62542539Y-104107685D01*
G37*
%TD.AperFunction*%
%TA.AperFunction,Conductor*%
G36*
X81592539Y-123157685D02*
G01*
X81638294Y-123210489D01*
X81649500Y-123262000D01*
X81649500Y-133913000D01*
X81629815Y-133980039D01*
X81577011Y-134025794D01*
X81525500Y-134037000D01*
X70874500Y-134037000D01*
X70807461Y-134017315D01*
X70761706Y-133964511D01*
X70750500Y-133913000D01*
X70750500Y-123262000D01*
X70770185Y-123194961D01*
X70822989Y-123149206D01*
X70874500Y-123138000D01*
X81525500Y-123138000D01*
X81592539Y-123157685D01*
G37*
%TD.AperFunction*%
%TA.AperFunction,Conductor*%
G36*
X100642539Y-123157685D02*
G01*
X100688294Y-123210489D01*
X100699500Y-123262000D01*
X100699500Y-133913000D01*
X100679815Y-133980039D01*
X100627011Y-134025794D01*
X100575500Y-134037000D01*
X89924500Y-134037000D01*
X89857461Y-134017315D01*
X89811706Y-133964511D01*
X89800500Y-133913000D01*
X89800500Y-123262000D01*
X89820185Y-123194961D01*
X89872989Y-123149206D01*
X89924500Y-123138000D01*
X100575500Y-123138000D01*
X100642539Y-123157685D01*
G37*
%TD.AperFunction*%
%TA.AperFunction,Conductor*%
G36*
X119692539Y-123157685D02*
G01*
X119738294Y-123210489D01*
X119749500Y-123262000D01*
X119749500Y-133913000D01*
X119729815Y-133980039D01*
X119677011Y-134025794D01*
X119625500Y-134037000D01*
X108974500Y-134037000D01*
X108907461Y-134017315D01*
X108861706Y-133964511D01*
X108850500Y-133913000D01*
X108850500Y-123262000D01*
X108870185Y-123194961D01*
X108922989Y-123149206D01*
X108974500Y-123138000D01*
X119625500Y-123138000D01*
X119692539Y-123157685D01*
G37*
%TD.AperFunction*%
%TA.AperFunction,Conductor*%
G36*
X100642539Y-104107685D02*
G01*
X100688294Y-104160489D01*
X100699500Y-104212000D01*
X100699500Y-114863000D01*
X100679815Y-114930039D01*
X100627011Y-114975794D01*
X100575500Y-114987000D01*
X89924500Y-114987000D01*
X89857461Y-114967315D01*
X89811706Y-114914511D01*
X89800500Y-114863000D01*
X89800500Y-104212000D01*
X89820185Y-104144961D01*
X89872989Y-104099206D01*
X89924500Y-104088000D01*
X100575500Y-104088000D01*
X100642539Y-104107685D01*
G37*
%TD.AperFunction*%
%TA.AperFunction,Conductor*%
G36*
X119692539Y-104107685D02*
G01*
X119738294Y-104160489D01*
X119749500Y-104212000D01*
X119749500Y-114863000D01*
X119729815Y-114930039D01*
X119677011Y-114975794D01*
X119625500Y-114987000D01*
X108974500Y-114987000D01*
X108907461Y-114967315D01*
X108861706Y-114914511D01*
X108850500Y-114863000D01*
X108850500Y-104212000D01*
X108870185Y-104144961D01*
X108922989Y-104099206D01*
X108974500Y-104088000D01*
X119625500Y-104088000D01*
X119692539Y-104107685D01*
G37*
%TD.AperFunction*%
%TA.AperFunction,Conductor*%
G36*
X138742539Y-123157685D02*
G01*
X138788294Y-123210489D01*
X138799500Y-123262000D01*
X138799500Y-133913000D01*
X138779815Y-133980039D01*
X138727011Y-134025794D01*
X138675500Y-134037000D01*
X128024500Y-134037000D01*
X127957461Y-134017315D01*
X127911706Y-133964511D01*
X127900500Y-133913000D01*
X127900500Y-123262000D01*
X127920185Y-123194961D01*
X127972989Y-123149206D01*
X128024500Y-123138000D01*
X138675500Y-123138000D01*
X138742539Y-123157685D01*
G37*
%TD.AperFunction*%
%TA.AperFunction,Conductor*%
G36*
X157792539Y-123157685D02*
G01*
X157838294Y-123210489D01*
X157849500Y-123262000D01*
X157849500Y-133913000D01*
X157829815Y-133980039D01*
X157777011Y-134025794D01*
X157725500Y-134037000D01*
X147074500Y-134037000D01*
X147007461Y-134017315D01*
X146961706Y-133964511D01*
X146950500Y-133913000D01*
X146950500Y-123262000D01*
X146970185Y-123194961D01*
X147022989Y-123149206D01*
X147074500Y-123138000D01*
X157725500Y-123138000D01*
X157792539Y-123157685D01*
G37*
%TD.AperFunction*%
%TA.AperFunction,Conductor*%
G36*
X138742539Y-104107685D02*
G01*
X138788294Y-104160489D01*
X138799500Y-104212000D01*
X138799500Y-114863000D01*
X138779815Y-114930039D01*
X138727011Y-114975794D01*
X138675500Y-114987000D01*
X128024500Y-114987000D01*
X127957461Y-114967315D01*
X127911706Y-114914511D01*
X127900500Y-114863000D01*
X127900500Y-104212000D01*
X127920185Y-104144961D01*
X127972989Y-104099206D01*
X128024500Y-104088000D01*
X138675500Y-104088000D01*
X138742539Y-104107685D01*
G37*
%TD.AperFunction*%
%TA.AperFunction,Conductor*%
G36*
X157792539Y-104107685D02*
G01*
X157838294Y-104160489D01*
X157849500Y-104212000D01*
X157849500Y-114863000D01*
X157829815Y-114930039D01*
X157777011Y-114975794D01*
X157725500Y-114987000D01*
X147074500Y-114987000D01*
X147007461Y-114967315D01*
X146961706Y-114914511D01*
X146950500Y-114863000D01*
X146950500Y-104212000D01*
X146970185Y-104144961D01*
X147022989Y-104099206D01*
X147074500Y-104088000D01*
X157725500Y-104088000D01*
X157792539Y-104107685D01*
G37*
%TD.AperFunction*%
%TA.AperFunction,Conductor*%
G36*
X176842539Y-123157685D02*
G01*
X176888294Y-123210489D01*
X176899500Y-123262000D01*
X176899500Y-133913000D01*
X176879815Y-133980039D01*
X176827011Y-134025794D01*
X176775500Y-134037000D01*
X166124500Y-134037000D01*
X166057461Y-134017315D01*
X166011706Y-133964511D01*
X166000500Y-133913000D01*
X166000500Y-123262000D01*
X166020185Y-123194961D01*
X166072989Y-123149206D01*
X166124500Y-123138000D01*
X176775500Y-123138000D01*
X176842539Y-123157685D01*
G37*
%TD.AperFunction*%
%TA.AperFunction,Conductor*%
G36*
X195892539Y-123157685D02*
G01*
X195938294Y-123210489D01*
X195949500Y-123262000D01*
X195949500Y-133913000D01*
X195929815Y-133980039D01*
X195877011Y-134025794D01*
X195825500Y-134037000D01*
X185174500Y-134037000D01*
X185107461Y-134017315D01*
X185061706Y-133964511D01*
X185050500Y-133913000D01*
X185050500Y-123262000D01*
X185070185Y-123194961D01*
X185122989Y-123149206D01*
X185174500Y-123138000D01*
X195825500Y-123138000D01*
X195892539Y-123157685D01*
G37*
%TD.AperFunction*%
%TA.AperFunction,Conductor*%
G36*
X176842539Y-104107685D02*
G01*
X176888294Y-104160489D01*
X176899500Y-104212000D01*
X176899500Y-114863000D01*
X176879815Y-114930039D01*
X176827011Y-114975794D01*
X176775500Y-114987000D01*
X166124500Y-114987000D01*
X166057461Y-114967315D01*
X166011706Y-114914511D01*
X166000500Y-114863000D01*
X166000500Y-104212000D01*
X166020185Y-104144961D01*
X166072989Y-104099206D01*
X166124500Y-104088000D01*
X176775500Y-104088000D01*
X176842539Y-104107685D01*
G37*
%TD.AperFunction*%
%TA.AperFunction,Conductor*%
G36*
X195892539Y-104107685D02*
G01*
X195938294Y-104160489D01*
X195949500Y-104212000D01*
X195949500Y-114863000D01*
X195929815Y-114930039D01*
X195877011Y-114975794D01*
X195825500Y-114987000D01*
X185174500Y-114987000D01*
X185107461Y-114967315D01*
X185061706Y-114914511D01*
X185050500Y-114863000D01*
X185050500Y-104212000D01*
X185070185Y-104144961D01*
X185122989Y-104099206D01*
X185174500Y-104088000D01*
X195825500Y-104088000D01*
X195892539Y-104107685D01*
G37*
%TD.AperFunction*%
%TA.AperFunction,Conductor*%
G36*
X214942539Y-123157685D02*
G01*
X214988294Y-123210489D01*
X214999500Y-123262000D01*
X214999500Y-133913000D01*
X214979815Y-133980039D01*
X214927011Y-134025794D01*
X214875500Y-134037000D01*
X204224500Y-134037000D01*
X204157461Y-134017315D01*
X204111706Y-133964511D01*
X204100500Y-133913000D01*
X204100500Y-123262000D01*
X204120185Y-123194961D01*
X204172989Y-123149206D01*
X204224500Y-123138000D01*
X214875500Y-123138000D01*
X214942539Y-123157685D01*
G37*
%TD.AperFunction*%
%TA.AperFunction,Conductor*%
G36*
X233992539Y-123157685D02*
G01*
X234038294Y-123210489D01*
X234049500Y-123262000D01*
X234049500Y-133913000D01*
X234029815Y-133980039D01*
X233977011Y-134025794D01*
X233925500Y-134037000D01*
X223274500Y-134037000D01*
X223207461Y-134017315D01*
X223161706Y-133964511D01*
X223150500Y-133913000D01*
X223150500Y-123262000D01*
X223170185Y-123194961D01*
X223222989Y-123149206D01*
X223274500Y-123138000D01*
X233925500Y-123138000D01*
X233992539Y-123157685D01*
G37*
%TD.AperFunction*%
%TA.AperFunction,Conductor*%
G36*
X253042539Y-123157685D02*
G01*
X253088294Y-123210489D01*
X253099500Y-123262000D01*
X253099500Y-133913000D01*
X253079815Y-133980039D01*
X253027011Y-134025794D01*
X252975500Y-134037000D01*
X242324500Y-134037000D01*
X242257461Y-134017315D01*
X242211706Y-133964511D01*
X242200500Y-133913000D01*
X242200500Y-123262000D01*
X242220185Y-123194961D01*
X242272989Y-123149206D01*
X242324500Y-123138000D01*
X252975500Y-123138000D01*
X253042539Y-123157685D01*
G37*
%TD.AperFunction*%
%TA.AperFunction,Conductor*%
G36*
X233992539Y-104107685D02*
G01*
X234038294Y-104160489D01*
X234049500Y-104212000D01*
X234049500Y-114863000D01*
X234029815Y-114930039D01*
X233977011Y-114975794D01*
X233925500Y-114987000D01*
X223274500Y-114987000D01*
X223207461Y-114967315D01*
X223161706Y-114914511D01*
X223150500Y-114863000D01*
X223150500Y-104212000D01*
X223170185Y-104144961D01*
X223222989Y-104099206D01*
X223274500Y-104088000D01*
X233925500Y-104088000D01*
X233992539Y-104107685D01*
G37*
%TD.AperFunction*%
%TA.AperFunction,Conductor*%
G36*
X253042539Y-104107685D02*
G01*
X253088294Y-104160489D01*
X253099500Y-104212000D01*
X253099500Y-114863000D01*
X253079815Y-114930039D01*
X253027011Y-114975794D01*
X252975500Y-114987000D01*
X242324500Y-114987000D01*
X242257461Y-114967315D01*
X242211706Y-114914511D01*
X242200500Y-114863000D01*
X242200500Y-104212000D01*
X242220185Y-104144961D01*
X242272989Y-104099206D01*
X242324500Y-104088000D01*
X252975500Y-104088000D01*
X253042539Y-104107685D01*
G37*
%TD.AperFunction*%
%TA.AperFunction,Conductor*%
G36*
X81592539Y-104107685D02*
G01*
X81638294Y-104160489D01*
X81649500Y-104212000D01*
X81649500Y-114863000D01*
X81629815Y-114930039D01*
X81577011Y-114975794D01*
X81525500Y-114987000D01*
X70874500Y-114987000D01*
X70807461Y-114967315D01*
X70761706Y-114914511D01*
X70750500Y-114863000D01*
X70750500Y-104212000D01*
X70770185Y-104144961D01*
X70822989Y-104099206D01*
X70874500Y-104088000D01*
X81525500Y-104088000D01*
X81592539Y-104107685D01*
G37*
%TD.AperFunction*%
%TA.AperFunction,Conductor*%
G36*
X214942539Y-104107685D02*
G01*
X214988294Y-104160489D01*
X214999500Y-104212000D01*
X214999500Y-114863000D01*
X214979815Y-114930039D01*
X214927011Y-114975794D01*
X214875500Y-114987000D01*
X204224500Y-114987000D01*
X204157461Y-114967315D01*
X204111706Y-114914511D01*
X204100500Y-114863000D01*
X204100500Y-104212000D01*
X204120185Y-104144961D01*
X204172989Y-104099206D01*
X204224500Y-104088000D01*
X214875500Y-104088000D01*
X214942539Y-104107685D01*
G37*
%TD.AperFunction*%
%TA.AperFunction,Conductor*%
G36*
X43492539Y-85057685D02*
G01*
X43538294Y-85110489D01*
X43549500Y-85162000D01*
X43549500Y-95813000D01*
X43529815Y-95880039D01*
X43477011Y-95925794D01*
X43425500Y-95937000D01*
X32774500Y-95937000D01*
X32707461Y-95917315D01*
X32661706Y-95864511D01*
X32650500Y-95813000D01*
X32650500Y-85162000D01*
X32670185Y-85094961D01*
X32722989Y-85049206D01*
X32774500Y-85038000D01*
X43425500Y-85038000D01*
X43492539Y-85057685D01*
G37*
%TD.AperFunction*%
%TA.AperFunction,Conductor*%
G36*
X62542539Y-85057685D02*
G01*
X62588294Y-85110489D01*
X62599500Y-85162000D01*
X62599500Y-95813000D01*
X62579815Y-95880039D01*
X62527011Y-95925794D01*
X62475500Y-95937000D01*
X51824500Y-95937000D01*
X51757461Y-95917315D01*
X51711706Y-95864511D01*
X51700500Y-95813000D01*
X51700500Y-85162000D01*
X51720185Y-85094961D01*
X51772989Y-85049206D01*
X51824500Y-85038000D01*
X62475500Y-85038000D01*
X62542539Y-85057685D01*
G37*
%TD.AperFunction*%
%TA.AperFunction,Conductor*%
G36*
X43492539Y-66007685D02*
G01*
X43538294Y-66060489D01*
X43549500Y-66112000D01*
X43549500Y-76763000D01*
X43529815Y-76830039D01*
X43477011Y-76875794D01*
X43425500Y-76887000D01*
X32774500Y-76887000D01*
X32707461Y-76867315D01*
X32661706Y-76814511D01*
X32650500Y-76763000D01*
X32650500Y-66112000D01*
X32670185Y-66044961D01*
X32722989Y-65999206D01*
X32774500Y-65988000D01*
X43425500Y-65988000D01*
X43492539Y-66007685D01*
G37*
%TD.AperFunction*%
%TA.AperFunction,Conductor*%
G36*
X62542539Y-66007685D02*
G01*
X62588294Y-66060489D01*
X62599500Y-66112000D01*
X62599500Y-76763000D01*
X62579815Y-76830039D01*
X62527011Y-76875794D01*
X62475500Y-76887000D01*
X51824500Y-76887000D01*
X51757461Y-76867315D01*
X51711706Y-76814511D01*
X51700500Y-76763000D01*
X51700500Y-66112000D01*
X51720185Y-66044961D01*
X51772989Y-65999206D01*
X51824500Y-65988000D01*
X62475500Y-65988000D01*
X62542539Y-66007685D01*
G37*
%TD.AperFunction*%
%TA.AperFunction,Conductor*%
G36*
X81592539Y-85057685D02*
G01*
X81638294Y-85110489D01*
X81649500Y-85162000D01*
X81649500Y-95813000D01*
X81629815Y-95880039D01*
X81577011Y-95925794D01*
X81525500Y-95937000D01*
X70874500Y-95937000D01*
X70807461Y-95917315D01*
X70761706Y-95864511D01*
X70750500Y-95813000D01*
X70750500Y-85162000D01*
X70770185Y-85094961D01*
X70822989Y-85049206D01*
X70874500Y-85038000D01*
X81525500Y-85038000D01*
X81592539Y-85057685D01*
G37*
%TD.AperFunction*%
%TA.AperFunction,Conductor*%
G36*
X100642539Y-85057685D02*
G01*
X100688294Y-85110489D01*
X100699500Y-85162000D01*
X100699500Y-95813000D01*
X100679815Y-95880039D01*
X100627011Y-95925794D01*
X100575500Y-95937000D01*
X89924500Y-95937000D01*
X89857461Y-95917315D01*
X89811706Y-95864511D01*
X89800500Y-95813000D01*
X89800500Y-85162000D01*
X89820185Y-85094961D01*
X89872989Y-85049206D01*
X89924500Y-85038000D01*
X100575500Y-85038000D01*
X100642539Y-85057685D01*
G37*
%TD.AperFunction*%
%TA.AperFunction,Conductor*%
G36*
X119692539Y-85057685D02*
G01*
X119738294Y-85110489D01*
X119749500Y-85162000D01*
X119749500Y-95813000D01*
X119729815Y-95880039D01*
X119677011Y-95925794D01*
X119625500Y-95937000D01*
X108974500Y-95937000D01*
X108907461Y-95917315D01*
X108861706Y-95864511D01*
X108850500Y-95813000D01*
X108850500Y-85162000D01*
X108870185Y-85094961D01*
X108922989Y-85049206D01*
X108974500Y-85038000D01*
X119625500Y-85038000D01*
X119692539Y-85057685D01*
G37*
%TD.AperFunction*%
%TA.AperFunction,Conductor*%
G36*
X100642539Y-66007685D02*
G01*
X100688294Y-66060489D01*
X100699500Y-66112000D01*
X100699500Y-76763000D01*
X100679815Y-76830039D01*
X100627011Y-76875794D01*
X100575500Y-76887000D01*
X89924500Y-76887000D01*
X89857461Y-76867315D01*
X89811706Y-76814511D01*
X89800500Y-76763000D01*
X89800500Y-66112000D01*
X89820185Y-66044961D01*
X89872989Y-65999206D01*
X89924500Y-65988000D01*
X100575500Y-65988000D01*
X100642539Y-66007685D01*
G37*
%TD.AperFunction*%
%TA.AperFunction,Conductor*%
G36*
X119692539Y-66007685D02*
G01*
X119738294Y-66060489D01*
X119749500Y-66112000D01*
X119749500Y-76763000D01*
X119729815Y-76830039D01*
X119677011Y-76875794D01*
X119625500Y-76887000D01*
X108974500Y-76887000D01*
X108907461Y-76867315D01*
X108861706Y-76814511D01*
X108850500Y-76763000D01*
X108850500Y-66112000D01*
X108870185Y-66044961D01*
X108922989Y-65999206D01*
X108974500Y-65988000D01*
X119625500Y-65988000D01*
X119692539Y-66007685D01*
G37*
%TD.AperFunction*%
%TA.AperFunction,Conductor*%
G36*
X138742539Y-85057685D02*
G01*
X138788294Y-85110489D01*
X138799500Y-85162000D01*
X138799500Y-95813000D01*
X138779815Y-95880039D01*
X138727011Y-95925794D01*
X138675500Y-95937000D01*
X128024500Y-95937000D01*
X127957461Y-95917315D01*
X127911706Y-95864511D01*
X127900500Y-95813000D01*
X127900500Y-85162000D01*
X127920185Y-85094961D01*
X127972989Y-85049206D01*
X128024500Y-85038000D01*
X138675500Y-85038000D01*
X138742539Y-85057685D01*
G37*
%TD.AperFunction*%
%TA.AperFunction,Conductor*%
G36*
X157792539Y-85057685D02*
G01*
X157838294Y-85110489D01*
X157849500Y-85162000D01*
X157849500Y-95813000D01*
X157829815Y-95880039D01*
X157777011Y-95925794D01*
X157725500Y-95937000D01*
X147074500Y-95937000D01*
X147007461Y-95917315D01*
X146961706Y-95864511D01*
X146950500Y-95813000D01*
X146950500Y-85162000D01*
X146970185Y-85094961D01*
X147022989Y-85049206D01*
X147074500Y-85038000D01*
X157725500Y-85038000D01*
X157792539Y-85057685D01*
G37*
%TD.AperFunction*%
%TA.AperFunction,Conductor*%
G36*
X138742539Y-66007685D02*
G01*
X138788294Y-66060489D01*
X138799500Y-66112000D01*
X138799500Y-76763000D01*
X138779815Y-76830039D01*
X138727011Y-76875794D01*
X138675500Y-76887000D01*
X128024500Y-76887000D01*
X127957461Y-76867315D01*
X127911706Y-76814511D01*
X127900500Y-76763000D01*
X127900500Y-66112000D01*
X127920185Y-66044961D01*
X127972989Y-65999206D01*
X128024500Y-65988000D01*
X138675500Y-65988000D01*
X138742539Y-66007685D01*
G37*
%TD.AperFunction*%
%TA.AperFunction,Conductor*%
G36*
X157792539Y-66007685D02*
G01*
X157838294Y-66060489D01*
X157849500Y-66112000D01*
X157849500Y-76763000D01*
X157829815Y-76830039D01*
X157777011Y-76875794D01*
X157725500Y-76887000D01*
X147074500Y-76887000D01*
X147007461Y-76867315D01*
X146961706Y-76814511D01*
X146950500Y-76763000D01*
X146950500Y-66112000D01*
X146970185Y-66044961D01*
X147022989Y-65999206D01*
X147074500Y-65988000D01*
X157725500Y-65988000D01*
X157792539Y-66007685D01*
G37*
%TD.AperFunction*%
%TA.AperFunction,Conductor*%
G36*
X176842539Y-85057685D02*
G01*
X176888294Y-85110489D01*
X176899500Y-85162000D01*
X176899500Y-95813000D01*
X176879815Y-95880039D01*
X176827011Y-95925794D01*
X176775500Y-95937000D01*
X166124500Y-95937000D01*
X166057461Y-95917315D01*
X166011706Y-95864511D01*
X166000500Y-95813000D01*
X166000500Y-85162000D01*
X166020185Y-85094961D01*
X166072989Y-85049206D01*
X166124500Y-85038000D01*
X176775500Y-85038000D01*
X176842539Y-85057685D01*
G37*
%TD.AperFunction*%
%TA.AperFunction,Conductor*%
G36*
X195892539Y-85057685D02*
G01*
X195938294Y-85110489D01*
X195949500Y-85162000D01*
X195949500Y-95813000D01*
X195929815Y-95880039D01*
X195877011Y-95925794D01*
X195825500Y-95937000D01*
X185174500Y-95937000D01*
X185107461Y-95917315D01*
X185061706Y-95864511D01*
X185050500Y-95813000D01*
X185050500Y-85162000D01*
X185070185Y-85094961D01*
X185122989Y-85049206D01*
X185174500Y-85038000D01*
X195825500Y-85038000D01*
X195892539Y-85057685D01*
G37*
%TD.AperFunction*%
%TA.AperFunction,Conductor*%
G36*
X176842539Y-66007685D02*
G01*
X176888294Y-66060489D01*
X176899500Y-66112000D01*
X176899500Y-76763000D01*
X176879815Y-76830039D01*
X176827011Y-76875794D01*
X176775500Y-76887000D01*
X166124500Y-76887000D01*
X166057461Y-76867315D01*
X166011706Y-76814511D01*
X166000500Y-76763000D01*
X166000500Y-66112000D01*
X166020185Y-66044961D01*
X166072989Y-65999206D01*
X166124500Y-65988000D01*
X176775500Y-65988000D01*
X176842539Y-66007685D01*
G37*
%TD.AperFunction*%
%TA.AperFunction,Conductor*%
G36*
X195892539Y-66007685D02*
G01*
X195938294Y-66060489D01*
X195949500Y-66112000D01*
X195949500Y-76763000D01*
X195929815Y-76830039D01*
X195877011Y-76875794D01*
X195825500Y-76887000D01*
X185174500Y-76887000D01*
X185107461Y-76867315D01*
X185061706Y-76814511D01*
X185050500Y-76763000D01*
X185050500Y-66112000D01*
X185070185Y-66044961D01*
X185122989Y-65999206D01*
X185174500Y-65988000D01*
X195825500Y-65988000D01*
X195892539Y-66007685D01*
G37*
%TD.AperFunction*%
%TA.AperFunction,Conductor*%
G36*
X214942539Y-85057685D02*
G01*
X214988294Y-85110489D01*
X214999500Y-85162000D01*
X214999500Y-95813000D01*
X214979815Y-95880039D01*
X214927011Y-95925794D01*
X214875500Y-95937000D01*
X204224500Y-95937000D01*
X204157461Y-95917315D01*
X204111706Y-95864511D01*
X204100500Y-95813000D01*
X204100500Y-85162000D01*
X204120185Y-85094961D01*
X204172989Y-85049206D01*
X204224500Y-85038000D01*
X214875500Y-85038000D01*
X214942539Y-85057685D01*
G37*
%TD.AperFunction*%
%TA.AperFunction,Conductor*%
G36*
X233992539Y-85057685D02*
G01*
X234038294Y-85110489D01*
X234049500Y-85162000D01*
X234049500Y-95813000D01*
X234029815Y-95880039D01*
X233977011Y-95925794D01*
X233925500Y-95937000D01*
X223274500Y-95937000D01*
X223207461Y-95917315D01*
X223161706Y-95864511D01*
X223150500Y-95813000D01*
X223150500Y-85162000D01*
X223170185Y-85094961D01*
X223222989Y-85049206D01*
X223274500Y-85038000D01*
X233925500Y-85038000D01*
X233992539Y-85057685D01*
G37*
%TD.AperFunction*%
%TA.AperFunction,Conductor*%
G36*
X253042539Y-85057685D02*
G01*
X253088294Y-85110489D01*
X253099500Y-85162000D01*
X253099500Y-95813000D01*
X253079815Y-95880039D01*
X253027011Y-95925794D01*
X252975500Y-95937000D01*
X242324500Y-95937000D01*
X242257461Y-95917315D01*
X242211706Y-95864511D01*
X242200500Y-95813000D01*
X242200500Y-85162000D01*
X242220185Y-85094961D01*
X242272989Y-85049206D01*
X242324500Y-85038000D01*
X252975500Y-85038000D01*
X253042539Y-85057685D01*
G37*
%TD.AperFunction*%
%TA.AperFunction,Conductor*%
G36*
X233992539Y-66007685D02*
G01*
X234038294Y-66060489D01*
X234049500Y-66112000D01*
X234049500Y-76763000D01*
X234029815Y-76830039D01*
X233977011Y-76875794D01*
X233925500Y-76887000D01*
X223274500Y-76887000D01*
X223207461Y-76867315D01*
X223161706Y-76814511D01*
X223150500Y-76763000D01*
X223150500Y-66112000D01*
X223170185Y-66044961D01*
X223222989Y-65999206D01*
X223274500Y-65988000D01*
X233925500Y-65988000D01*
X233992539Y-66007685D01*
G37*
%TD.AperFunction*%
%TA.AperFunction,Conductor*%
G36*
X253042539Y-66007685D02*
G01*
X253088294Y-66060489D01*
X253099500Y-66112000D01*
X253099500Y-76763000D01*
X253079815Y-76830039D01*
X253027011Y-76875794D01*
X252975500Y-76887000D01*
X242324500Y-76887000D01*
X242257461Y-76867315D01*
X242211706Y-76814511D01*
X242200500Y-76763000D01*
X242200500Y-66112000D01*
X242220185Y-66044961D01*
X242272989Y-65999206D01*
X242324500Y-65988000D01*
X252975500Y-65988000D01*
X253042539Y-66007685D01*
G37*
%TD.AperFunction*%
%TA.AperFunction,Conductor*%
G36*
X81592539Y-66007685D02*
G01*
X81638294Y-66060489D01*
X81649500Y-66112000D01*
X81649500Y-76763000D01*
X81629815Y-76830039D01*
X81577011Y-76875794D01*
X81525500Y-76887000D01*
X70874500Y-76887000D01*
X70807461Y-76867315D01*
X70761706Y-76814511D01*
X70750500Y-76763000D01*
X70750500Y-66112000D01*
X70770185Y-66044961D01*
X70822989Y-65999206D01*
X70874500Y-65988000D01*
X81525500Y-65988000D01*
X81592539Y-66007685D01*
G37*
%TD.AperFunction*%
%TA.AperFunction,Conductor*%
G36*
X214942539Y-66007685D02*
G01*
X214988294Y-66060489D01*
X214999500Y-66112000D01*
X214999500Y-76763000D01*
X214979815Y-76830039D01*
X214927011Y-76875794D01*
X214875500Y-76887000D01*
X204224500Y-76887000D01*
X204157461Y-76867315D01*
X204111706Y-76814511D01*
X204100500Y-76763000D01*
X204100500Y-66112000D01*
X204120185Y-66044961D01*
X204172989Y-65999206D01*
X204224500Y-65988000D01*
X214875500Y-65988000D01*
X214942539Y-66007685D01*
G37*
%TD.AperFunction*%
%TA.AperFunction,Conductor*%
G36*
X256181061Y-62213597D02*
G01*
X256299317Y-62225244D01*
X256323145Y-62229983D01*
X256431005Y-62262702D01*
X256453453Y-62272001D01*
X256552849Y-62325129D01*
X256573059Y-62338633D01*
X256660179Y-62410130D01*
X256677369Y-62427320D01*
X256748866Y-62514440D01*
X256762370Y-62534650D01*
X256815495Y-62634038D01*
X256824798Y-62656497D01*
X256857514Y-62764348D01*
X256862256Y-62788188D01*
X256873903Y-62906437D01*
X256874500Y-62918592D01*
X256874500Y-137106407D01*
X256873903Y-137118561D01*
X256873903Y-137118562D01*
X256862256Y-137236811D01*
X256857514Y-137260651D01*
X256824798Y-137368502D01*
X256815495Y-137390961D01*
X256762370Y-137490349D01*
X256748866Y-137510559D01*
X256677369Y-137597679D01*
X256660179Y-137614869D01*
X256573059Y-137686366D01*
X256552849Y-137699870D01*
X256453461Y-137752995D01*
X256431002Y-137762298D01*
X256323151Y-137795014D01*
X256299311Y-137799756D01*
X256212215Y-137808334D01*
X256181060Y-137811403D01*
X256168907Y-137812000D01*
X248697595Y-137812000D01*
X248650000Y-137812000D01*
X248547648Y-137812000D01*
X248523329Y-137815851D01*
X248345465Y-137844022D01*
X248150776Y-137907281D01*
X247968386Y-138000215D01*
X247802786Y-138120528D01*
X247658028Y-138265286D01*
X247537715Y-138430886D01*
X247444781Y-138613276D01*
X247381522Y-138807965D01*
X247349500Y-139010148D01*
X247349500Y-156156407D01*
X247348903Y-156168561D01*
X247348903Y-156168562D01*
X247337256Y-156286811D01*
X247332514Y-156310651D01*
X247299798Y-156418502D01*
X247290495Y-156440961D01*
X247237370Y-156540349D01*
X247223866Y-156560559D01*
X247152369Y-156647679D01*
X247135179Y-156664869D01*
X247048059Y-156736366D01*
X247027849Y-156749870D01*
X246928461Y-156802995D01*
X246906002Y-156812298D01*
X246798151Y-156845014D01*
X246774311Y-156849756D01*
X246687215Y-156858334D01*
X246656060Y-156861403D01*
X246643907Y-156862000D01*
X39106093Y-156862000D01*
X39093939Y-156861403D01*
X39043081Y-156856393D01*
X38975688Y-156849756D01*
X38951848Y-156845014D01*
X38843997Y-156812298D01*
X38821541Y-156802996D01*
X38722150Y-156749870D01*
X38701940Y-156736366D01*
X38614820Y-156664869D01*
X38597630Y-156647679D01*
X38526133Y-156560559D01*
X38512629Y-156540349D01*
X38473441Y-156467034D01*
X38459501Y-156440953D01*
X38450201Y-156418502D01*
X38417483Y-156310645D01*
X38412744Y-156286817D01*
X38401097Y-156168561D01*
X38400500Y-156156407D01*
X38400500Y-140569402D01*
X39174500Y-140569402D01*
X39174500Y-154705597D01*
X39211446Y-154938868D01*
X39284433Y-155163496D01*
X39391657Y-155373933D01*
X39530483Y-155565010D01*
X39697490Y-155732017D01*
X39888567Y-155870843D01*
X39987991Y-155921502D01*
X40099003Y-155978066D01*
X40099005Y-155978066D01*
X40099008Y-155978068D01*
X40219412Y-156017189D01*
X40323631Y-156051053D01*
X40556903Y-156088000D01*
X40556908Y-156088000D01*
X54693097Y-156088000D01*
X54926368Y-156051053D01*
X55150992Y-155978068D01*
X55361433Y-155870843D01*
X55552510Y-155732017D01*
X55719517Y-155565010D01*
X55858343Y-155373933D01*
X55965568Y-155163492D01*
X56038553Y-154938868D01*
X56075500Y-154705597D01*
X56075500Y-140569402D01*
X58224500Y-140569402D01*
X58224500Y-154705597D01*
X58261446Y-154938868D01*
X58334433Y-155163496D01*
X58441657Y-155373933D01*
X58580483Y-155565010D01*
X58747490Y-155732017D01*
X58938567Y-155870843D01*
X59037991Y-155921502D01*
X59149003Y-155978066D01*
X59149005Y-155978066D01*
X59149008Y-155978068D01*
X59269412Y-156017189D01*
X59373631Y-156051053D01*
X59606903Y-156088000D01*
X59606908Y-156088000D01*
X73743097Y-156088000D01*
X73976368Y-156051053D01*
X74200992Y-155978068D01*
X74411433Y-155870843D01*
X74602510Y-155732017D01*
X74769517Y-155565010D01*
X74908343Y-155373933D01*
X75015568Y-155163492D01*
X75088553Y-154938868D01*
X75125500Y-154705597D01*
X75125500Y-140569402D01*
X77274500Y-140569402D01*
X77274500Y-154705597D01*
X77311446Y-154938868D01*
X77384433Y-155163496D01*
X77491657Y-155373933D01*
X77630483Y-155565010D01*
X77797490Y-155732017D01*
X77988567Y-155870843D01*
X78087991Y-155921502D01*
X78199003Y-155978066D01*
X78199005Y-155978066D01*
X78199008Y-155978068D01*
X78319412Y-156017189D01*
X78423631Y-156051053D01*
X78656903Y-156088000D01*
X78656908Y-156088000D01*
X92793097Y-156088000D01*
X93026368Y-156051053D01*
X93250992Y-155978068D01*
X93461433Y-155870843D01*
X93652510Y-155732017D01*
X93819517Y-155565010D01*
X93958343Y-155373933D01*
X94065568Y-155163492D01*
X94138553Y-154938868D01*
X94175500Y-154705597D01*
X94175500Y-142938469D01*
X94195185Y-142871430D01*
X94247989Y-142825675D01*
X94317147Y-142815731D01*
X94380196Y-142844320D01*
X95441700Y-143754181D01*
X96050033Y-143762514D01*
X97266698Y-143779181D01*
X97266698Y-143779180D01*
X97266700Y-143779181D01*
X98507158Y-142844065D01*
X98572538Y-142819430D01*
X98640861Y-142834053D01*
X98690432Y-142883292D01*
X98705800Y-142943084D01*
X98705800Y-154705597D01*
X98742746Y-154938868D01*
X98815733Y-155163496D01*
X98922957Y-155373933D01*
X99061783Y-155565010D01*
X99228790Y-155732017D01*
X99419867Y-155870843D01*
X99519291Y-155921502D01*
X99630303Y-155978066D01*
X99630305Y-155978066D01*
X99630308Y-155978068D01*
X99750712Y-156017189D01*
X99854931Y-156051053D01*
X100088203Y-156088000D01*
X100088208Y-156088000D01*
X114224397Y-156088000D01*
X114457668Y-156051053D01*
X114682292Y-155978068D01*
X114892733Y-155870843D01*
X115083810Y-155732017D01*
X115250817Y-155565010D01*
X115389643Y-155373933D01*
X115496868Y-155163492D01*
X115569853Y-154938868D01*
X115606800Y-154705597D01*
X115606800Y-149071011D01*
X116471474Y-149071011D01*
X116471474Y-150966746D01*
X116471475Y-150966752D01*
X116477882Y-151026359D01*
X116528176Y-151161204D01*
X116528180Y-151161211D01*
X116614426Y-151276420D01*
X116614429Y-151276423D01*
X116729638Y-151362669D01*
X116729645Y-151362673D01*
X116864491Y-151412967D01*
X116864490Y-151412967D01*
X116871418Y-151413711D01*
X116924101Y-151419376D01*
X118819846Y-151419375D01*
X118879457Y-151412967D01*
X119014305Y-151362672D01*
X119129520Y-151276422D01*
X119215770Y-151161207D01*
X119243403Y-151087119D01*
X119245575Y-151081296D01*
X119287445Y-151025362D01*
X119352910Y-151000944D01*
X119421183Y-151015795D01*
X119449438Y-151036947D01*
X119499610Y-151087119D01*
X119499615Y-151087123D01*
X119601577Y-151161202D01*
X119677952Y-151216691D01*
X119806349Y-151282113D01*
X119874367Y-151316771D01*
X119874370Y-151316772D01*
X119979195Y-151350831D01*
X120084023Y-151384891D01*
X120301752Y-151419376D01*
X120301753Y-151419376D01*
X120522195Y-151419376D01*
X120522196Y-151419376D01*
X120739925Y-151384891D01*
X120949580Y-151316771D01*
X121145996Y-151216691D01*
X121324339Y-151087118D01*
X121480216Y-150931241D01*
X121609789Y-150752898D01*
X121709869Y-150556482D01*
X121777989Y-150346827D01*
X121812474Y-150129098D01*
X121812474Y-149908654D01*
X121777989Y-149690925D01*
X121709869Y-149481270D01*
X121709869Y-149481269D01*
X121675211Y-149413251D01*
X121609789Y-149284854D01*
X121551475Y-149204591D01*
X121480221Y-149106517D01*
X121480217Y-149106512D01*
X121324337Y-148950632D01*
X121324332Y-148950628D01*
X121145997Y-148821061D01*
X121105178Y-148800262D01*
X121054382Y-148752287D01*
X121037474Y-148689778D01*
X121037474Y-142932474D01*
X121057159Y-142865435D01*
X121105182Y-142821988D01*
X121110203Y-142819430D01*
X121119790Y-142814545D01*
X121119789Y-142814545D01*
X121119792Y-142814544D01*
X121291760Y-142689603D01*
X121291762Y-142689600D01*
X121291766Y-142689598D01*
X121442078Y-142539286D01*
X121442080Y-142539282D01*
X121442083Y-142539280D01*
X121567022Y-142367314D01*
X121567021Y-142367314D01*
X121567025Y-142367310D01*
X121663531Y-142177906D01*
X121729220Y-141975737D01*
X121762474Y-141765781D01*
X121762474Y-141553207D01*
X121729220Y-141343251D01*
X121663531Y-141141082D01*
X121567025Y-140951678D01*
X121567023Y-140951675D01*
X121567022Y-140951673D01*
X121442083Y-140779707D01*
X121291760Y-140629384D01*
X121209201Y-140569402D01*
X122518300Y-140569402D01*
X122518300Y-154705597D01*
X122555246Y-154938868D01*
X122628233Y-155163496D01*
X122735457Y-155373933D01*
X122874283Y-155565010D01*
X123041290Y-155732017D01*
X123232367Y-155870843D01*
X123331791Y-155921502D01*
X123442803Y-155978066D01*
X123442805Y-155978066D01*
X123442808Y-155978068D01*
X123563212Y-156017189D01*
X123667431Y-156051053D01*
X123900703Y-156088000D01*
X123900708Y-156088000D01*
X138036897Y-156088000D01*
X138270168Y-156051053D01*
X138494792Y-155978068D01*
X138705233Y-155870843D01*
X138896310Y-155732017D01*
X139063317Y-155565010D01*
X139202143Y-155373933D01*
X139309368Y-155163492D01*
X139382353Y-154938868D01*
X139419300Y-154705597D01*
X139419300Y-147635190D01*
X140152780Y-147635190D01*
X140152780Y-147635195D01*
X140502779Y-149085192D01*
X140502780Y-149085194D01*
X141902780Y-150285194D01*
X142511113Y-150293527D01*
X143727778Y-150310194D01*
X143727778Y-150310193D01*
X143727780Y-150310194D01*
X145352780Y-149085194D01*
X145410581Y-148557759D01*
X145552780Y-147260197D01*
X145552779Y-147260196D01*
X145552780Y-147260194D01*
X145177780Y-145885194D01*
X145177779Y-145885193D01*
X143602781Y-144935194D01*
X143602780Y-144935194D01*
X141827780Y-144935194D01*
X140627779Y-146035194D01*
X140627778Y-146035195D01*
X140152780Y-147635190D01*
X139419300Y-147635190D01*
X139419300Y-140569402D01*
X146330800Y-140569402D01*
X146330800Y-154705597D01*
X146367746Y-154938868D01*
X146440733Y-155163496D01*
X146547957Y-155373933D01*
X146686783Y-155565010D01*
X146853790Y-155732017D01*
X147044867Y-155870843D01*
X147144291Y-155921502D01*
X147255303Y-155978066D01*
X147255305Y-155978066D01*
X147255308Y-155978068D01*
X147375712Y-156017189D01*
X147479931Y-156051053D01*
X147713203Y-156088000D01*
X147713208Y-156088000D01*
X161849397Y-156088000D01*
X162082668Y-156051053D01*
X162307292Y-155978068D01*
X162517733Y-155870843D01*
X162708810Y-155732017D01*
X162875817Y-155565010D01*
X163014643Y-155373933D01*
X163121868Y-155163492D01*
X163194853Y-154938868D01*
X163231800Y-154705597D01*
X163231800Y-140761629D01*
X164087140Y-140761629D01*
X164087140Y-142557364D01*
X164087141Y-142557370D01*
X164093548Y-142616977D01*
X164143842Y-142751822D01*
X164143846Y-142751829D01*
X164230092Y-142867038D01*
X164230095Y-142867041D01*
X164345304Y-142953287D01*
X164345311Y-142953291D01*
X164370608Y-142962726D01*
X164480157Y-143003585D01*
X164539767Y-143009994D01*
X164688140Y-143009993D01*
X164755179Y-143029677D01*
X164800934Y-143082481D01*
X164812140Y-143133993D01*
X164812140Y-143539968D01*
X164792455Y-143607007D01*
X164739651Y-143652762D01*
X164725466Y-143657461D01*
X164725644Y-143657996D01*
X164719219Y-143660124D01*
X164719217Y-143660125D01*
X164608872Y-143696689D01*
X164552682Y-143715309D01*
X164552677Y-143715311D01*
X164403356Y-143807413D01*
X164279303Y-143931466D01*
X164187201Y-144080787D01*
X164187200Y-144080790D01*
X164132015Y-144247327D01*
X164132015Y-144247328D01*
X164132014Y-144247328D01*
X164121514Y-144350107D01*
X164121514Y-145075125D01*
X164121515Y-145075143D01*
X164132014Y-145177920D01*
X164132015Y-145177923D01*
X164187199Y-145344455D01*
X164187200Y-145344458D01*
X164279302Y-145493780D01*
X164403358Y-145617836D01*
X164552680Y-145709938D01*
X164719217Y-145765123D01*
X164822005Y-145775624D01*
X166172022Y-145775623D01*
X166274811Y-145765123D01*
X166441348Y-145709938D01*
X166590670Y-145617836D01*
X166714726Y-145493780D01*
X166806828Y-145344458D01*
X166862013Y-145177921D01*
X166872514Y-145075133D01*
X166872513Y-144350116D01*
X166862013Y-144247327D01*
X166806828Y-144080790D01*
X166714726Y-143931468D01*
X166590670Y-143807412D01*
X166441348Y-143715310D01*
X166274811Y-143660125D01*
X166274808Y-143660124D01*
X166174537Y-143649880D01*
X166109845Y-143623483D01*
X166069694Y-143566302D01*
X166063140Y-143526522D01*
X166063140Y-143133993D01*
X166082825Y-143066954D01*
X166135629Y-143021199D01*
X166187140Y-143009993D01*
X166335511Y-143009993D01*
X166335512Y-143009993D01*
X166395123Y-143003585D01*
X166529971Y-142953290D01*
X166645186Y-142867040D01*
X166731436Y-142751825D01*
X166780450Y-142620410D01*
X166822321Y-142564478D01*
X166887785Y-142540060D01*
X166956058Y-142554911D01*
X166984313Y-142576063D01*
X167097853Y-142689603D01*
X167241649Y-142794075D01*
X167269824Y-142814545D01*
X167343808Y-142852241D01*
X167394604Y-142900215D01*
X167411514Y-142962726D01*
X167411514Y-148689778D01*
X167391829Y-148756817D01*
X167343810Y-148800262D01*
X167302990Y-148821061D01*
X167124655Y-148950628D01*
X167124650Y-148950632D01*
X167074477Y-149000805D01*
X167013154Y-149034289D01*
X166943462Y-149029304D01*
X166887529Y-148987433D01*
X166870615Y-148956456D01*
X166840811Y-148876547D01*
X166840807Y-148876540D01*
X166789137Y-148807519D01*
X166754560Y-148761330D01*
X166650436Y-148683383D01*
X166608567Y-148627451D01*
X166603583Y-148557759D01*
X166637065Y-148496440D01*
X166714726Y-148418780D01*
X166806828Y-148269458D01*
X166862013Y-148102921D01*
X166872514Y-148000133D01*
X166872513Y-147275116D01*
X166862013Y-147172327D01*
X166806828Y-147005790D01*
X166714726Y-146856468D01*
X166590670Y-146732412D01*
X166441348Y-146640310D01*
X166274811Y-146585125D01*
X166274809Y-146585124D01*
X166172024Y-146574624D01*
X164822012Y-146574624D01*
X164821995Y-146574625D01*
X164719217Y-146585124D01*
X164719214Y-146585125D01*
X164552682Y-146640309D01*
X164552677Y-146640311D01*
X164403356Y-146732413D01*
X164279303Y-146856466D01*
X164187201Y-147005787D01*
X164187200Y-147005790D01*
X164132015Y-147172327D01*
X164132015Y-147172328D01*
X164132014Y-147172328D01*
X164121514Y-147275107D01*
X164121514Y-148000125D01*
X164121515Y-148000143D01*
X164132014Y-148102920D01*
X164132015Y-148102923D01*
X164187199Y-148269455D01*
X164187201Y-148269460D01*
X164279303Y-148418781D01*
X164356959Y-148496437D01*
X164390444Y-148557760D01*
X164385460Y-148627452D01*
X164343589Y-148683384D01*
X164239469Y-148761328D01*
X164239466Y-148761331D01*
X164153220Y-148876540D01*
X164153216Y-148876547D01*
X164102922Y-149011393D01*
X164096515Y-149070992D01*
X164096514Y-149071011D01*
X164096514Y-150966746D01*
X164096515Y-150966752D01*
X164102922Y-151026359D01*
X164153216Y-151161204D01*
X164153220Y-151161211D01*
X164239466Y-151276420D01*
X164239469Y-151276423D01*
X164354678Y-151362669D01*
X164354685Y-151362673D01*
X164489531Y-151412967D01*
X164489530Y-151412967D01*
X164496458Y-151413711D01*
X164549141Y-151419376D01*
X166444886Y-151419375D01*
X166504497Y-151412967D01*
X166639345Y-151362672D01*
X166754560Y-151276422D01*
X166840810Y-151161207D01*
X166868443Y-151087119D01*
X166870615Y-151081296D01*
X166912485Y-151025362D01*
X166977950Y-151000944D01*
X167046223Y-151015795D01*
X167074478Y-151036947D01*
X167124650Y-151087119D01*
X167124655Y-151087123D01*
X167226617Y-151161202D01*
X167302992Y-151216691D01*
X167431389Y-151282113D01*
X167499407Y-151316771D01*
X167499410Y-151316772D01*
X167604235Y-151350831D01*
X167709063Y-151384891D01*
X167926792Y-151419376D01*
X167926793Y-151419376D01*
X168147235Y-151419376D01*
X168147236Y-151419376D01*
X168364965Y-151384891D01*
X168574620Y-151316771D01*
X168771036Y-151216691D01*
X168949379Y-151087118D01*
X169105256Y-150931241D01*
X169234829Y-150752898D01*
X169334909Y-150556482D01*
X169403029Y-150346827D01*
X169437514Y-150129098D01*
X169437514Y-149908654D01*
X169403029Y-149690925D01*
X169334909Y-149481270D01*
X169334909Y-149481269D01*
X169300251Y-149413251D01*
X169234829Y-149284854D01*
X169176515Y-149204591D01*
X169105261Y-149106517D01*
X169105257Y-149106512D01*
X168949377Y-148950632D01*
X168949372Y-148950628D01*
X168771037Y-148821061D01*
X168730218Y-148800262D01*
X168679422Y-148752287D01*
X168662514Y-148689778D01*
X168662514Y-142894394D01*
X168682199Y-142827355D01*
X168713628Y-142794076D01*
X168857432Y-142689598D01*
X169007744Y-142539286D01*
X169007746Y-142539282D01*
X169007749Y-142539280D01*
X169132688Y-142367314D01*
X169132687Y-142367314D01*
X169132691Y-142367310D01*
X169229197Y-142177906D01*
X169294886Y-141975737D01*
X169328140Y-141765781D01*
X169328140Y-141553207D01*
X169294886Y-141343251D01*
X169229197Y-141141082D01*
X169132691Y-140951678D01*
X169132689Y-140951675D01*
X169132688Y-140951673D01*
X169007749Y-140779707D01*
X168857426Y-140629384D01*
X168774867Y-140569402D01*
X170143300Y-140569402D01*
X170143300Y-154705597D01*
X170180246Y-154938868D01*
X170253233Y-155163496D01*
X170360457Y-155373933D01*
X170499283Y-155565010D01*
X170666290Y-155732017D01*
X170857367Y-155870843D01*
X170956791Y-155921502D01*
X171067803Y-155978066D01*
X171067805Y-155978066D01*
X171067808Y-155978068D01*
X171188212Y-156017189D01*
X171292431Y-156051053D01*
X171525703Y-156088000D01*
X171525708Y-156088000D01*
X185661897Y-156088000D01*
X185895168Y-156051053D01*
X186119792Y-155978068D01*
X186330233Y-155870843D01*
X186521310Y-155732017D01*
X186688317Y-155565010D01*
X186827143Y-155373933D01*
X186934368Y-155163492D01*
X187007353Y-154938868D01*
X187044300Y-154705597D01*
X187044300Y-142876099D01*
X187063985Y-142809060D01*
X187116789Y-142763305D01*
X187185947Y-142753361D01*
X187248996Y-142781950D01*
X188302780Y-143685194D01*
X188911113Y-143693527D01*
X190127778Y-143710194D01*
X190127778Y-143710193D01*
X190127780Y-143710194D01*
X191375856Y-142769335D01*
X191441238Y-142744699D01*
X191509561Y-142759322D01*
X191559132Y-142808561D01*
X191574500Y-142868353D01*
X191574500Y-154705597D01*
X191611446Y-154938868D01*
X191684433Y-155163496D01*
X191791657Y-155373933D01*
X191930483Y-155565010D01*
X192097490Y-155732017D01*
X192288567Y-155870843D01*
X192387991Y-155921502D01*
X192499003Y-155978066D01*
X192499005Y-155978066D01*
X192499008Y-155978068D01*
X192619412Y-156017189D01*
X192723631Y-156051053D01*
X192956903Y-156088000D01*
X192956908Y-156088000D01*
X207093097Y-156088000D01*
X207326368Y-156051053D01*
X207550992Y-155978068D01*
X207761433Y-155870843D01*
X207952510Y-155732017D01*
X208119517Y-155565010D01*
X208258343Y-155373933D01*
X208365568Y-155163492D01*
X208438553Y-154938868D01*
X208475500Y-154705597D01*
X208475500Y-140569402D01*
X210624500Y-140569402D01*
X210624500Y-154705597D01*
X210661446Y-154938868D01*
X210734433Y-155163496D01*
X210841657Y-155373933D01*
X210980483Y-155565010D01*
X211147490Y-155732017D01*
X211338567Y-155870843D01*
X211437991Y-155921502D01*
X211549003Y-155978066D01*
X211549005Y-155978066D01*
X211549008Y-155978068D01*
X211669412Y-156017189D01*
X211773631Y-156051053D01*
X212006903Y-156088000D01*
X212006908Y-156088000D01*
X226143097Y-156088000D01*
X226376368Y-156051053D01*
X226600992Y-155978068D01*
X226811433Y-155870843D01*
X227002510Y-155732017D01*
X227169517Y-155565010D01*
X227308343Y-155373933D01*
X227415568Y-155163492D01*
X227488553Y-154938868D01*
X227525500Y-154705597D01*
X227525500Y-140569402D01*
X229674500Y-140569402D01*
X229674500Y-154705597D01*
X229711446Y-154938868D01*
X229784433Y-155163496D01*
X229891657Y-155373933D01*
X230030483Y-155565010D01*
X230197490Y-155732017D01*
X230388567Y-155870843D01*
X230487991Y-155921502D01*
X230599003Y-155978066D01*
X230599005Y-155978066D01*
X230599008Y-155978068D01*
X230719412Y-156017189D01*
X230823631Y-156051053D01*
X231056903Y-156088000D01*
X231056908Y-156088000D01*
X245193097Y-156088000D01*
X245426368Y-156051053D01*
X245650992Y-155978068D01*
X245861433Y-155870843D01*
X246052510Y-155732017D01*
X246219517Y-155565010D01*
X246358343Y-155373933D01*
X246465568Y-155163492D01*
X246538553Y-154938868D01*
X246575500Y-154705597D01*
X246575500Y-140569402D01*
X246538553Y-140336131D01*
X246465566Y-140111503D01*
X246395539Y-139974069D01*
X246358343Y-139901067D01*
X246219517Y-139709990D01*
X246052510Y-139542983D01*
X245861433Y-139404157D01*
X245763350Y-139354181D01*
X245650996Y-139296933D01*
X245426368Y-139223946D01*
X245193097Y-139187000D01*
X245193092Y-139187000D01*
X231293092Y-139187000D01*
X231056908Y-139187000D01*
X231056903Y-139187000D01*
X230823631Y-139223946D01*
X230599003Y-139296933D01*
X230388566Y-139404157D01*
X230345848Y-139435194D01*
X230197490Y-139542983D01*
X230197488Y-139542985D01*
X230197487Y-139542985D01*
X230030485Y-139709987D01*
X230030485Y-139709988D01*
X230030483Y-139709990D01*
X229993300Y-139761168D01*
X229891657Y-139901066D01*
X229784433Y-140111503D01*
X229711446Y-140336131D01*
X229674500Y-140569402D01*
X227525500Y-140569402D01*
X227488553Y-140336131D01*
X227415566Y-140111503D01*
X227345539Y-139974069D01*
X227308343Y-139901067D01*
X227169517Y-139709990D01*
X227002510Y-139542983D01*
X226811433Y-139404157D01*
X226713350Y-139354181D01*
X226600996Y-139296933D01*
X226376368Y-139223946D01*
X226143097Y-139187000D01*
X226143092Y-139187000D01*
X212243092Y-139187000D01*
X212006908Y-139187000D01*
X212006903Y-139187000D01*
X211773631Y-139223946D01*
X211549003Y-139296933D01*
X211338566Y-139404157D01*
X211295848Y-139435194D01*
X211147490Y-139542983D01*
X211147488Y-139542985D01*
X211147487Y-139542985D01*
X210980485Y-139709987D01*
X210980485Y-139709988D01*
X210980483Y-139709990D01*
X210943300Y-139761168D01*
X210841657Y-139901066D01*
X210734433Y-140111503D01*
X210661446Y-140336131D01*
X210624500Y-140569402D01*
X208475500Y-140569402D01*
X208438553Y-140336131D01*
X208365566Y-140111503D01*
X208295539Y-139974069D01*
X208258343Y-139901067D01*
X208119517Y-139709990D01*
X207952510Y-139542983D01*
X207761433Y-139404157D01*
X207663350Y-139354181D01*
X207550996Y-139296933D01*
X207326368Y-139223946D01*
X207093097Y-139187000D01*
X207093092Y-139187000D01*
X193193092Y-139187000D01*
X192956908Y-139187000D01*
X192956903Y-139187000D01*
X192723631Y-139223946D01*
X192499003Y-139296933D01*
X192288566Y-139404157D01*
X192245848Y-139435194D01*
X192097490Y-139542983D01*
X192097488Y-139542985D01*
X192097487Y-139542985D01*
X191930485Y-139709987D01*
X191930478Y-139709996D01*
X191910211Y-139737891D01*
X191854881Y-139780557D01*
X191785268Y-139786535D01*
X191723473Y-139753929D01*
X191690263Y-139697632D01*
X191577780Y-139285194D01*
X191577779Y-139285193D01*
X190002781Y-138335194D01*
X190002778Y-138335193D01*
X188227781Y-138399999D01*
X188227777Y-138400001D01*
X187027779Y-139435193D01*
X186964459Y-139737482D01*
X186931448Y-139799061D01*
X186870385Y-139833018D01*
X186800657Y-139828572D01*
X186744402Y-139787133D01*
X186742775Y-139784945D01*
X186725500Y-139761168D01*
X186688317Y-139709990D01*
X186521310Y-139542983D01*
X186330233Y-139404157D01*
X186232150Y-139354181D01*
X186119796Y-139296933D01*
X185895168Y-139223946D01*
X185661897Y-139187000D01*
X185661892Y-139187000D01*
X171761892Y-139187000D01*
X171525708Y-139187000D01*
X171525703Y-139187000D01*
X171292431Y-139223946D01*
X171067803Y-139296933D01*
X170857366Y-139404157D01*
X170814648Y-139435194D01*
X170666290Y-139542983D01*
X170666288Y-139542985D01*
X170666287Y-139542985D01*
X170499285Y-139709987D01*
X170499285Y-139709988D01*
X170499283Y-139709990D01*
X170462100Y-139761168D01*
X170360457Y-139901066D01*
X170253233Y-140111503D01*
X170180246Y-140336131D01*
X170143300Y-140569402D01*
X168774867Y-140569402D01*
X168685460Y-140504445D01*
X168496054Y-140407938D01*
X168496053Y-140407937D01*
X168496052Y-140407937D01*
X168293883Y-140342248D01*
X168293881Y-140342247D01*
X168293880Y-140342247D01*
X168132597Y-140316702D01*
X168083927Y-140308994D01*
X167871353Y-140308994D01*
X167822682Y-140316702D01*
X167661400Y-140342247D01*
X167459225Y-140407938D01*
X167269819Y-140504445D01*
X167097855Y-140629383D01*
X166984313Y-140742925D01*
X166922990Y-140776409D01*
X166853298Y-140771425D01*
X166797365Y-140729553D01*
X166780450Y-140698576D01*
X166731437Y-140567165D01*
X166731433Y-140567158D01*
X166645187Y-140451949D01*
X166645184Y-140451946D01*
X166529975Y-140365700D01*
X166529968Y-140365696D01*
X166395122Y-140315402D01*
X166395123Y-140315402D01*
X166335523Y-140308995D01*
X166335521Y-140308994D01*
X166335513Y-140308994D01*
X166335504Y-140308994D01*
X164539769Y-140308994D01*
X164539763Y-140308995D01*
X164480156Y-140315402D01*
X164345311Y-140365696D01*
X164345304Y-140365700D01*
X164230095Y-140451946D01*
X164230092Y-140451949D01*
X164143846Y-140567158D01*
X164143842Y-140567165D01*
X164093548Y-140702011D01*
X164087141Y-140761610D01*
X164087140Y-140761629D01*
X163231800Y-140761629D01*
X163231800Y-140569402D01*
X163194853Y-140336131D01*
X163121866Y-140111503D01*
X163051839Y-139974069D01*
X163014643Y-139901067D01*
X162875817Y-139709990D01*
X162708810Y-139542983D01*
X162517733Y-139404157D01*
X162419650Y-139354181D01*
X162307296Y-139296933D01*
X162082668Y-139223946D01*
X161849397Y-139187000D01*
X161849392Y-139187000D01*
X147949392Y-139187000D01*
X147713208Y-139187000D01*
X147713203Y-139187000D01*
X147479931Y-139223946D01*
X147255303Y-139296933D01*
X147044866Y-139404157D01*
X147002148Y-139435194D01*
X146853790Y-139542983D01*
X146853788Y-139542985D01*
X146853787Y-139542985D01*
X146686785Y-139709987D01*
X146686785Y-139709988D01*
X146686783Y-139709990D01*
X146649600Y-139761168D01*
X146547957Y-139901066D01*
X146440733Y-140111503D01*
X146367746Y-140336131D01*
X146330800Y-140569402D01*
X139419300Y-140569402D01*
X139382353Y-140336131D01*
X139309366Y-140111503D01*
X139239339Y-139974069D01*
X139202143Y-139901067D01*
X139063317Y-139709990D01*
X138896310Y-139542983D01*
X138705233Y-139404157D01*
X138607150Y-139354181D01*
X138494796Y-139296933D01*
X138270168Y-139223946D01*
X138036897Y-139187000D01*
X138036892Y-139187000D01*
X124136892Y-139187000D01*
X123900708Y-139187000D01*
X123900703Y-139187000D01*
X123667431Y-139223946D01*
X123442803Y-139296933D01*
X123232366Y-139404157D01*
X123189648Y-139435194D01*
X123041290Y-139542983D01*
X123041288Y-139542985D01*
X123041287Y-139542985D01*
X122874285Y-139709987D01*
X122874285Y-139709988D01*
X122874283Y-139709990D01*
X122837100Y-139761168D01*
X122735457Y-139901066D01*
X122628233Y-140111503D01*
X122555246Y-140336131D01*
X122518300Y-140569402D01*
X121209201Y-140569402D01*
X121119794Y-140504445D01*
X120930388Y-140407938D01*
X120930387Y-140407937D01*
X120930386Y-140407937D01*
X120728217Y-140342248D01*
X120728215Y-140342247D01*
X120728214Y-140342247D01*
X120566931Y-140316702D01*
X120518261Y-140308994D01*
X120305687Y-140308994D01*
X120257016Y-140316702D01*
X120095734Y-140342247D01*
X119893559Y-140407938D01*
X119704153Y-140504445D01*
X119532189Y-140629383D01*
X119418647Y-140742925D01*
X119357324Y-140776409D01*
X119287632Y-140771425D01*
X119231699Y-140729553D01*
X119214784Y-140698576D01*
X119165771Y-140567165D01*
X119165767Y-140567158D01*
X119079521Y-140451949D01*
X119079518Y-140451946D01*
X118964309Y-140365700D01*
X118964302Y-140365696D01*
X118829456Y-140315402D01*
X118829457Y-140315402D01*
X118769857Y-140308995D01*
X118769855Y-140308994D01*
X118769847Y-140308994D01*
X118769838Y-140308994D01*
X116974103Y-140308994D01*
X116974097Y-140308995D01*
X116914490Y-140315402D01*
X116779645Y-140365696D01*
X116779638Y-140365700D01*
X116664429Y-140451946D01*
X116664426Y-140451949D01*
X116578180Y-140567158D01*
X116578176Y-140567165D01*
X116527882Y-140702011D01*
X116521475Y-140761610D01*
X116521474Y-140761629D01*
X116521474Y-142557364D01*
X116521475Y-142557370D01*
X116527882Y-142616977D01*
X116578176Y-142751822D01*
X116578180Y-142751829D01*
X116664426Y-142867038D01*
X116664429Y-142867041D01*
X116779638Y-142953287D01*
X116779645Y-142953291D01*
X116804942Y-142962726D01*
X116914491Y-143003585D01*
X116974101Y-143009994D01*
X117122474Y-143009993D01*
X117189513Y-143029677D01*
X117235268Y-143082481D01*
X117246474Y-143133993D01*
X117246474Y-143532589D01*
X117226789Y-143599628D01*
X117173985Y-143645383D01*
X117135076Y-143655947D01*
X117094176Y-143660125D01*
X117094174Y-143660125D01*
X116927642Y-143715309D01*
X116927637Y-143715311D01*
X116778316Y-143807413D01*
X116654263Y-143931466D01*
X116562161Y-144080787D01*
X116562160Y-144080790D01*
X116506975Y-144247327D01*
X116506975Y-144247328D01*
X116506974Y-144247328D01*
X116496474Y-144350107D01*
X116496474Y-145075125D01*
X116496475Y-145075143D01*
X116506974Y-145177920D01*
X116506975Y-145177923D01*
X116562159Y-145344455D01*
X116562160Y-145344458D01*
X116654262Y-145493780D01*
X116778318Y-145617836D01*
X116927640Y-145709938D01*
X117094177Y-145765123D01*
X117196965Y-145775624D01*
X118546982Y-145775623D01*
X118649771Y-145765123D01*
X118816308Y-145709938D01*
X118965630Y-145617836D01*
X119089686Y-145493780D01*
X119181788Y-145344458D01*
X119236973Y-145177921D01*
X119247474Y-145075133D01*
X119247473Y-144350116D01*
X119236973Y-144247327D01*
X119181788Y-144080790D01*
X119089686Y-143931468D01*
X118965630Y-143807412D01*
X118816308Y-143715310D01*
X118649771Y-143660125D01*
X118649769Y-143660124D01*
X118608870Y-143655946D01*
X118544179Y-143629549D01*
X118504028Y-143572368D01*
X118497474Y-143532588D01*
X118497474Y-143133993D01*
X118517159Y-143066954D01*
X118569963Y-143021199D01*
X118621474Y-143009993D01*
X118769845Y-143009993D01*
X118769846Y-143009993D01*
X118829457Y-143003585D01*
X118964305Y-142953290D01*
X119079520Y-142867040D01*
X119165770Y-142751825D01*
X119214784Y-142620410D01*
X119256655Y-142564478D01*
X119322119Y-142540060D01*
X119390392Y-142554911D01*
X119418647Y-142576063D01*
X119532187Y-142689603D01*
X119704155Y-142814544D01*
X119718766Y-142821988D01*
X119769563Y-142869961D01*
X119786474Y-142932474D01*
X119786474Y-148689778D01*
X119766789Y-148756817D01*
X119718770Y-148800262D01*
X119677950Y-148821061D01*
X119499615Y-148950628D01*
X119499610Y-148950632D01*
X119449437Y-149000805D01*
X119388114Y-149034289D01*
X119318422Y-149029304D01*
X119262489Y-148987433D01*
X119245575Y-148956456D01*
X119215771Y-148876547D01*
X119215767Y-148876540D01*
X119164097Y-148807519D01*
X119129520Y-148761330D01*
X119025396Y-148683383D01*
X118983527Y-148627451D01*
X118978543Y-148557759D01*
X119012025Y-148496440D01*
X119089686Y-148418780D01*
X119181788Y-148269458D01*
X119236973Y-148102921D01*
X119247474Y-148000133D01*
X119247473Y-147275116D01*
X119236973Y-147172327D01*
X119181788Y-147005790D01*
X119089686Y-146856468D01*
X118965630Y-146732412D01*
X118816308Y-146640310D01*
X118649771Y-146585125D01*
X118649769Y-146585124D01*
X118546984Y-146574624D01*
X117196972Y-146574624D01*
X117196955Y-146574625D01*
X117094177Y-146585124D01*
X117094174Y-146585125D01*
X116927642Y-146640309D01*
X116927637Y-146640311D01*
X116778316Y-146732413D01*
X116654263Y-146856466D01*
X116562161Y-147005787D01*
X116562160Y-147005790D01*
X116506975Y-147172327D01*
X116506975Y-147172328D01*
X116506974Y-147172328D01*
X116496474Y-147275107D01*
X116496474Y-148000125D01*
X116496475Y-148000143D01*
X116506974Y-148102920D01*
X116506975Y-148102923D01*
X116562159Y-148269455D01*
X116562161Y-148269460D01*
X116654263Y-148418781D01*
X116731919Y-148496437D01*
X116765404Y-148557760D01*
X116760420Y-148627452D01*
X116718549Y-148683384D01*
X116614429Y-148761328D01*
X116614426Y-148761331D01*
X116528180Y-148876540D01*
X116528176Y-148876547D01*
X116477882Y-149011393D01*
X116471475Y-149070992D01*
X116471474Y-149071011D01*
X115606800Y-149071011D01*
X115606800Y-140569402D01*
X115569853Y-140336131D01*
X115496866Y-140111503D01*
X115426839Y-139974069D01*
X115389643Y-139901067D01*
X115250817Y-139709990D01*
X115083810Y-139542983D01*
X114892733Y-139404157D01*
X114794650Y-139354181D01*
X114682296Y-139296933D01*
X114457668Y-139223946D01*
X114224397Y-139187000D01*
X114224392Y-139187000D01*
X100324392Y-139187000D01*
X100088208Y-139187000D01*
X100088203Y-139187000D01*
X99854931Y-139223946D01*
X99630303Y-139296933D01*
X99419866Y-139404157D01*
X99377148Y-139435194D01*
X99228790Y-139542983D01*
X99228788Y-139542985D01*
X99228787Y-139542985D01*
X99061782Y-139709990D01*
X99033371Y-139749095D01*
X98978040Y-139791760D01*
X98908427Y-139797738D01*
X98846632Y-139765131D01*
X98813423Y-139708834D01*
X98716700Y-139354181D01*
X98716699Y-139354180D01*
X97141701Y-138404181D01*
X97141698Y-138404180D01*
X95366701Y-138468986D01*
X95366697Y-138468988D01*
X94166699Y-139504180D01*
X94112868Y-139761168D01*
X94079857Y-139822747D01*
X94018794Y-139856704D01*
X93949066Y-139852258D01*
X93892811Y-139810819D01*
X93891184Y-139808631D01*
X93883270Y-139797738D01*
X93819517Y-139709990D01*
X93652510Y-139542983D01*
X93461433Y-139404157D01*
X93363350Y-139354181D01*
X93250996Y-139296933D01*
X93026368Y-139223946D01*
X92793097Y-139187000D01*
X92793092Y-139187000D01*
X78893092Y-139187000D01*
X78656908Y-139187000D01*
X78656903Y-139187000D01*
X78423631Y-139223946D01*
X78199003Y-139296933D01*
X77988566Y-139404157D01*
X77945848Y-139435194D01*
X77797490Y-139542983D01*
X77797488Y-139542985D01*
X77797487Y-139542985D01*
X77630485Y-139709987D01*
X77630485Y-139709988D01*
X77630483Y-139709990D01*
X77593300Y-139761168D01*
X77491657Y-139901066D01*
X77384433Y-140111503D01*
X77311446Y-140336131D01*
X77274500Y-140569402D01*
X75125500Y-140569402D01*
X75088553Y-140336131D01*
X75015566Y-140111503D01*
X74945539Y-139974069D01*
X74908343Y-139901067D01*
X74769517Y-139709990D01*
X74602510Y-139542983D01*
X74411433Y-139404157D01*
X74313350Y-139354181D01*
X74200996Y-139296933D01*
X73976368Y-139223946D01*
X73743097Y-139187000D01*
X73743092Y-139187000D01*
X59843092Y-139187000D01*
X59606908Y-139187000D01*
X59606903Y-139187000D01*
X59373631Y-139223946D01*
X59149003Y-139296933D01*
X58938566Y-139404157D01*
X58895848Y-139435194D01*
X58747490Y-139542983D01*
X58747488Y-139542985D01*
X58747487Y-139542985D01*
X58580485Y-139709987D01*
X58580485Y-139709988D01*
X58580483Y-139709990D01*
X58543300Y-139761168D01*
X58441657Y-139901066D01*
X58334433Y-140111503D01*
X58261446Y-140336131D01*
X58224500Y-140569402D01*
X56075500Y-140569402D01*
X56038553Y-140336131D01*
X55965566Y-140111503D01*
X55895539Y-139974069D01*
X55858343Y-139901067D01*
X55719517Y-139709990D01*
X55552510Y-139542983D01*
X55361433Y-139404157D01*
X55263350Y-139354181D01*
X55150996Y-139296933D01*
X54926368Y-139223946D01*
X54693097Y-139187000D01*
X54693092Y-139187000D01*
X40793092Y-139187000D01*
X40556908Y-139187000D01*
X40556903Y-139187000D01*
X40323631Y-139223946D01*
X40099003Y-139296933D01*
X39888566Y-139404157D01*
X39845848Y-139435194D01*
X39697490Y-139542983D01*
X39697488Y-139542985D01*
X39697487Y-139542985D01*
X39530485Y-139709987D01*
X39530485Y-139709988D01*
X39530483Y-139709990D01*
X39493300Y-139761168D01*
X39391657Y-139901066D01*
X39284433Y-140111503D01*
X39211446Y-140336131D01*
X39174500Y-140569402D01*
X38400500Y-140569402D01*
X38400500Y-139010148D01*
X38368477Y-138807965D01*
X38305218Y-138613276D01*
X38263238Y-138530887D01*
X38212287Y-138430890D01*
X38189844Y-138399999D01*
X38091971Y-138265286D01*
X37947213Y-138120528D01*
X37781613Y-138000215D01*
X37781612Y-138000214D01*
X37781610Y-138000213D01*
X37724653Y-137971191D01*
X37599223Y-137907281D01*
X37404534Y-137844022D01*
X37229995Y-137816378D01*
X37202352Y-137812000D01*
X37202351Y-137812000D01*
X29581093Y-137812000D01*
X29568939Y-137811403D01*
X29518081Y-137806393D01*
X29450688Y-137799756D01*
X29426848Y-137795014D01*
X29318997Y-137762298D01*
X29296541Y-137752996D01*
X29197150Y-137699870D01*
X29176940Y-137686366D01*
X29089820Y-137614869D01*
X29072630Y-137597679D01*
X29001133Y-137510559D01*
X28987629Y-137490349D01*
X28948441Y-137417034D01*
X28934501Y-137390953D01*
X28925201Y-137368502D01*
X28892483Y-137260645D01*
X28887744Y-137236817D01*
X28876097Y-137118561D01*
X28875500Y-137106407D01*
X28875500Y-102469402D01*
X29649500Y-102469402D01*
X29649500Y-116605597D01*
X29686446Y-116838868D01*
X29759433Y-117063496D01*
X29866657Y-117273933D01*
X30005483Y-117465010D01*
X30172490Y-117632017D01*
X30363567Y-117770843D01*
X30462991Y-117821502D01*
X30574003Y-117878066D01*
X30574005Y-117878066D01*
X30574008Y-117878068D01*
X30694412Y-117917189D01*
X30798631Y-117951053D01*
X31031903Y-117988000D01*
X45171704Y-117988000D01*
X45238743Y-118007685D01*
X45284498Y-118060489D01*
X45294442Y-118129647D01*
X45287542Y-118156244D01*
X44938920Y-119068985D01*
X44938919Y-119068987D01*
X45251878Y-119972411D01*
X45255222Y-120042201D01*
X45220304Y-120102719D01*
X45158210Y-120134753D01*
X45134709Y-120137000D01*
X31031903Y-120137000D01*
X30798631Y-120173946D01*
X30574003Y-120246933D01*
X30363566Y-120354157D01*
X30254550Y-120433362D01*
X30172490Y-120492983D01*
X30172488Y-120492985D01*
X30172487Y-120492985D01*
X30005485Y-120659987D01*
X30005485Y-120659988D01*
X30005483Y-120659990D01*
X29945862Y-120742050D01*
X29866657Y-120851066D01*
X29759433Y-121061503D01*
X29686446Y-121286131D01*
X29649500Y-121519402D01*
X29649500Y-135655597D01*
X29686446Y-135888868D01*
X29759433Y-136113496D01*
X29866657Y-136323933D01*
X30005483Y-136515010D01*
X30172490Y-136682017D01*
X30363567Y-136820843D01*
X30462991Y-136871502D01*
X30574003Y-136928066D01*
X30574005Y-136928066D01*
X30574008Y-136928068D01*
X30694412Y-136967189D01*
X30798631Y-137001053D01*
X31031903Y-137038000D01*
X31031908Y-137038000D01*
X45168097Y-137038000D01*
X45401368Y-137001053D01*
X45625992Y-136928068D01*
X45836433Y-136820843D01*
X46027510Y-136682017D01*
X46194517Y-136515010D01*
X46333343Y-136323933D01*
X46440568Y-136113492D01*
X46513553Y-135888868D01*
X46550500Y-135655597D01*
X46550500Y-121566561D01*
X46570185Y-121499522D01*
X46622989Y-121453767D01*
X46692147Y-121443823D01*
X46692659Y-121443898D01*
X48400000Y-121700000D01*
X48494291Y-121618280D01*
X48557841Y-121589251D01*
X48627000Y-121599188D01*
X48679809Y-121644937D01*
X48699500Y-121711975D01*
X48699500Y-135655597D01*
X48736446Y-135888868D01*
X48809433Y-136113496D01*
X48916657Y-136323933D01*
X49055483Y-136515010D01*
X49222490Y-136682017D01*
X49413567Y-136820843D01*
X49512991Y-136871502D01*
X49624003Y-136928066D01*
X49624005Y-136928066D01*
X49624008Y-136928068D01*
X49744412Y-136967189D01*
X49848631Y-137001053D01*
X50081903Y-137038000D01*
X50081908Y-137038000D01*
X64218097Y-137038000D01*
X64451368Y-137001053D01*
X64675992Y-136928068D01*
X64886433Y-136820843D01*
X65077510Y-136682017D01*
X65244517Y-136515010D01*
X65383343Y-136323933D01*
X65490568Y-136113492D01*
X65563553Y-135888868D01*
X65600500Y-135655597D01*
X65600500Y-121519402D01*
X67749500Y-121519402D01*
X67749500Y-135655597D01*
X67786446Y-135888868D01*
X67859433Y-136113496D01*
X67966657Y-136323933D01*
X68105483Y-136515010D01*
X68272490Y-136682017D01*
X68463567Y-136820843D01*
X68562991Y-136871502D01*
X68674003Y-136928066D01*
X68674005Y-136928066D01*
X68674008Y-136928068D01*
X68794412Y-136967189D01*
X68898631Y-137001053D01*
X69131903Y-137038000D01*
X69131908Y-137038000D01*
X83268097Y-137038000D01*
X83501368Y-137001053D01*
X83725992Y-136928068D01*
X83936433Y-136820843D01*
X84127510Y-136682017D01*
X84294517Y-136515010D01*
X84433343Y-136323933D01*
X84540568Y-136113492D01*
X84613553Y-135888868D01*
X84650500Y-135655597D01*
X84650500Y-121519402D01*
X84613553Y-121286131D01*
X84540566Y-121061503D01*
X84433342Y-120851066D01*
X84294517Y-120659990D01*
X84127510Y-120492983D01*
X83936433Y-120354157D01*
X83725996Y-120246933D01*
X83501368Y-120173946D01*
X83268097Y-120137000D01*
X83268092Y-120137000D01*
X69368092Y-120137000D01*
X69131908Y-120137000D01*
X69131903Y-120137000D01*
X68898631Y-120173946D01*
X68674003Y-120246933D01*
X68463566Y-120354157D01*
X68354550Y-120433362D01*
X68272490Y-120492983D01*
X68272488Y-120492985D01*
X68272487Y-120492985D01*
X68105485Y-120659987D01*
X68105485Y-120659988D01*
X68105483Y-120659990D01*
X68045862Y-120742050D01*
X67966657Y-120851066D01*
X67859433Y-121061503D01*
X67786446Y-121286131D01*
X67749500Y-121519402D01*
X65600500Y-121519402D01*
X65563553Y-121286131D01*
X65490566Y-121061503D01*
X65383342Y-120851066D01*
X65244517Y-120659990D01*
X65077510Y-120492983D01*
X64886433Y-120354157D01*
X64675996Y-120246933D01*
X64451368Y-120173946D01*
X64218097Y-120137000D01*
X64218092Y-120137000D01*
X50318092Y-120137000D01*
X50093439Y-120137000D01*
X50026400Y-120117315D01*
X49980645Y-120064511D01*
X49970701Y-119995353D01*
X49971287Y-119991674D01*
X50191700Y-118729185D01*
X50191699Y-118729183D01*
X50191700Y-118729181D01*
X49963235Y-118158053D01*
X49956613Y-118088500D01*
X49988646Y-118026406D01*
X50049165Y-117991487D01*
X50078366Y-117988000D01*
X64218097Y-117988000D01*
X64451368Y-117951053D01*
X64467978Y-117945656D01*
X64675992Y-117878068D01*
X64886433Y-117770843D01*
X65077510Y-117632017D01*
X65244517Y-117465010D01*
X65383343Y-117273933D01*
X65490568Y-117063492D01*
X65563553Y-116838868D01*
X65584799Y-116704728D01*
X65600500Y-116605597D01*
X65600500Y-102469402D01*
X67749500Y-102469402D01*
X67749500Y-116605597D01*
X67786446Y-116838868D01*
X67859433Y-117063496D01*
X67966657Y-117273933D01*
X68105483Y-117465010D01*
X68272490Y-117632017D01*
X68463567Y-117770843D01*
X68562991Y-117821502D01*
X68674003Y-117878066D01*
X68674005Y-117878066D01*
X68674008Y-117878068D01*
X68794412Y-117917189D01*
X68898631Y-117951053D01*
X69131903Y-117988000D01*
X69131908Y-117988000D01*
X83268097Y-117988000D01*
X83501368Y-117951053D01*
X83517978Y-117945656D01*
X83725992Y-117878068D01*
X83936433Y-117770843D01*
X84127510Y-117632017D01*
X84294517Y-117465010D01*
X84433343Y-117273933D01*
X84540568Y-117063492D01*
X84613553Y-116838868D01*
X84634799Y-116704728D01*
X84650500Y-116605597D01*
X84650500Y-102469402D01*
X86799500Y-102469402D01*
X86799500Y-116605597D01*
X86836446Y-116838868D01*
X86909433Y-117063496D01*
X87016657Y-117273933D01*
X87155483Y-117465010D01*
X87322490Y-117632017D01*
X87513567Y-117770843D01*
X87612991Y-117821502D01*
X87724003Y-117878066D01*
X87724005Y-117878066D01*
X87724008Y-117878068D01*
X87844412Y-117917189D01*
X87948631Y-117951053D01*
X88181903Y-117988000D01*
X88181908Y-117988000D01*
X102318095Y-117988000D01*
X102341455Y-117984299D01*
X102355127Y-117982134D01*
X102424421Y-117991088D01*
X102477873Y-118036083D01*
X102498514Y-118102834D01*
X102490365Y-118148851D01*
X102138920Y-119068985D01*
X102138919Y-119068987D01*
X102452275Y-119973559D01*
X102455619Y-120043349D01*
X102420701Y-120103867D01*
X102358607Y-120135901D01*
X102323025Y-120136502D01*
X102322956Y-120137382D01*
X102318099Y-120137000D01*
X102318092Y-120137000D01*
X88418092Y-120137000D01*
X88181908Y-120137000D01*
X88181903Y-120137000D01*
X87948631Y-120173946D01*
X87724003Y-120246933D01*
X87513566Y-120354157D01*
X87404550Y-120433362D01*
X87322490Y-120492983D01*
X87322488Y-120492985D01*
X87322487Y-120492985D01*
X87155485Y-120659987D01*
X87155485Y-120659988D01*
X87155483Y-120659990D01*
X87095862Y-120742050D01*
X87016657Y-120851066D01*
X86909433Y-121061503D01*
X86836446Y-121286131D01*
X86799500Y-121519402D01*
X86799500Y-135655597D01*
X86836446Y-135888868D01*
X86909433Y-136113496D01*
X87016657Y-136323933D01*
X87155483Y-136515010D01*
X87322490Y-136682017D01*
X87513567Y-136820843D01*
X87612991Y-136871502D01*
X87724003Y-136928066D01*
X87724005Y-136928066D01*
X87724008Y-136928068D01*
X87844412Y-136967189D01*
X87948631Y-137001053D01*
X88181903Y-137038000D01*
X88181908Y-137038000D01*
X102318097Y-137038000D01*
X102551368Y-137001053D01*
X102775992Y-136928068D01*
X102986433Y-136820843D01*
X103177510Y-136682017D01*
X103344517Y-136515010D01*
X103483343Y-136323933D01*
X103590568Y-136113492D01*
X103663553Y-135888868D01*
X103700500Y-135655597D01*
X103700500Y-121559061D01*
X103720185Y-121492022D01*
X103772989Y-121446267D01*
X103842147Y-121436323D01*
X103842810Y-121436420D01*
X105600000Y-121700000D01*
X105644290Y-121661615D01*
X105707841Y-121632585D01*
X105777001Y-121642522D01*
X105829809Y-121688272D01*
X105849500Y-121755309D01*
X105849500Y-135655597D01*
X105886446Y-135888868D01*
X105959433Y-136113496D01*
X106066657Y-136323933D01*
X106205483Y-136515010D01*
X106372490Y-136682017D01*
X106563567Y-136820843D01*
X106662991Y-136871502D01*
X106774003Y-136928066D01*
X106774005Y-136928066D01*
X106774008Y-136928068D01*
X106894412Y-136967189D01*
X106998631Y-137001053D01*
X107231903Y-137038000D01*
X107231908Y-137038000D01*
X121368097Y-137038000D01*
X121601368Y-137001053D01*
X121825992Y-136928068D01*
X122036433Y-136820843D01*
X122227510Y-136682017D01*
X122394517Y-136515010D01*
X122533343Y-136323933D01*
X122640568Y-136113492D01*
X122713553Y-135888868D01*
X122750500Y-135655597D01*
X122750500Y-121519402D01*
X122713553Y-121286131D01*
X122640566Y-121061503D01*
X122533342Y-120851066D01*
X122394517Y-120659990D01*
X122227510Y-120492983D01*
X122036433Y-120354157D01*
X121825996Y-120246933D01*
X121601368Y-120173946D01*
X121368097Y-120137000D01*
X121368092Y-120137000D01*
X107468092Y-120137000D01*
X107293439Y-120137000D01*
X107226400Y-120117315D01*
X107180645Y-120064511D01*
X107170701Y-119995353D01*
X107171287Y-119991674D01*
X107391700Y-118729185D01*
X107391699Y-118729183D01*
X107391700Y-118729181D01*
X107163237Y-118158055D01*
X107156614Y-118088499D01*
X107188647Y-118026406D01*
X107249166Y-117991487D01*
X107278367Y-117988000D01*
X121368097Y-117988000D01*
X121601368Y-117951053D01*
X121617978Y-117945656D01*
X121825992Y-117878068D01*
X122036433Y-117770843D01*
X122227510Y-117632017D01*
X122394517Y-117465010D01*
X122533343Y-117273933D01*
X122640568Y-117063492D01*
X122713553Y-116838868D01*
X122734799Y-116704728D01*
X122750500Y-116605597D01*
X122750500Y-102469402D01*
X124899500Y-102469402D01*
X124899500Y-116605597D01*
X124936446Y-116838868D01*
X125009433Y-117063496D01*
X125116657Y-117273933D01*
X125255483Y-117465010D01*
X125422490Y-117632017D01*
X125613567Y-117770843D01*
X125712991Y-117821502D01*
X125824003Y-117878066D01*
X125824005Y-117878066D01*
X125824008Y-117878068D01*
X125944412Y-117917189D01*
X126048631Y-117951053D01*
X126281903Y-117988000D01*
X126281908Y-117988000D01*
X140418095Y-117988000D01*
X140441455Y-117984299D01*
X140455127Y-117982134D01*
X140524421Y-117991088D01*
X140577873Y-118036083D01*
X140598514Y-118102834D01*
X140590365Y-118148851D01*
X140238920Y-119068985D01*
X140238919Y-119068987D01*
X140552275Y-119973559D01*
X140555619Y-120043349D01*
X140520701Y-120103867D01*
X140458607Y-120135901D01*
X140423025Y-120136502D01*
X140422956Y-120137382D01*
X140418099Y-120137000D01*
X140418092Y-120137000D01*
X126518092Y-120137000D01*
X126281908Y-120137000D01*
X126281903Y-120137000D01*
X126048631Y-120173946D01*
X125824003Y-120246933D01*
X125613566Y-120354157D01*
X125504550Y-120433362D01*
X125422490Y-120492983D01*
X125422488Y-120492985D01*
X125422487Y-120492985D01*
X125255485Y-120659987D01*
X125255485Y-120659988D01*
X125255483Y-120659990D01*
X125195862Y-120742050D01*
X125116657Y-120851066D01*
X125009433Y-121061503D01*
X124936446Y-121286131D01*
X124899500Y-121519402D01*
X124899500Y-135655597D01*
X124936446Y-135888868D01*
X125009433Y-136113496D01*
X125116657Y-136323933D01*
X125255483Y-136515010D01*
X125422490Y-136682017D01*
X125613567Y-136820843D01*
X125712991Y-136871502D01*
X125824003Y-136928066D01*
X125824005Y-136928066D01*
X125824008Y-136928068D01*
X125944412Y-136967189D01*
X126048631Y-137001053D01*
X126281903Y-137038000D01*
X126281908Y-137038000D01*
X140418097Y-137038000D01*
X140651368Y-137001053D01*
X140875992Y-136928068D01*
X141086433Y-136820843D01*
X141277510Y-136682017D01*
X141444517Y-136515010D01*
X141583343Y-136323933D01*
X141690568Y-136113492D01*
X141763553Y-135888868D01*
X141800500Y-135655597D01*
X141800500Y-121559061D01*
X141820185Y-121492022D01*
X141872989Y-121446267D01*
X141942147Y-121436323D01*
X141942810Y-121436420D01*
X143700000Y-121700000D01*
X143744290Y-121661615D01*
X143807841Y-121632585D01*
X143877001Y-121642522D01*
X143929809Y-121688272D01*
X143949500Y-121755309D01*
X143949500Y-135655597D01*
X143986446Y-135888868D01*
X144059433Y-136113496D01*
X144166657Y-136323933D01*
X144305483Y-136515010D01*
X144472490Y-136682017D01*
X144663567Y-136820843D01*
X144762991Y-136871502D01*
X144874003Y-136928066D01*
X144874005Y-136928066D01*
X144874008Y-136928068D01*
X144994412Y-136967189D01*
X145098631Y-137001053D01*
X145331903Y-137038000D01*
X145331908Y-137038000D01*
X159468097Y-137038000D01*
X159701368Y-137001053D01*
X159925992Y-136928068D01*
X160136433Y-136820843D01*
X160327510Y-136682017D01*
X160494517Y-136515010D01*
X160633343Y-136323933D01*
X160740568Y-136113492D01*
X160813553Y-135888868D01*
X160850500Y-135655597D01*
X160850500Y-121519402D01*
X160813553Y-121286131D01*
X160740566Y-121061503D01*
X160633342Y-120851066D01*
X160494517Y-120659990D01*
X160327510Y-120492983D01*
X160136433Y-120354157D01*
X159925996Y-120246933D01*
X159701368Y-120173946D01*
X159468097Y-120137000D01*
X159468092Y-120137000D01*
X145568092Y-120137000D01*
X145393439Y-120137000D01*
X145326400Y-120117315D01*
X145280645Y-120064511D01*
X145270701Y-119995353D01*
X145271287Y-119991674D01*
X145491700Y-118729185D01*
X145491699Y-118729183D01*
X145491700Y-118729181D01*
X145263237Y-118158055D01*
X145256614Y-118088499D01*
X145288647Y-118026406D01*
X145349166Y-117991487D01*
X145378367Y-117988000D01*
X159468097Y-117988000D01*
X159701368Y-117951053D01*
X159717978Y-117945656D01*
X159925992Y-117878068D01*
X160136433Y-117770843D01*
X160327510Y-117632017D01*
X160494517Y-117465010D01*
X160633343Y-117273933D01*
X160740568Y-117063492D01*
X160813553Y-116838868D01*
X160834799Y-116704728D01*
X160850500Y-116605597D01*
X160850500Y-102469402D01*
X162999500Y-102469402D01*
X162999500Y-116605597D01*
X163036446Y-116838868D01*
X163109433Y-117063496D01*
X163216657Y-117273933D01*
X163355483Y-117465010D01*
X163522490Y-117632017D01*
X163713567Y-117770843D01*
X163812991Y-117821502D01*
X163924003Y-117878066D01*
X163924005Y-117878066D01*
X163924008Y-117878068D01*
X164044412Y-117917189D01*
X164148631Y-117951053D01*
X164381903Y-117988000D01*
X164381908Y-117988000D01*
X178518095Y-117988000D01*
X178541455Y-117984299D01*
X178555127Y-117982134D01*
X178624421Y-117991088D01*
X178677873Y-118036083D01*
X178698514Y-118102834D01*
X178690365Y-118148851D01*
X178338920Y-119068985D01*
X178338919Y-119068987D01*
X178652275Y-119973559D01*
X178655619Y-120043349D01*
X178620701Y-120103867D01*
X178558607Y-120135901D01*
X178523025Y-120136502D01*
X178522956Y-120137382D01*
X178518099Y-120137000D01*
X178518092Y-120137000D01*
X164618092Y-120137000D01*
X164381908Y-120137000D01*
X164381903Y-120137000D01*
X164148631Y-120173946D01*
X163924003Y-120246933D01*
X163713566Y-120354157D01*
X163604550Y-120433362D01*
X163522490Y-120492983D01*
X163522488Y-120492985D01*
X163522487Y-120492985D01*
X163355485Y-120659987D01*
X163355485Y-120659988D01*
X163355483Y-120659990D01*
X163295862Y-120742050D01*
X163216657Y-120851066D01*
X163109433Y-121061503D01*
X163036446Y-121286131D01*
X162999500Y-121519402D01*
X162999500Y-135655597D01*
X163036446Y-135888868D01*
X163109433Y-136113496D01*
X163216657Y-136323933D01*
X163355483Y-136515010D01*
X163522490Y-136682017D01*
X163713567Y-136820843D01*
X163812991Y-136871502D01*
X163924003Y-136928066D01*
X163924005Y-136928066D01*
X163924008Y-136928068D01*
X164044412Y-136967189D01*
X164148631Y-137001053D01*
X164381903Y-137038000D01*
X164381908Y-137038000D01*
X178518097Y-137038000D01*
X178751368Y-137001053D01*
X178975992Y-136928068D01*
X179186433Y-136820843D01*
X179377510Y-136682017D01*
X179544517Y-136515010D01*
X179683343Y-136323933D01*
X179790568Y-136113492D01*
X179863553Y-135888868D01*
X179900500Y-135655597D01*
X179900500Y-121559061D01*
X179920185Y-121492022D01*
X179972989Y-121446267D01*
X180042147Y-121436323D01*
X180042810Y-121436420D01*
X181800000Y-121700000D01*
X181844290Y-121661615D01*
X181907841Y-121632585D01*
X181977001Y-121642522D01*
X182029809Y-121688272D01*
X182049500Y-121755309D01*
X182049500Y-135655597D01*
X182086446Y-135888868D01*
X182159433Y-136113496D01*
X182266657Y-136323933D01*
X182405483Y-136515010D01*
X182572490Y-136682017D01*
X182763567Y-136820843D01*
X182862991Y-136871502D01*
X182974003Y-136928066D01*
X182974005Y-136928066D01*
X182974008Y-136928068D01*
X183094412Y-136967189D01*
X183198631Y-137001053D01*
X183431903Y-137038000D01*
X183431908Y-137038000D01*
X197568097Y-137038000D01*
X197801368Y-137001053D01*
X198025992Y-136928068D01*
X198236433Y-136820843D01*
X198427510Y-136682017D01*
X198594517Y-136515010D01*
X198733343Y-136323933D01*
X198840568Y-136113492D01*
X198913553Y-135888868D01*
X198950500Y-135655597D01*
X198950500Y-121519402D01*
X201099500Y-121519402D01*
X201099500Y-135655597D01*
X201136446Y-135888868D01*
X201209433Y-136113496D01*
X201316657Y-136323933D01*
X201455483Y-136515010D01*
X201622490Y-136682017D01*
X201813567Y-136820843D01*
X201912991Y-136871502D01*
X202024003Y-136928066D01*
X202024005Y-136928066D01*
X202024008Y-136928068D01*
X202144412Y-136967189D01*
X202248631Y-137001053D01*
X202481903Y-137038000D01*
X202481908Y-137038000D01*
X216618097Y-137038000D01*
X216851368Y-137001053D01*
X217075992Y-136928068D01*
X217286433Y-136820843D01*
X217477510Y-136682017D01*
X217644517Y-136515010D01*
X217783343Y-136323933D01*
X217890568Y-136113492D01*
X217963553Y-135888868D01*
X218000500Y-135655597D01*
X218000500Y-121519402D01*
X217963553Y-121286131D01*
X217890566Y-121061503D01*
X217783342Y-120851066D01*
X217644517Y-120659990D01*
X217477510Y-120492983D01*
X217286433Y-120354157D01*
X217075996Y-120246933D01*
X216851368Y-120173946D01*
X216618097Y-120137000D01*
X216618092Y-120137000D01*
X202718092Y-120137000D01*
X202481908Y-120137000D01*
X202481903Y-120137000D01*
X202248631Y-120173946D01*
X202024003Y-120246933D01*
X201813566Y-120354157D01*
X201704550Y-120433362D01*
X201622490Y-120492983D01*
X201622488Y-120492985D01*
X201622487Y-120492985D01*
X201455485Y-120659987D01*
X201455485Y-120659988D01*
X201455483Y-120659990D01*
X201395862Y-120742050D01*
X201316657Y-120851066D01*
X201209433Y-121061503D01*
X201136446Y-121286131D01*
X201099500Y-121519402D01*
X198950500Y-121519402D01*
X198913553Y-121286131D01*
X198840566Y-121061503D01*
X198733342Y-120851066D01*
X198594517Y-120659990D01*
X198427510Y-120492983D01*
X198236433Y-120354157D01*
X198025996Y-120246933D01*
X197801368Y-120173946D01*
X197568097Y-120137000D01*
X197568092Y-120137000D01*
X183668092Y-120137000D01*
X183493439Y-120137000D01*
X183426400Y-120117315D01*
X183380645Y-120064511D01*
X183370701Y-119995353D01*
X183371287Y-119991674D01*
X183591700Y-118729185D01*
X183591699Y-118729183D01*
X183591700Y-118729181D01*
X183363237Y-118158055D01*
X183356614Y-118088499D01*
X183388647Y-118026406D01*
X183449166Y-117991487D01*
X183478367Y-117988000D01*
X197568097Y-117988000D01*
X197801368Y-117951053D01*
X197817978Y-117945656D01*
X198025992Y-117878068D01*
X198236433Y-117770843D01*
X198427510Y-117632017D01*
X198594517Y-117465010D01*
X198733343Y-117273933D01*
X198840568Y-117063492D01*
X198913553Y-116838868D01*
X198934799Y-116704728D01*
X198950500Y-116605597D01*
X198950500Y-102469402D01*
X201099500Y-102469402D01*
X201099500Y-116605597D01*
X201136446Y-116838868D01*
X201209433Y-117063496D01*
X201316657Y-117273933D01*
X201455483Y-117465010D01*
X201622490Y-117632017D01*
X201813567Y-117770843D01*
X201912991Y-117821502D01*
X202024003Y-117878066D01*
X202024005Y-117878066D01*
X202024008Y-117878068D01*
X202144412Y-117917189D01*
X202248631Y-117951053D01*
X202481903Y-117988000D01*
X202481908Y-117988000D01*
X216618097Y-117988000D01*
X216851368Y-117951053D01*
X216867978Y-117945656D01*
X217075992Y-117878068D01*
X217286433Y-117770843D01*
X217477510Y-117632017D01*
X217644517Y-117465010D01*
X217783343Y-117273933D01*
X217890568Y-117063492D01*
X217963553Y-116838868D01*
X217984799Y-116704728D01*
X218000500Y-116605597D01*
X218000500Y-102469402D01*
X220149500Y-102469402D01*
X220149500Y-116605597D01*
X220186446Y-116838868D01*
X220259433Y-117063496D01*
X220366657Y-117273933D01*
X220505483Y-117465010D01*
X220672490Y-117632017D01*
X220863567Y-117770843D01*
X220962991Y-117821502D01*
X221074003Y-117878066D01*
X221074005Y-117878066D01*
X221074008Y-117878068D01*
X221194412Y-117917189D01*
X221298631Y-117951053D01*
X221531903Y-117988000D01*
X235671704Y-117988000D01*
X235738743Y-118007685D01*
X235784498Y-118060489D01*
X235794442Y-118129647D01*
X235787542Y-118156244D01*
X235438920Y-119068985D01*
X235438919Y-119068987D01*
X235751878Y-119972411D01*
X235755222Y-120042201D01*
X235720304Y-120102719D01*
X235658210Y-120134753D01*
X235634709Y-120137000D01*
X221531903Y-120137000D01*
X221298631Y-120173946D01*
X221074003Y-120246933D01*
X220863566Y-120354157D01*
X220754550Y-120433362D01*
X220672490Y-120492983D01*
X220672488Y-120492985D01*
X220672487Y-120492985D01*
X220505485Y-120659987D01*
X220505485Y-120659988D01*
X220505483Y-120659990D01*
X220445862Y-120742050D01*
X220366657Y-120851066D01*
X220259433Y-121061503D01*
X220186446Y-121286131D01*
X220149500Y-121519402D01*
X220149500Y-135655597D01*
X220186446Y-135888868D01*
X220259433Y-136113496D01*
X220366657Y-136323933D01*
X220505483Y-136515010D01*
X220672490Y-136682017D01*
X220863567Y-136820843D01*
X220962991Y-136871502D01*
X221074003Y-136928066D01*
X221074005Y-136928066D01*
X221074008Y-136928068D01*
X221194412Y-136967189D01*
X221298631Y-137001053D01*
X221531903Y-137038000D01*
X221531908Y-137038000D01*
X235668097Y-137038000D01*
X235901368Y-137001053D01*
X236125992Y-136928068D01*
X236336433Y-136820843D01*
X236527510Y-136682017D01*
X236694517Y-136515010D01*
X236833343Y-136323933D01*
X236940568Y-136113492D01*
X237013553Y-135888868D01*
X237050500Y-135655597D01*
X237050500Y-121566561D01*
X237070185Y-121499522D01*
X237122989Y-121453767D01*
X237192147Y-121443823D01*
X237192659Y-121443898D01*
X238900000Y-121700000D01*
X238994291Y-121618280D01*
X239057841Y-121589251D01*
X239127000Y-121599188D01*
X239179809Y-121644937D01*
X239199500Y-121711975D01*
X239199500Y-135655597D01*
X239236446Y-135888868D01*
X239309433Y-136113496D01*
X239416657Y-136323933D01*
X239555483Y-136515010D01*
X239722490Y-136682017D01*
X239913567Y-136820843D01*
X240012991Y-136871502D01*
X240124003Y-136928066D01*
X240124005Y-136928066D01*
X240124008Y-136928068D01*
X240244412Y-136967189D01*
X240348631Y-137001053D01*
X240581903Y-137038000D01*
X240581908Y-137038000D01*
X254718097Y-137038000D01*
X254951368Y-137001053D01*
X255175992Y-136928068D01*
X255386433Y-136820843D01*
X255577510Y-136682017D01*
X255744517Y-136515010D01*
X255883343Y-136323933D01*
X255990568Y-136113492D01*
X256063553Y-135888868D01*
X256100500Y-135655597D01*
X256100500Y-121519402D01*
X256063553Y-121286131D01*
X255990566Y-121061503D01*
X255883342Y-120851066D01*
X255744517Y-120659990D01*
X255577510Y-120492983D01*
X255386433Y-120354157D01*
X255175996Y-120246933D01*
X254951368Y-120173946D01*
X254718097Y-120137000D01*
X254718092Y-120137000D01*
X240818092Y-120137000D01*
X240593439Y-120137000D01*
X240526400Y-120117315D01*
X240480645Y-120064511D01*
X240470701Y-119995353D01*
X240471287Y-119991674D01*
X240691700Y-118729185D01*
X240691699Y-118729183D01*
X240691700Y-118729181D01*
X240463235Y-118158053D01*
X240456613Y-118088500D01*
X240488646Y-118026406D01*
X240549165Y-117991487D01*
X240578366Y-117988000D01*
X254718097Y-117988000D01*
X254951368Y-117951053D01*
X254967978Y-117945656D01*
X255175992Y-117878068D01*
X255386433Y-117770843D01*
X255577510Y-117632017D01*
X255744517Y-117465010D01*
X255883343Y-117273933D01*
X255990568Y-117063492D01*
X256063553Y-116838868D01*
X256084799Y-116704728D01*
X256100500Y-116605597D01*
X256100500Y-102469402D01*
X256063553Y-102236131D01*
X255990566Y-102011503D01*
X255883342Y-101801066D01*
X255744517Y-101609990D01*
X255577510Y-101442983D01*
X255386433Y-101304157D01*
X255175996Y-101196933D01*
X254951368Y-101123946D01*
X254718097Y-101087000D01*
X254718092Y-101087000D01*
X240818092Y-101087000D01*
X240581908Y-101087000D01*
X240581903Y-101087000D01*
X240348631Y-101123946D01*
X240124003Y-101196933D01*
X239913566Y-101304157D01*
X239804550Y-101383362D01*
X239722490Y-101442983D01*
X239722488Y-101442985D01*
X239722487Y-101442985D01*
X239555485Y-101609987D01*
X239555485Y-101609988D01*
X239555483Y-101609990D01*
X239495862Y-101692050D01*
X239416657Y-101801066D01*
X239309433Y-102011503D01*
X239236446Y-102236131D01*
X239199500Y-102469402D01*
X239199500Y-116578543D01*
X239179815Y-116645582D01*
X239127011Y-116691337D01*
X239057853Y-116701281D01*
X239005374Y-116680809D01*
X238880243Y-116595003D01*
X238741700Y-116500000D01*
X238741699Y-116500000D01*
X238374806Y-116522348D01*
X237182038Y-116595002D01*
X237113927Y-116579430D01*
X237065046Y-116529506D01*
X237050500Y-116471232D01*
X237050500Y-102469402D01*
X237013553Y-102236131D01*
X236940566Y-102011503D01*
X236833342Y-101801066D01*
X236694517Y-101609990D01*
X236527510Y-101442983D01*
X236336433Y-101304157D01*
X236125996Y-101196933D01*
X235901368Y-101123946D01*
X235668097Y-101087000D01*
X235668092Y-101087000D01*
X221768092Y-101087000D01*
X221531908Y-101087000D01*
X221531903Y-101087000D01*
X221298631Y-101123946D01*
X221074003Y-101196933D01*
X220863566Y-101304157D01*
X220754550Y-101383362D01*
X220672490Y-101442983D01*
X220672488Y-101442985D01*
X220672487Y-101442985D01*
X220505485Y-101609987D01*
X220505485Y-101609988D01*
X220505483Y-101609990D01*
X220445862Y-101692050D01*
X220366657Y-101801066D01*
X220259433Y-102011503D01*
X220186446Y-102236131D01*
X220149500Y-102469402D01*
X218000500Y-102469402D01*
X217963553Y-102236131D01*
X217890566Y-102011503D01*
X217783342Y-101801066D01*
X217644517Y-101609990D01*
X217477510Y-101442983D01*
X217286433Y-101304157D01*
X217075996Y-101196933D01*
X216851368Y-101123946D01*
X216618097Y-101087000D01*
X216618092Y-101087000D01*
X202718092Y-101087000D01*
X202481908Y-101087000D01*
X202481903Y-101087000D01*
X202248631Y-101123946D01*
X202024003Y-101196933D01*
X201813566Y-101304157D01*
X201704550Y-101383362D01*
X201622490Y-101442983D01*
X201622488Y-101442985D01*
X201622487Y-101442985D01*
X201455485Y-101609987D01*
X201455485Y-101609988D01*
X201455483Y-101609990D01*
X201395862Y-101692050D01*
X201316657Y-101801066D01*
X201209433Y-102011503D01*
X201136446Y-102236131D01*
X201099500Y-102469402D01*
X198950500Y-102469402D01*
X198913553Y-102236131D01*
X198840566Y-102011503D01*
X198733342Y-101801066D01*
X198594517Y-101609990D01*
X198427510Y-101442983D01*
X198236433Y-101304157D01*
X198025996Y-101196933D01*
X197801368Y-101123946D01*
X197568097Y-101087000D01*
X197568092Y-101087000D01*
X183668092Y-101087000D01*
X183431908Y-101087000D01*
X183431903Y-101087000D01*
X183198631Y-101123946D01*
X182974003Y-101196933D01*
X182763566Y-101304157D01*
X182654550Y-101383362D01*
X182572490Y-101442983D01*
X182572488Y-101442985D01*
X182572487Y-101442985D01*
X182405485Y-101609987D01*
X182405485Y-101609988D01*
X182405483Y-101609990D01*
X182345862Y-101692050D01*
X182266657Y-101801066D01*
X182159433Y-102011503D01*
X182086446Y-102236131D01*
X182049500Y-102469402D01*
X182049500Y-116544256D01*
X182029815Y-116611295D01*
X181977011Y-116657050D01*
X181907853Y-116666994D01*
X181855374Y-116646522D01*
X181757533Y-116579430D01*
X181641700Y-116500000D01*
X181641699Y-116500000D01*
X181487413Y-116509397D01*
X180032037Y-116598048D01*
X179963927Y-116582476D01*
X179915046Y-116532552D01*
X179900500Y-116474278D01*
X179900500Y-102469402D01*
X179863553Y-102236131D01*
X179790566Y-102011503D01*
X179683342Y-101801066D01*
X179544517Y-101609990D01*
X179377510Y-101442983D01*
X179186433Y-101304157D01*
X178975996Y-101196933D01*
X178751368Y-101123946D01*
X178518097Y-101087000D01*
X178518092Y-101087000D01*
X164618092Y-101087000D01*
X164381908Y-101087000D01*
X164381903Y-101087000D01*
X164148631Y-101123946D01*
X163924003Y-101196933D01*
X163713566Y-101304157D01*
X163604550Y-101383362D01*
X163522490Y-101442983D01*
X163522488Y-101442985D01*
X163522487Y-101442985D01*
X163355485Y-101609987D01*
X163355485Y-101609988D01*
X163355483Y-101609990D01*
X163295862Y-101692050D01*
X163216657Y-101801066D01*
X163109433Y-102011503D01*
X163036446Y-102236131D01*
X162999500Y-102469402D01*
X160850500Y-102469402D01*
X160813553Y-102236131D01*
X160740566Y-102011503D01*
X160633342Y-101801066D01*
X160494517Y-101609990D01*
X160327510Y-101442983D01*
X160136433Y-101304157D01*
X159925996Y-101196933D01*
X159701368Y-101123946D01*
X159468097Y-101087000D01*
X159468092Y-101087000D01*
X145568092Y-101087000D01*
X145331908Y-101087000D01*
X145331903Y-101087000D01*
X145098631Y-101123946D01*
X144874003Y-101196933D01*
X144663566Y-101304157D01*
X144554550Y-101383362D01*
X144472490Y-101442983D01*
X144472488Y-101442985D01*
X144472487Y-101442985D01*
X144305485Y-101609987D01*
X144305485Y-101609988D01*
X144305483Y-101609990D01*
X144245862Y-101692050D01*
X144166657Y-101801066D01*
X144059433Y-102011503D01*
X143986446Y-102236131D01*
X143949500Y-102469402D01*
X143949500Y-116544256D01*
X143929815Y-116611295D01*
X143877011Y-116657050D01*
X143807853Y-116666994D01*
X143755374Y-116646522D01*
X143657533Y-116579430D01*
X143541700Y-116500000D01*
X143541699Y-116500000D01*
X143387413Y-116509397D01*
X141932037Y-116598048D01*
X141863927Y-116582476D01*
X141815046Y-116532552D01*
X141800500Y-116474278D01*
X141800500Y-102469402D01*
X141763553Y-102236131D01*
X141690566Y-102011503D01*
X141583342Y-101801066D01*
X141444517Y-101609990D01*
X141277510Y-101442983D01*
X141086433Y-101304157D01*
X140875996Y-101196933D01*
X140651368Y-101123946D01*
X140418097Y-101087000D01*
X140418092Y-101087000D01*
X126518092Y-101087000D01*
X126281908Y-101087000D01*
X126281903Y-101087000D01*
X126048631Y-101123946D01*
X125824003Y-101196933D01*
X125613566Y-101304157D01*
X125504550Y-101383362D01*
X125422490Y-101442983D01*
X125422488Y-101442985D01*
X125422487Y-101442985D01*
X125255485Y-101609987D01*
X125255485Y-101609988D01*
X125255483Y-101609990D01*
X125195862Y-101692050D01*
X125116657Y-101801066D01*
X125009433Y-102011503D01*
X124936446Y-102236131D01*
X124899500Y-102469402D01*
X122750500Y-102469402D01*
X122713553Y-102236131D01*
X122640566Y-102011503D01*
X122533342Y-101801066D01*
X122394517Y-101609990D01*
X122227510Y-101442983D01*
X122036433Y-101304157D01*
X121825996Y-101196933D01*
X121601368Y-101123946D01*
X121368097Y-101087000D01*
X121368092Y-101087000D01*
X107468092Y-101087000D01*
X107231908Y-101087000D01*
X107231903Y-101087000D01*
X106998631Y-101123946D01*
X106774003Y-101196933D01*
X106563566Y-101304157D01*
X106454550Y-101383362D01*
X106372490Y-101442983D01*
X106372488Y-101442985D01*
X106372487Y-101442985D01*
X106205485Y-101609987D01*
X106205485Y-101609988D01*
X106205483Y-101609990D01*
X106145862Y-101692050D01*
X106066657Y-101801066D01*
X105959433Y-102011503D01*
X105886446Y-102236131D01*
X105849500Y-102469402D01*
X105849500Y-116544256D01*
X105829815Y-116611295D01*
X105777011Y-116657050D01*
X105707853Y-116666994D01*
X105655374Y-116646522D01*
X105557533Y-116579430D01*
X105441700Y-116500000D01*
X105441699Y-116500000D01*
X105287413Y-116509397D01*
X103832037Y-116598048D01*
X103763927Y-116582476D01*
X103715046Y-116532552D01*
X103700500Y-116474278D01*
X103700500Y-102469402D01*
X103663553Y-102236131D01*
X103590566Y-102011503D01*
X103483342Y-101801066D01*
X103344517Y-101609990D01*
X103177510Y-101442983D01*
X102986433Y-101304157D01*
X102775996Y-101196933D01*
X102551368Y-101123946D01*
X102318097Y-101087000D01*
X102318092Y-101087000D01*
X88418092Y-101087000D01*
X88181908Y-101087000D01*
X88181903Y-101087000D01*
X87948631Y-101123946D01*
X87724003Y-101196933D01*
X87513566Y-101304157D01*
X87404550Y-101383362D01*
X87322490Y-101442983D01*
X87322488Y-101442985D01*
X87322487Y-101442985D01*
X87155485Y-101609987D01*
X87155485Y-101609988D01*
X87155483Y-101609990D01*
X87095862Y-101692050D01*
X87016657Y-101801066D01*
X86909433Y-102011503D01*
X86836446Y-102236131D01*
X86799500Y-102469402D01*
X84650500Y-102469402D01*
X84613553Y-102236131D01*
X84540566Y-102011503D01*
X84433342Y-101801066D01*
X84294517Y-101609990D01*
X84127510Y-101442983D01*
X83936433Y-101304157D01*
X83725996Y-101196933D01*
X83501368Y-101123946D01*
X83268097Y-101087000D01*
X83268092Y-101087000D01*
X69368092Y-101087000D01*
X69131908Y-101087000D01*
X69131903Y-101087000D01*
X68898631Y-101123946D01*
X68674003Y-101196933D01*
X68463566Y-101304157D01*
X68354550Y-101383362D01*
X68272490Y-101442983D01*
X68272488Y-101442985D01*
X68272487Y-101442985D01*
X68105485Y-101609987D01*
X68105485Y-101609988D01*
X68105483Y-101609990D01*
X68045862Y-101692050D01*
X67966657Y-101801066D01*
X67859433Y-102011503D01*
X67786446Y-102236131D01*
X67749500Y-102469402D01*
X65600500Y-102469402D01*
X65563553Y-102236131D01*
X65490566Y-102011503D01*
X65383342Y-101801066D01*
X65244517Y-101609990D01*
X65077510Y-101442983D01*
X64886433Y-101304157D01*
X64675996Y-101196933D01*
X64451368Y-101123946D01*
X64218097Y-101087000D01*
X64218092Y-101087000D01*
X50318092Y-101087000D01*
X50081908Y-101087000D01*
X50081903Y-101087000D01*
X49848631Y-101123946D01*
X49624003Y-101196933D01*
X49413566Y-101304157D01*
X49304550Y-101383362D01*
X49222490Y-101442983D01*
X49222488Y-101442985D01*
X49222487Y-101442985D01*
X49055485Y-101609987D01*
X49055485Y-101609988D01*
X49055483Y-101609990D01*
X48995862Y-101692050D01*
X48916657Y-101801066D01*
X48809433Y-102011503D01*
X48736446Y-102236131D01*
X48699500Y-102469402D01*
X48699500Y-116578543D01*
X48679815Y-116645582D01*
X48627011Y-116691337D01*
X48557853Y-116701281D01*
X48505374Y-116680809D01*
X48380243Y-116595003D01*
X48241700Y-116500000D01*
X48241699Y-116500000D01*
X47874806Y-116522348D01*
X46682038Y-116595002D01*
X46613927Y-116579430D01*
X46565046Y-116529506D01*
X46550500Y-116471232D01*
X46550500Y-102469402D01*
X46513553Y-102236131D01*
X46440566Y-102011503D01*
X46333342Y-101801066D01*
X46194517Y-101609990D01*
X46027510Y-101442983D01*
X45836433Y-101304157D01*
X45625996Y-101196933D01*
X45401368Y-101123946D01*
X45168097Y-101087000D01*
X45168092Y-101087000D01*
X31268092Y-101087000D01*
X31031908Y-101087000D01*
X31031903Y-101087000D01*
X30798631Y-101123946D01*
X30574003Y-101196933D01*
X30363566Y-101304157D01*
X30254550Y-101383362D01*
X30172490Y-101442983D01*
X30172488Y-101442985D01*
X30172487Y-101442985D01*
X30005485Y-101609987D01*
X30005485Y-101609988D01*
X30005483Y-101609990D01*
X29945862Y-101692050D01*
X29866657Y-101801066D01*
X29759433Y-102011503D01*
X29686446Y-102236131D01*
X29649500Y-102469402D01*
X28875500Y-102469402D01*
X28875500Y-64369402D01*
X29649500Y-64369402D01*
X29649500Y-78505597D01*
X29686446Y-78738868D01*
X29759433Y-78963496D01*
X29866657Y-79173933D01*
X30005483Y-79365010D01*
X30172490Y-79532017D01*
X30363567Y-79670843D01*
X30462991Y-79721502D01*
X30574003Y-79778066D01*
X30574005Y-79778066D01*
X30574008Y-79778068D01*
X30694412Y-79817189D01*
X30798631Y-79851053D01*
X31031903Y-79888000D01*
X45171704Y-79888000D01*
X45238743Y-79907685D01*
X45284498Y-79960489D01*
X45294442Y-80029647D01*
X45287542Y-80056244D01*
X44938920Y-80968985D01*
X44938919Y-80968987D01*
X45251878Y-81872411D01*
X45255222Y-81942201D01*
X45220304Y-82002719D01*
X45158210Y-82034753D01*
X45134709Y-82037000D01*
X31031903Y-82037000D01*
X30798631Y-82073946D01*
X30574003Y-82146933D01*
X30363566Y-82254157D01*
X30254550Y-82333362D01*
X30172490Y-82392983D01*
X30172488Y-82392985D01*
X30172487Y-82392985D01*
X30005485Y-82559987D01*
X30005485Y-82559988D01*
X30005483Y-82559990D01*
X29945862Y-82642050D01*
X29866657Y-82751066D01*
X29759433Y-82961503D01*
X29686446Y-83186131D01*
X29649500Y-83419402D01*
X29649500Y-97555597D01*
X29686446Y-97788868D01*
X29759433Y-98013496D01*
X29866657Y-98223933D01*
X30005483Y-98415010D01*
X30172490Y-98582017D01*
X30363567Y-98720843D01*
X30462991Y-98771502D01*
X30574003Y-98828066D01*
X30574005Y-98828066D01*
X30574008Y-98828068D01*
X30694412Y-98867189D01*
X30798631Y-98901053D01*
X31031903Y-98938000D01*
X31031908Y-98938000D01*
X45168097Y-98938000D01*
X45401368Y-98901053D01*
X45625992Y-98828068D01*
X45836433Y-98720843D01*
X46027510Y-98582017D01*
X46194517Y-98415010D01*
X46333343Y-98223933D01*
X46440568Y-98013492D01*
X46513553Y-97788868D01*
X46550500Y-97555597D01*
X46550500Y-83466561D01*
X46570185Y-83399522D01*
X46622989Y-83353767D01*
X46692147Y-83343823D01*
X46692659Y-83343898D01*
X48400000Y-83600000D01*
X48494291Y-83518280D01*
X48557841Y-83489251D01*
X48627000Y-83499188D01*
X48679809Y-83544937D01*
X48699500Y-83611975D01*
X48699500Y-97555597D01*
X48736446Y-97788868D01*
X48809433Y-98013496D01*
X48916657Y-98223933D01*
X49055483Y-98415010D01*
X49222490Y-98582017D01*
X49413567Y-98720843D01*
X49512991Y-98771502D01*
X49624003Y-98828066D01*
X49624005Y-98828066D01*
X49624008Y-98828068D01*
X49744412Y-98867189D01*
X49848631Y-98901053D01*
X50081903Y-98938000D01*
X50081908Y-98938000D01*
X64218097Y-98938000D01*
X64451368Y-98901053D01*
X64675992Y-98828068D01*
X64886433Y-98720843D01*
X65077510Y-98582017D01*
X65244517Y-98415010D01*
X65383343Y-98223933D01*
X65490568Y-98013492D01*
X65563553Y-97788868D01*
X65600500Y-97555597D01*
X65600500Y-83419402D01*
X67749500Y-83419402D01*
X67749500Y-97555597D01*
X67786446Y-97788868D01*
X67859433Y-98013496D01*
X67966657Y-98223933D01*
X68105483Y-98415010D01*
X68272490Y-98582017D01*
X68463567Y-98720843D01*
X68562991Y-98771502D01*
X68674003Y-98828066D01*
X68674005Y-98828066D01*
X68674008Y-98828068D01*
X68794412Y-98867189D01*
X68898631Y-98901053D01*
X69131903Y-98938000D01*
X69131908Y-98938000D01*
X83268097Y-98938000D01*
X83501368Y-98901053D01*
X83725992Y-98828068D01*
X83936433Y-98720843D01*
X84127510Y-98582017D01*
X84294517Y-98415010D01*
X84433343Y-98223933D01*
X84540568Y-98013492D01*
X84613553Y-97788868D01*
X84650500Y-97555597D01*
X84650500Y-83419402D01*
X84613553Y-83186131D01*
X84540566Y-82961503D01*
X84433342Y-82751066D01*
X84294517Y-82559990D01*
X84127510Y-82392983D01*
X83936433Y-82254157D01*
X83725996Y-82146933D01*
X83501368Y-82073946D01*
X83268097Y-82037000D01*
X83268092Y-82037000D01*
X69368092Y-82037000D01*
X69131908Y-82037000D01*
X69131903Y-82037000D01*
X68898631Y-82073946D01*
X68674003Y-82146933D01*
X68463566Y-82254157D01*
X68354550Y-82333362D01*
X68272490Y-82392983D01*
X68272488Y-82392985D01*
X68272487Y-82392985D01*
X68105485Y-82559987D01*
X68105485Y-82559988D01*
X68105483Y-82559990D01*
X68045862Y-82642050D01*
X67966657Y-82751066D01*
X67859433Y-82961503D01*
X67786446Y-83186131D01*
X67749500Y-83419402D01*
X65600500Y-83419402D01*
X65563553Y-83186131D01*
X65490566Y-82961503D01*
X65383342Y-82751066D01*
X65244517Y-82559990D01*
X65077510Y-82392983D01*
X64886433Y-82254157D01*
X64675996Y-82146933D01*
X64451368Y-82073946D01*
X64218097Y-82037000D01*
X64218092Y-82037000D01*
X50318092Y-82037000D01*
X50093439Y-82037000D01*
X50026400Y-82017315D01*
X49980645Y-81964511D01*
X49970701Y-81895353D01*
X49971287Y-81891674D01*
X50191700Y-80629185D01*
X50191699Y-80629183D01*
X50191700Y-80629181D01*
X49963235Y-80058053D01*
X49956613Y-79988500D01*
X49988646Y-79926406D01*
X50049165Y-79891487D01*
X50078366Y-79888000D01*
X64218097Y-79888000D01*
X64451368Y-79851053D01*
X64467978Y-79845656D01*
X64675992Y-79778068D01*
X64886433Y-79670843D01*
X65077510Y-79532017D01*
X65244517Y-79365010D01*
X65383343Y-79173933D01*
X65490568Y-78963492D01*
X65563553Y-78738868D01*
X65584799Y-78604728D01*
X65600500Y-78505597D01*
X65600500Y-64369402D01*
X67749500Y-64369402D01*
X67749500Y-78505597D01*
X67786446Y-78738868D01*
X67859433Y-78963496D01*
X67966657Y-79173933D01*
X68105483Y-79365010D01*
X68272490Y-79532017D01*
X68463567Y-79670843D01*
X68562991Y-79721502D01*
X68674003Y-79778066D01*
X68674005Y-79778066D01*
X68674008Y-79778068D01*
X68794412Y-79817189D01*
X68898631Y-79851053D01*
X69131903Y-79888000D01*
X69131908Y-79888000D01*
X83268097Y-79888000D01*
X83501368Y-79851053D01*
X83517978Y-79845656D01*
X83725992Y-79778068D01*
X83936433Y-79670843D01*
X84127510Y-79532017D01*
X84294517Y-79365010D01*
X84433343Y-79173933D01*
X84540568Y-78963492D01*
X84613553Y-78738868D01*
X84634799Y-78604728D01*
X84650500Y-78505597D01*
X84650500Y-64369402D01*
X86799500Y-64369402D01*
X86799500Y-78505597D01*
X86836446Y-78738868D01*
X86909433Y-78963496D01*
X87016657Y-79173933D01*
X87155483Y-79365010D01*
X87322490Y-79532017D01*
X87513567Y-79670843D01*
X87612991Y-79721502D01*
X87724003Y-79778066D01*
X87724005Y-79778066D01*
X87724008Y-79778068D01*
X87844412Y-79817189D01*
X87948631Y-79851053D01*
X88181903Y-79888000D01*
X88181908Y-79888000D01*
X102318095Y-79888000D01*
X102341455Y-79884299D01*
X102355127Y-79882134D01*
X102424421Y-79891088D01*
X102477873Y-79936083D01*
X102498514Y-80002834D01*
X102490365Y-80048851D01*
X102138920Y-80968985D01*
X102138919Y-80968987D01*
X102452275Y-81873559D01*
X102455619Y-81943349D01*
X102420701Y-82003867D01*
X102358607Y-82035901D01*
X102323025Y-82036502D01*
X102322956Y-82037382D01*
X102318099Y-82037000D01*
X102318092Y-82037000D01*
X88418092Y-82037000D01*
X88181908Y-82037000D01*
X88181903Y-82037000D01*
X87948631Y-82073946D01*
X87724003Y-82146933D01*
X87513566Y-82254157D01*
X87404550Y-82333362D01*
X87322490Y-82392983D01*
X87322488Y-82392985D01*
X87322487Y-82392985D01*
X87155485Y-82559987D01*
X87155485Y-82559988D01*
X87155483Y-82559990D01*
X87095862Y-82642050D01*
X87016657Y-82751066D01*
X86909433Y-82961503D01*
X86836446Y-83186131D01*
X86799500Y-83419402D01*
X86799500Y-97555597D01*
X86836446Y-97788868D01*
X86909433Y-98013496D01*
X87016657Y-98223933D01*
X87155483Y-98415010D01*
X87322490Y-98582017D01*
X87513567Y-98720843D01*
X87612991Y-98771502D01*
X87724003Y-98828066D01*
X87724005Y-98828066D01*
X87724008Y-98828068D01*
X87844412Y-98867189D01*
X87948631Y-98901053D01*
X88181903Y-98938000D01*
X88181908Y-98938000D01*
X102318097Y-98938000D01*
X102551368Y-98901053D01*
X102775992Y-98828068D01*
X102986433Y-98720843D01*
X103177510Y-98582017D01*
X103344517Y-98415010D01*
X103483343Y-98223933D01*
X103590568Y-98013492D01*
X103663553Y-97788868D01*
X103700500Y-97555597D01*
X103700500Y-83459061D01*
X103720185Y-83392022D01*
X103772989Y-83346267D01*
X103842147Y-83336323D01*
X103842810Y-83336420D01*
X105600000Y-83600000D01*
X105644290Y-83561615D01*
X105707841Y-83532585D01*
X105777001Y-83542522D01*
X105829809Y-83588272D01*
X105849500Y-83655309D01*
X105849500Y-97555597D01*
X105886446Y-97788868D01*
X105959433Y-98013496D01*
X106066657Y-98223933D01*
X106205483Y-98415010D01*
X106372490Y-98582017D01*
X106563567Y-98720843D01*
X106662991Y-98771502D01*
X106774003Y-98828066D01*
X106774005Y-98828066D01*
X106774008Y-98828068D01*
X106894412Y-98867189D01*
X106998631Y-98901053D01*
X107231903Y-98938000D01*
X107231908Y-98938000D01*
X121368097Y-98938000D01*
X121601368Y-98901053D01*
X121825992Y-98828068D01*
X122036433Y-98720843D01*
X122227510Y-98582017D01*
X122394517Y-98415010D01*
X122533343Y-98223933D01*
X122640568Y-98013492D01*
X122713553Y-97788868D01*
X122750500Y-97555597D01*
X122750500Y-83419402D01*
X122713553Y-83186131D01*
X122640566Y-82961503D01*
X122533342Y-82751066D01*
X122394517Y-82559990D01*
X122227510Y-82392983D01*
X122036433Y-82254157D01*
X121825996Y-82146933D01*
X121601368Y-82073946D01*
X121368097Y-82037000D01*
X121368092Y-82037000D01*
X107468092Y-82037000D01*
X107293439Y-82037000D01*
X107226400Y-82017315D01*
X107180645Y-81964511D01*
X107170701Y-81895353D01*
X107171287Y-81891674D01*
X107391700Y-80629185D01*
X107391699Y-80629183D01*
X107391700Y-80629181D01*
X107163237Y-80058055D01*
X107156614Y-79988499D01*
X107188647Y-79926406D01*
X107249166Y-79891487D01*
X107278367Y-79888000D01*
X121368097Y-79888000D01*
X121601368Y-79851053D01*
X121617978Y-79845656D01*
X121825992Y-79778068D01*
X122036433Y-79670843D01*
X122227510Y-79532017D01*
X122394517Y-79365010D01*
X122533343Y-79173933D01*
X122640568Y-78963492D01*
X122713553Y-78738868D01*
X122734799Y-78604728D01*
X122750500Y-78505597D01*
X122750500Y-64369402D01*
X124899500Y-64369402D01*
X124899500Y-78505597D01*
X124936446Y-78738868D01*
X125009433Y-78963496D01*
X125116657Y-79173933D01*
X125255483Y-79365010D01*
X125422490Y-79532017D01*
X125613567Y-79670843D01*
X125712991Y-79721502D01*
X125824003Y-79778066D01*
X125824005Y-79778066D01*
X125824008Y-79778068D01*
X125944412Y-79817189D01*
X126048631Y-79851053D01*
X126281903Y-79888000D01*
X126281908Y-79888000D01*
X140418095Y-79888000D01*
X140441455Y-79884299D01*
X140455127Y-79882134D01*
X140524421Y-79891088D01*
X140577873Y-79936083D01*
X140598514Y-80002834D01*
X140590365Y-80048851D01*
X140238920Y-80968985D01*
X140238919Y-80968987D01*
X140552275Y-81873559D01*
X140555619Y-81943349D01*
X140520701Y-82003867D01*
X140458607Y-82035901D01*
X140423025Y-82036502D01*
X140422956Y-82037382D01*
X140418099Y-82037000D01*
X140418092Y-82037000D01*
X126518092Y-82037000D01*
X126281908Y-82037000D01*
X126281903Y-82037000D01*
X126048631Y-82073946D01*
X125824003Y-82146933D01*
X125613566Y-82254157D01*
X125504550Y-82333362D01*
X125422490Y-82392983D01*
X125422488Y-82392985D01*
X125422487Y-82392985D01*
X125255485Y-82559987D01*
X125255485Y-82559988D01*
X125255483Y-82559990D01*
X125195862Y-82642050D01*
X125116657Y-82751066D01*
X125009433Y-82961503D01*
X124936446Y-83186131D01*
X124899500Y-83419402D01*
X124899500Y-97555597D01*
X124936446Y-97788868D01*
X125009433Y-98013496D01*
X125116657Y-98223933D01*
X125255483Y-98415010D01*
X125422490Y-98582017D01*
X125613567Y-98720843D01*
X125712991Y-98771502D01*
X125824003Y-98828066D01*
X125824005Y-98828066D01*
X125824008Y-98828068D01*
X125944412Y-98867189D01*
X126048631Y-98901053D01*
X126281903Y-98938000D01*
X126281908Y-98938000D01*
X140418097Y-98938000D01*
X140651368Y-98901053D01*
X140875992Y-98828068D01*
X141086433Y-98720843D01*
X141277510Y-98582017D01*
X141444517Y-98415010D01*
X141583343Y-98223933D01*
X141690568Y-98013492D01*
X141763553Y-97788868D01*
X141800500Y-97555597D01*
X141800500Y-83459061D01*
X141820185Y-83392022D01*
X141872989Y-83346267D01*
X141942147Y-83336323D01*
X141942810Y-83336420D01*
X143700000Y-83600000D01*
X143744290Y-83561615D01*
X143807841Y-83532585D01*
X143877001Y-83542522D01*
X143929809Y-83588272D01*
X143949500Y-83655309D01*
X143949500Y-97555597D01*
X143986446Y-97788868D01*
X144059433Y-98013496D01*
X144166657Y-98223933D01*
X144305483Y-98415010D01*
X144472490Y-98582017D01*
X144663567Y-98720843D01*
X144762991Y-98771502D01*
X144874003Y-98828066D01*
X144874005Y-98828066D01*
X144874008Y-98828068D01*
X144994412Y-98867189D01*
X145098631Y-98901053D01*
X145331903Y-98938000D01*
X145331908Y-98938000D01*
X159468097Y-98938000D01*
X159701368Y-98901053D01*
X159925992Y-98828068D01*
X160136433Y-98720843D01*
X160327510Y-98582017D01*
X160494517Y-98415010D01*
X160633343Y-98223933D01*
X160740568Y-98013492D01*
X160813553Y-97788868D01*
X160850500Y-97555597D01*
X160850500Y-83419402D01*
X160813553Y-83186131D01*
X160740566Y-82961503D01*
X160633342Y-82751066D01*
X160494517Y-82559990D01*
X160327510Y-82392983D01*
X160136433Y-82254157D01*
X159925996Y-82146933D01*
X159701368Y-82073946D01*
X159468097Y-82037000D01*
X159468092Y-82037000D01*
X145568092Y-82037000D01*
X145393439Y-82037000D01*
X145326400Y-82017315D01*
X145280645Y-81964511D01*
X145270701Y-81895353D01*
X145271287Y-81891674D01*
X145491700Y-80629185D01*
X145491699Y-80629183D01*
X145491700Y-80629181D01*
X145263237Y-80058055D01*
X145256614Y-79988499D01*
X145288647Y-79926406D01*
X145349166Y-79891487D01*
X145378367Y-79888000D01*
X159468097Y-79888000D01*
X159701368Y-79851053D01*
X159717978Y-79845656D01*
X159925992Y-79778068D01*
X160136433Y-79670843D01*
X160327510Y-79532017D01*
X160494517Y-79365010D01*
X160633343Y-79173933D01*
X160740568Y-78963492D01*
X160813553Y-78738868D01*
X160834799Y-78604728D01*
X160850500Y-78505597D01*
X160850500Y-64369402D01*
X162999500Y-64369402D01*
X162999500Y-78505597D01*
X163036446Y-78738868D01*
X163109433Y-78963496D01*
X163216657Y-79173933D01*
X163355483Y-79365010D01*
X163522490Y-79532017D01*
X163713567Y-79670843D01*
X163812991Y-79721502D01*
X163924003Y-79778066D01*
X163924005Y-79778066D01*
X163924008Y-79778068D01*
X164044412Y-79817189D01*
X164148631Y-79851053D01*
X164381903Y-79888000D01*
X164381908Y-79888000D01*
X178518095Y-79888000D01*
X178541455Y-79884299D01*
X178555127Y-79882134D01*
X178624421Y-79891088D01*
X178677873Y-79936083D01*
X178698514Y-80002834D01*
X178690365Y-80048851D01*
X178338920Y-80968985D01*
X178338919Y-80968987D01*
X178652275Y-81873559D01*
X178655619Y-81943349D01*
X178620701Y-82003867D01*
X178558607Y-82035901D01*
X178523025Y-82036502D01*
X178522956Y-82037382D01*
X178518099Y-82037000D01*
X178518092Y-82037000D01*
X164618092Y-82037000D01*
X164381908Y-82037000D01*
X164381903Y-82037000D01*
X164148631Y-82073946D01*
X163924003Y-82146933D01*
X163713566Y-82254157D01*
X163604550Y-82333362D01*
X163522490Y-82392983D01*
X163522488Y-82392985D01*
X163522487Y-82392985D01*
X163355485Y-82559987D01*
X163355485Y-82559988D01*
X163355483Y-82559990D01*
X163295862Y-82642050D01*
X163216657Y-82751066D01*
X163109433Y-82961503D01*
X163036446Y-83186131D01*
X162999500Y-83419402D01*
X162999500Y-97555597D01*
X163036446Y-97788868D01*
X163109433Y-98013496D01*
X163216657Y-98223933D01*
X163355483Y-98415010D01*
X163522490Y-98582017D01*
X163713567Y-98720843D01*
X163812991Y-98771502D01*
X163924003Y-98828066D01*
X163924005Y-98828066D01*
X163924008Y-98828068D01*
X164044412Y-98867189D01*
X164148631Y-98901053D01*
X164381903Y-98938000D01*
X164381908Y-98938000D01*
X178518097Y-98938000D01*
X178751368Y-98901053D01*
X178975992Y-98828068D01*
X179186433Y-98720843D01*
X179377510Y-98582017D01*
X179544517Y-98415010D01*
X179683343Y-98223933D01*
X179790568Y-98013492D01*
X179863553Y-97788868D01*
X179900500Y-97555597D01*
X179900500Y-83459061D01*
X179920185Y-83392022D01*
X179972989Y-83346267D01*
X180042147Y-83336323D01*
X180042810Y-83336420D01*
X181800000Y-83600000D01*
X181844290Y-83561615D01*
X181907841Y-83532585D01*
X181977001Y-83542522D01*
X182029809Y-83588272D01*
X182049500Y-83655309D01*
X182049500Y-97555597D01*
X182086446Y-97788868D01*
X182159433Y-98013496D01*
X182266657Y-98223933D01*
X182405483Y-98415010D01*
X182572490Y-98582017D01*
X182763567Y-98720843D01*
X182862991Y-98771502D01*
X182974003Y-98828066D01*
X182974005Y-98828066D01*
X182974008Y-98828068D01*
X183094412Y-98867189D01*
X183198631Y-98901053D01*
X183431903Y-98938000D01*
X183431908Y-98938000D01*
X197568097Y-98938000D01*
X197801368Y-98901053D01*
X198025992Y-98828068D01*
X198236433Y-98720843D01*
X198427510Y-98582017D01*
X198594517Y-98415010D01*
X198733343Y-98223933D01*
X198840568Y-98013492D01*
X198913553Y-97788868D01*
X198950500Y-97555597D01*
X198950500Y-83419402D01*
X201099500Y-83419402D01*
X201099500Y-97555597D01*
X201136446Y-97788868D01*
X201209433Y-98013496D01*
X201316657Y-98223933D01*
X201455483Y-98415010D01*
X201622490Y-98582017D01*
X201813567Y-98720843D01*
X201912991Y-98771502D01*
X202024003Y-98828066D01*
X202024005Y-98828066D01*
X202024008Y-98828068D01*
X202144412Y-98867189D01*
X202248631Y-98901053D01*
X202481903Y-98938000D01*
X202481908Y-98938000D01*
X216618097Y-98938000D01*
X216851368Y-98901053D01*
X217075992Y-98828068D01*
X217286433Y-98720843D01*
X217477510Y-98582017D01*
X217644517Y-98415010D01*
X217783343Y-98223933D01*
X217890568Y-98013492D01*
X217963553Y-97788868D01*
X218000500Y-97555597D01*
X218000500Y-83419402D01*
X217963553Y-83186131D01*
X217890566Y-82961503D01*
X217783342Y-82751066D01*
X217644517Y-82559990D01*
X217477510Y-82392983D01*
X217286433Y-82254157D01*
X217075996Y-82146933D01*
X216851368Y-82073946D01*
X216618097Y-82037000D01*
X216618092Y-82037000D01*
X202718092Y-82037000D01*
X202481908Y-82037000D01*
X202481903Y-82037000D01*
X202248631Y-82073946D01*
X202024003Y-82146933D01*
X201813566Y-82254157D01*
X201704550Y-82333362D01*
X201622490Y-82392983D01*
X201622488Y-82392985D01*
X201622487Y-82392985D01*
X201455485Y-82559987D01*
X201455485Y-82559988D01*
X201455483Y-82559990D01*
X201395862Y-82642050D01*
X201316657Y-82751066D01*
X201209433Y-82961503D01*
X201136446Y-83186131D01*
X201099500Y-83419402D01*
X198950500Y-83419402D01*
X198913553Y-83186131D01*
X198840566Y-82961503D01*
X198733342Y-82751066D01*
X198594517Y-82559990D01*
X198427510Y-82392983D01*
X198236433Y-82254157D01*
X198025996Y-82146933D01*
X197801368Y-82073946D01*
X197568097Y-82037000D01*
X197568092Y-82037000D01*
X183668092Y-82037000D01*
X183493439Y-82037000D01*
X183426400Y-82017315D01*
X183380645Y-81964511D01*
X183370701Y-81895353D01*
X183371287Y-81891674D01*
X183591700Y-80629185D01*
X183591699Y-80629183D01*
X183591700Y-80629181D01*
X183363237Y-80058055D01*
X183356614Y-79988499D01*
X183388647Y-79926406D01*
X183449166Y-79891487D01*
X183478367Y-79888000D01*
X197568097Y-79888000D01*
X197801368Y-79851053D01*
X197817978Y-79845656D01*
X198025992Y-79778068D01*
X198236433Y-79670843D01*
X198427510Y-79532017D01*
X198594517Y-79365010D01*
X198733343Y-79173933D01*
X198840568Y-78963492D01*
X198913553Y-78738868D01*
X198934799Y-78604728D01*
X198950500Y-78505597D01*
X198950500Y-64369402D01*
X201099500Y-64369402D01*
X201099500Y-78505597D01*
X201136446Y-78738868D01*
X201209433Y-78963496D01*
X201316657Y-79173933D01*
X201455483Y-79365010D01*
X201622490Y-79532017D01*
X201813567Y-79670843D01*
X201912991Y-79721502D01*
X202024003Y-79778066D01*
X202024005Y-79778066D01*
X202024008Y-79778068D01*
X202144412Y-79817189D01*
X202248631Y-79851053D01*
X202481903Y-79888000D01*
X202481908Y-79888000D01*
X216618097Y-79888000D01*
X216851368Y-79851053D01*
X216867978Y-79845656D01*
X217075992Y-79778068D01*
X217286433Y-79670843D01*
X217477510Y-79532017D01*
X217644517Y-79365010D01*
X217783343Y-79173933D01*
X217890568Y-78963492D01*
X217963553Y-78738868D01*
X217984799Y-78604728D01*
X218000500Y-78505597D01*
X218000500Y-64369402D01*
X220149500Y-64369402D01*
X220149500Y-78505597D01*
X220186446Y-78738868D01*
X220259433Y-78963496D01*
X220366657Y-79173933D01*
X220505483Y-79365010D01*
X220672490Y-79532017D01*
X220863567Y-79670843D01*
X220962991Y-79721502D01*
X221074003Y-79778066D01*
X221074005Y-79778066D01*
X221074008Y-79778068D01*
X221194412Y-79817189D01*
X221298631Y-79851053D01*
X221531903Y-79888000D01*
X235671704Y-79888000D01*
X235738743Y-79907685D01*
X235784498Y-79960489D01*
X235794442Y-80029647D01*
X235787542Y-80056244D01*
X235438920Y-80968985D01*
X235438919Y-80968987D01*
X235751878Y-81872411D01*
X235755222Y-81942201D01*
X235720304Y-82002719D01*
X235658210Y-82034753D01*
X235634709Y-82037000D01*
X221531903Y-82037000D01*
X221298631Y-82073946D01*
X221074003Y-82146933D01*
X220863566Y-82254157D01*
X220754550Y-82333362D01*
X220672490Y-82392983D01*
X220672488Y-82392985D01*
X220672487Y-82392985D01*
X220505485Y-82559987D01*
X220505485Y-82559988D01*
X220505483Y-82559990D01*
X220445862Y-82642050D01*
X220366657Y-82751066D01*
X220259433Y-82961503D01*
X220186446Y-83186131D01*
X220149500Y-83419402D01*
X220149500Y-97555597D01*
X220186446Y-97788868D01*
X220259433Y-98013496D01*
X220366657Y-98223933D01*
X220505483Y-98415010D01*
X220672490Y-98582017D01*
X220863567Y-98720843D01*
X220962991Y-98771502D01*
X221074003Y-98828066D01*
X221074005Y-98828066D01*
X221074008Y-98828068D01*
X221194412Y-98867189D01*
X221298631Y-98901053D01*
X221531903Y-98938000D01*
X221531908Y-98938000D01*
X235668097Y-98938000D01*
X235901368Y-98901053D01*
X236125992Y-98828068D01*
X236336433Y-98720843D01*
X236527510Y-98582017D01*
X236694517Y-98415010D01*
X236833343Y-98223933D01*
X236940568Y-98013492D01*
X237013553Y-97788868D01*
X237050500Y-97555597D01*
X237050500Y-83466561D01*
X237070185Y-83399522D01*
X237122989Y-83353767D01*
X237192147Y-83343823D01*
X237192659Y-83343898D01*
X238900000Y-83600000D01*
X238994291Y-83518280D01*
X239057841Y-83489251D01*
X239127000Y-83499188D01*
X239179809Y-83544937D01*
X239199500Y-83611975D01*
X239199500Y-97555597D01*
X239236446Y-97788868D01*
X239309433Y-98013496D01*
X239416657Y-98223933D01*
X239555483Y-98415010D01*
X239722490Y-98582017D01*
X239913567Y-98720843D01*
X240012991Y-98771502D01*
X240124003Y-98828066D01*
X240124005Y-98828066D01*
X240124008Y-98828068D01*
X240244412Y-98867189D01*
X240348631Y-98901053D01*
X240581903Y-98938000D01*
X240581908Y-98938000D01*
X254718097Y-98938000D01*
X254951368Y-98901053D01*
X255175992Y-98828068D01*
X255386433Y-98720843D01*
X255577510Y-98582017D01*
X255744517Y-98415010D01*
X255883343Y-98223933D01*
X255990568Y-98013492D01*
X256063553Y-97788868D01*
X256100500Y-97555597D01*
X256100500Y-83419402D01*
X256063553Y-83186131D01*
X255990566Y-82961503D01*
X255883342Y-82751066D01*
X255744517Y-82559990D01*
X255577510Y-82392983D01*
X255386433Y-82254157D01*
X255175996Y-82146933D01*
X254951368Y-82073946D01*
X254718097Y-82037000D01*
X254718092Y-82037000D01*
X240818092Y-82037000D01*
X240593439Y-82037000D01*
X240526400Y-82017315D01*
X240480645Y-81964511D01*
X240470701Y-81895353D01*
X240471287Y-81891674D01*
X240691700Y-80629185D01*
X240691699Y-80629183D01*
X240691700Y-80629181D01*
X240463235Y-80058053D01*
X240456613Y-79988500D01*
X240488646Y-79926406D01*
X240549165Y-79891487D01*
X240578366Y-79888000D01*
X254718097Y-79888000D01*
X254951368Y-79851053D01*
X254967978Y-79845656D01*
X255175992Y-79778068D01*
X255386433Y-79670843D01*
X255577510Y-79532017D01*
X255744517Y-79365010D01*
X255883343Y-79173933D01*
X255990568Y-78963492D01*
X256063553Y-78738868D01*
X256084799Y-78604728D01*
X256100500Y-78505597D01*
X256100500Y-64369402D01*
X256063553Y-64136131D01*
X255990566Y-63911503D01*
X255883342Y-63701066D01*
X255744517Y-63509990D01*
X255577510Y-63342983D01*
X255386433Y-63204157D01*
X255175996Y-63096933D01*
X254951368Y-63023946D01*
X254718097Y-62987000D01*
X254718092Y-62987000D01*
X240818092Y-62987000D01*
X240581908Y-62987000D01*
X240581903Y-62987000D01*
X240348631Y-63023946D01*
X240124003Y-63096933D01*
X239913566Y-63204157D01*
X239804550Y-63283362D01*
X239722490Y-63342983D01*
X239722488Y-63342985D01*
X239722487Y-63342985D01*
X239555485Y-63509987D01*
X239555485Y-63509988D01*
X239555483Y-63509990D01*
X239495862Y-63592050D01*
X239416657Y-63701066D01*
X239309433Y-63911503D01*
X239236446Y-64136131D01*
X239199500Y-64369402D01*
X239199500Y-78478543D01*
X239179815Y-78545582D01*
X239127011Y-78591337D01*
X239057853Y-78601281D01*
X239005374Y-78580809D01*
X238880243Y-78495003D01*
X238741700Y-78400000D01*
X238741699Y-78400000D01*
X238374806Y-78422348D01*
X237182038Y-78495002D01*
X237113927Y-78479430D01*
X237065046Y-78429506D01*
X237050500Y-78371232D01*
X237050500Y-64369402D01*
X237013553Y-64136131D01*
X236940566Y-63911503D01*
X236833342Y-63701066D01*
X236694517Y-63509990D01*
X236527510Y-63342983D01*
X236336433Y-63204157D01*
X236125996Y-63096933D01*
X235901368Y-63023946D01*
X235668097Y-62987000D01*
X235668092Y-62987000D01*
X221768092Y-62987000D01*
X221531908Y-62987000D01*
X221531903Y-62987000D01*
X221298631Y-63023946D01*
X221074003Y-63096933D01*
X220863566Y-63204157D01*
X220754550Y-63283362D01*
X220672490Y-63342983D01*
X220672488Y-63342985D01*
X220672487Y-63342985D01*
X220505485Y-63509987D01*
X220505485Y-63509988D01*
X220505483Y-63509990D01*
X220445862Y-63592050D01*
X220366657Y-63701066D01*
X220259433Y-63911503D01*
X220186446Y-64136131D01*
X220149500Y-64369402D01*
X218000500Y-64369402D01*
X217963553Y-64136131D01*
X217890566Y-63911503D01*
X217783342Y-63701066D01*
X217644517Y-63509990D01*
X217477510Y-63342983D01*
X217286433Y-63204157D01*
X217075996Y-63096933D01*
X216851368Y-63023946D01*
X216618097Y-62987000D01*
X216618092Y-62987000D01*
X202718092Y-62987000D01*
X202481908Y-62987000D01*
X202481903Y-62987000D01*
X202248631Y-63023946D01*
X202024003Y-63096933D01*
X201813566Y-63204157D01*
X201704550Y-63283362D01*
X201622490Y-63342983D01*
X201622488Y-63342985D01*
X201622487Y-63342985D01*
X201455485Y-63509987D01*
X201455485Y-63509988D01*
X201455483Y-63509990D01*
X201395862Y-63592050D01*
X201316657Y-63701066D01*
X201209433Y-63911503D01*
X201136446Y-64136131D01*
X201099500Y-64369402D01*
X198950500Y-64369402D01*
X198913553Y-64136131D01*
X198840566Y-63911503D01*
X198733342Y-63701066D01*
X198594517Y-63509990D01*
X198427510Y-63342983D01*
X198236433Y-63204157D01*
X198025996Y-63096933D01*
X197801368Y-63023946D01*
X197568097Y-62987000D01*
X197568092Y-62987000D01*
X183668092Y-62987000D01*
X183431908Y-62987000D01*
X183431903Y-62987000D01*
X183198631Y-63023946D01*
X182974003Y-63096933D01*
X182763566Y-63204157D01*
X182654550Y-63283362D01*
X182572490Y-63342983D01*
X182572488Y-63342985D01*
X182572487Y-63342985D01*
X182405485Y-63509987D01*
X182405485Y-63509988D01*
X182405483Y-63509990D01*
X182345862Y-63592050D01*
X182266657Y-63701066D01*
X182159433Y-63911503D01*
X182086446Y-64136131D01*
X182049500Y-64369402D01*
X182049500Y-78444256D01*
X182029815Y-78511295D01*
X181977011Y-78557050D01*
X181907853Y-78566994D01*
X181855374Y-78546522D01*
X181757533Y-78479430D01*
X181641700Y-78400000D01*
X181641699Y-78400000D01*
X181487413Y-78409397D01*
X180032037Y-78498048D01*
X179963927Y-78482476D01*
X179915046Y-78432552D01*
X179900500Y-78374278D01*
X179900500Y-64369402D01*
X179863553Y-64136131D01*
X179790566Y-63911503D01*
X179683342Y-63701066D01*
X179544517Y-63509990D01*
X179377510Y-63342983D01*
X179186433Y-63204157D01*
X178975996Y-63096933D01*
X178751368Y-63023946D01*
X178518097Y-62987000D01*
X178518092Y-62987000D01*
X164618092Y-62987000D01*
X164381908Y-62987000D01*
X164381903Y-62987000D01*
X164148631Y-63023946D01*
X163924003Y-63096933D01*
X163713566Y-63204157D01*
X163604550Y-63283362D01*
X163522490Y-63342983D01*
X163522488Y-63342985D01*
X163522487Y-63342985D01*
X163355485Y-63509987D01*
X163355485Y-63509988D01*
X163355483Y-63509990D01*
X163295862Y-63592050D01*
X163216657Y-63701066D01*
X163109433Y-63911503D01*
X163036446Y-64136131D01*
X162999500Y-64369402D01*
X160850500Y-64369402D01*
X160813553Y-64136131D01*
X160740566Y-63911503D01*
X160633342Y-63701066D01*
X160494517Y-63509990D01*
X160327510Y-63342983D01*
X160136433Y-63204157D01*
X159925996Y-63096933D01*
X159701368Y-63023946D01*
X159468097Y-62987000D01*
X159468092Y-62987000D01*
X145568092Y-62987000D01*
X145331908Y-62987000D01*
X145331903Y-62987000D01*
X145098631Y-63023946D01*
X144874003Y-63096933D01*
X144663566Y-63204157D01*
X144554550Y-63283362D01*
X144472490Y-63342983D01*
X144472488Y-63342985D01*
X144472487Y-63342985D01*
X144305485Y-63509987D01*
X144305485Y-63509988D01*
X144305483Y-63509990D01*
X144245862Y-63592050D01*
X144166657Y-63701066D01*
X144059433Y-63911503D01*
X143986446Y-64136131D01*
X143949500Y-64369402D01*
X143949500Y-78444256D01*
X143929815Y-78511295D01*
X143877011Y-78557050D01*
X143807853Y-78566994D01*
X143755374Y-78546522D01*
X143657533Y-78479430D01*
X143541700Y-78400000D01*
X143541699Y-78400000D01*
X143387413Y-78409397D01*
X141932037Y-78498048D01*
X141863927Y-78482476D01*
X141815046Y-78432552D01*
X141800500Y-78374278D01*
X141800500Y-64369402D01*
X141763553Y-64136131D01*
X141690566Y-63911503D01*
X141583342Y-63701066D01*
X141444517Y-63509990D01*
X141277510Y-63342983D01*
X141086433Y-63204157D01*
X140875996Y-63096933D01*
X140651368Y-63023946D01*
X140418097Y-62987000D01*
X140418092Y-62987000D01*
X126518092Y-62987000D01*
X126281908Y-62987000D01*
X126281903Y-62987000D01*
X126048631Y-63023946D01*
X125824003Y-63096933D01*
X125613566Y-63204157D01*
X125504550Y-63283362D01*
X125422490Y-63342983D01*
X125422488Y-63342985D01*
X125422487Y-63342985D01*
X125255485Y-63509987D01*
X125255485Y-63509988D01*
X125255483Y-63509990D01*
X125195862Y-63592050D01*
X125116657Y-63701066D01*
X125009433Y-63911503D01*
X124936446Y-64136131D01*
X124899500Y-64369402D01*
X122750500Y-64369402D01*
X122713553Y-64136131D01*
X122640566Y-63911503D01*
X122533342Y-63701066D01*
X122394517Y-63509990D01*
X122227510Y-63342983D01*
X122036433Y-63204157D01*
X121825996Y-63096933D01*
X121601368Y-63023946D01*
X121368097Y-62987000D01*
X121368092Y-62987000D01*
X107468092Y-62987000D01*
X107231908Y-62987000D01*
X107231903Y-62987000D01*
X106998631Y-63023946D01*
X106774003Y-63096933D01*
X106563566Y-63204157D01*
X106454550Y-63283362D01*
X106372490Y-63342983D01*
X106372488Y-63342985D01*
X106372487Y-63342985D01*
X106205485Y-63509987D01*
X106205485Y-63509988D01*
X106205483Y-63509990D01*
X106145862Y-63592050D01*
X106066657Y-63701066D01*
X105959433Y-63911503D01*
X105886446Y-64136131D01*
X105849500Y-64369402D01*
X105849500Y-78444256D01*
X105829815Y-78511295D01*
X105777011Y-78557050D01*
X105707853Y-78566994D01*
X105655374Y-78546522D01*
X105557533Y-78479430D01*
X105441700Y-78400000D01*
X105441699Y-78400000D01*
X105287413Y-78409397D01*
X103832037Y-78498048D01*
X103763927Y-78482476D01*
X103715046Y-78432552D01*
X103700500Y-78374278D01*
X103700500Y-64369402D01*
X103663553Y-64136131D01*
X103590566Y-63911503D01*
X103483342Y-63701066D01*
X103344517Y-63509990D01*
X103177510Y-63342983D01*
X102986433Y-63204157D01*
X102775996Y-63096933D01*
X102551368Y-63023946D01*
X102318097Y-62987000D01*
X102318092Y-62987000D01*
X88418092Y-62987000D01*
X88181908Y-62987000D01*
X88181903Y-62987000D01*
X87948631Y-63023946D01*
X87724003Y-63096933D01*
X87513566Y-63204157D01*
X87404550Y-63283362D01*
X87322490Y-63342983D01*
X87322488Y-63342985D01*
X87322487Y-63342985D01*
X87155485Y-63509987D01*
X87155485Y-63509988D01*
X87155483Y-63509990D01*
X87095862Y-63592050D01*
X87016657Y-63701066D01*
X86909433Y-63911503D01*
X86836446Y-64136131D01*
X86799500Y-64369402D01*
X84650500Y-64369402D01*
X84613553Y-64136131D01*
X84540566Y-63911503D01*
X84433342Y-63701066D01*
X84294517Y-63509990D01*
X84127510Y-63342983D01*
X83936433Y-63204157D01*
X83725996Y-63096933D01*
X83501368Y-63023946D01*
X83268097Y-62987000D01*
X83268092Y-62987000D01*
X69368092Y-62987000D01*
X69131908Y-62987000D01*
X69131903Y-62987000D01*
X68898631Y-63023946D01*
X68674003Y-63096933D01*
X68463566Y-63204157D01*
X68354550Y-63283362D01*
X68272490Y-63342983D01*
X68272488Y-63342985D01*
X68272487Y-63342985D01*
X68105485Y-63509987D01*
X68105485Y-63509988D01*
X68105483Y-63509990D01*
X68045862Y-63592050D01*
X67966657Y-63701066D01*
X67859433Y-63911503D01*
X67786446Y-64136131D01*
X67749500Y-64369402D01*
X65600500Y-64369402D01*
X65563553Y-64136131D01*
X65490566Y-63911503D01*
X65383342Y-63701066D01*
X65244517Y-63509990D01*
X65077510Y-63342983D01*
X64886433Y-63204157D01*
X64675996Y-63096933D01*
X64451368Y-63023946D01*
X64218097Y-62987000D01*
X64218092Y-62987000D01*
X50318092Y-62987000D01*
X50081908Y-62987000D01*
X50081903Y-62987000D01*
X49848631Y-63023946D01*
X49624003Y-63096933D01*
X49413566Y-63204157D01*
X49304550Y-63283362D01*
X49222490Y-63342983D01*
X49222488Y-63342985D01*
X49222487Y-63342985D01*
X49055485Y-63509987D01*
X49055485Y-63509988D01*
X49055483Y-63509990D01*
X48995862Y-63592050D01*
X48916657Y-63701066D01*
X48809433Y-63911503D01*
X48736446Y-64136131D01*
X48699500Y-64369402D01*
X48699500Y-78478543D01*
X48679815Y-78545582D01*
X48627011Y-78591337D01*
X48557853Y-78601281D01*
X48505374Y-78580809D01*
X48380243Y-78495003D01*
X48241700Y-78400000D01*
X48241699Y-78400000D01*
X47874806Y-78422348D01*
X46682038Y-78495002D01*
X46613927Y-78479430D01*
X46565046Y-78429506D01*
X46550500Y-78371232D01*
X46550500Y-64369402D01*
X46513553Y-64136131D01*
X46440566Y-63911503D01*
X46333342Y-63701066D01*
X46194517Y-63509990D01*
X46027510Y-63342983D01*
X45836433Y-63204157D01*
X45625996Y-63096933D01*
X45401368Y-63023946D01*
X45168097Y-62987000D01*
X45168092Y-62987000D01*
X31268092Y-62987000D01*
X31031908Y-62987000D01*
X31031903Y-62987000D01*
X30798631Y-63023946D01*
X30574003Y-63096933D01*
X30363566Y-63204157D01*
X30254550Y-63283362D01*
X30172490Y-63342983D01*
X30172488Y-63342985D01*
X30172487Y-63342985D01*
X30005485Y-63509987D01*
X30005485Y-63509988D01*
X30005483Y-63509990D01*
X29945862Y-63592050D01*
X29866657Y-63701066D01*
X29759433Y-63911503D01*
X29686446Y-64136131D01*
X29649500Y-64369402D01*
X28875500Y-64369402D01*
X28875500Y-62918643D01*
X28876097Y-62906490D01*
X28879401Y-62872938D01*
X28887743Y-62788234D01*
X28892485Y-62764399D01*
X28892501Y-62764348D01*
X28925202Y-62656547D01*
X28934499Y-62634100D01*
X28987632Y-62534694D01*
X29001133Y-62514490D01*
X29001174Y-62514440D01*
X29072634Y-62427364D01*
X29089813Y-62410185D01*
X29176943Y-62338679D01*
X29197143Y-62325182D01*
X29296545Y-62272051D01*
X29318990Y-62262753D01*
X29426856Y-62230033D01*
X29450680Y-62225294D01*
X29568918Y-62213648D01*
X29580947Y-62213052D01*
X29622595Y-62213052D01*
X29622724Y-62213009D01*
X29632559Y-62213000D01*
X29632585Y-62213007D01*
X29632684Y-62213000D01*
X256127405Y-62213000D01*
X256168907Y-62213000D01*
X256181061Y-62213597D01*
G37*
%TD.AperFunction*%
%TD*%
M02*
